<svg version="1.1" xmlns="http://www.w3.org/2000/svg" viewBox="0 0 403.73726594192385 348.378390939719" width="403.73726594192385" height="348.378390939719">
  <!-- svg-source:excalidraw -->
  
  <defs>
    <style>
      @font-face {
        font-family: "Virgil";
        src: url("https://excalidraw.com/Virgil.woff2");
      }
      @font-face {
        font-family: "Cascadia";
        src: url("https://excalidraw.com/Cascadia.woff2");
      }
    </style>
  </defs>
  <rect x="0" y="0" width="403.73726594192385" height="348.378390939719" fill="#ffffff"></rect><g stroke-linecap="round" transform="translate(42.73726594192385 36.878390939719) rotate(0 42 40.5)"><path d="M8.06 17.6 C8.06 17.6, 8.06 17.6, 8.06 17.6 M8.06 17.6 C8.06 17.6, 8.06 17.6, 8.06 17.6 M4.09 26.78 C9.81 22.76, 17.31 13.36, 26.63 4.15 M4.78 28.85 C10.45 22.18, 15.52 14.58, 25.51 4.93 M-0.49 36.56 C11.64 25.51, 25.17 10.94, 28.86 5.38 M1.65 38.75 C8.83 27.55, 16.72 18.4, 30.56 5.36 M3.87 42.97 C13.75 30.95, 27.3 13.82, 36.67 5.44 M1.3 42.86 C10.64 32.55, 19.55 22.95, 35.31 3.46 M3.61 49.16 C19.33 29.72, 34.25 14, 40.3 3.39 M2.83 47.35 C11.93 37.33, 20.85 26.95, 41.1 3.9 M3.46 51.27 C21.19 35.6, 35.91 16.06, 47.16 3.21 M3.61 53.11 C14.94 38.49, 27.26 25.12, 47.18 2.21 M6.23 57 C17.27 44.36, 25.79 34.51, 52.19 0.79 M5.36 57.15 C23.58 36.76, 41.97 16.56, 53.46 2.59 M6.02 62.8 C21.79 44.2, 34.52 29.91, 56.4 4.18 M7.71 60.4 C19.02 47.93, 30.18 34.11, 57.35 4.72 M10.62 64.98 C22.82 48.7, 33.04 37.01, 60.59 4.87 M10.84 63.52 C22.54 51.17, 33.77 37.49, 59.73 5.8 M11.99 67.84 C27.4 50.56, 40.71 34.01, 62.54 7.47 M14.39 65.71 C28.22 47.94, 44.01 31.86, 64.5 8.9 M16.74 70.76 C34.22 49.79, 52.6 30.32, 66.11 10.32 M16.11 68.52 C27.31 56.38, 37.62 43.51, 68 10.24 M18.5 73.61 C31.19 58.28, 43.19 44.21, 73.04 11.62 M18.67 71.91 C33.26 57.2, 46.37 41.54, 71.1 10.04 M21.17 76.14 C31.61 62.46, 43.02 48.5, 73.44 13.56 M21.13 74.34 C42.13 52.53, 62.4 30.13, 74.01 15.32 M24.61 77.78 C39.71 62.08, 51.95 42.66, 75.45 17.16 M25.02 77.28 C35.13 65.3, 46.24 52.61, 76.27 19.42 M28.46 79.86 C45.04 59.69, 62.29 40.8, 77.87 21.19 M28.4 78.07 C45.81 62.08, 61.19 43.03, 77.63 21.6 M35.98 80.16 C49.57 62.68, 63.46 46.62, 81.17 24.51 M34.06 79.22 C46.84 64.18, 60.9 49.85, 79.49 26.12 M38.47 78.35 C51.92 61.63, 68.88 44.17, 80.65 30.72 M38.25 80.47 C54.34 61.32, 70.97 43.08, 82.24 29.53 M41.04 79.81 C55.64 63.75, 72.71 46.39, 85.6 31.53 M42.71 81.35 C55.58 65.73, 68.54 51.69, 84.81 32.7 M47.09 81.52 C56.36 68.91, 66.43 59.05, 86.42 37.64 M47.56 81.73 C56.88 71.93, 66.89 60.04, 84.07 38.48 M53.39 78.42 C64.21 70.78, 74.25 60.13, 84.28 46.08 M54.59 78.88 C64.03 67.73, 74.51 57.43, 82.89 45.64 M63.36 77.61 C64.86 70.45, 72.02 66.94, 83.76 54.62 M62.91 76.36 C67.35 71.12, 73.4 65.38, 82.93 54.01 M23.08 75.57 C23.08 75.57, 23.08 75.57, 23.08 75.57 M23.08 75.57 C23.08 75.57, 23.08 75.57, 23.08 75.57 M31.11 78.02 C23.86 73.17, 16.44 65.38, 6.47 57.88 M30.18 77.97 C25.44 71.62, 19.57 67.03, 9.26 58.18 M39.5 77.42 C30.75 71.12, 17.79 60.29, 7.98 52.15 M39.24 78 C28.14 68.5, 16.77 59.09, 6.25 51.37 M43.4 78.65 C33.04 67.67, 18.63 54.37, 5.81 43.16 M45.03 78.68 C35.59 71.6, 28.47 64.28, 4.6 43.51 M50.41 79.17 C30.91 64.19, 16.43 46.47, 1.31 35.54 M50.85 78.84 C31.95 63.02, 14.68 46.48, 2.82 35.14 M52.86 74.98 C36.88 61.89, 19.92 49.28, 1.93 30.92 M55.21 76.11 C35.24 61.3, 18.09 46.17, 2.85 32.26 M58.14 74.78 C38.47 55.88, 17 38.51, 3.78 28.35 M58.58 73.76 C38.43 56.67, 18.4 39.89, 4.97 27.39 M63.86 74.9 C51.36 63.54, 36.96 49.03, 8.07 26.24 M62.75 74.31 C50.92 63.47, 39.07 53.01, 6.54 24.25 M66.69 72.18 C43.12 51.31, 22.71 31.89, 6.48 20.76 M68.09 71.08 C43.66 52.33, 21.58 31.5, 7.63 20.78 M68.52 69.45 C48.83 50.75, 22.8 29.31, 10.26 17.93 M69.96 68.41 C51.52 51.24, 33.13 36.55, 10.52 15.98 M72.33 63.12 C53.37 47.68, 36.85 34.42, 12.87 12.54 M72.87 65.87 C56.88 52.73, 40.4 38.84, 12.59 13.51 M76.55 61.32 C54.95 43.56, 36.89 27.2, 14.61 12.38 M75.25 61.16 C56.58 46.01, 37.67 29.81, 15.28 10.55 M79.2 60.22 C58.72 43.02, 41.54 30.76, 20.97 8.44 M77.78 59.07 C58.51 42.38, 38.95 26.17, 18.75 8.77 M79.23 56.84 C57.26 35.91, 36.13 18.83, 23.29 7.1 M79.16 54.96 C63.62 40.85, 48.34 28.7, 22.86 7.11 M81.96 53.89 C64.59 40.56, 51.22 25.24, 24.35 3.68 M81.75 52.35 C69.94 42.23, 57.94 31.99, 25.08 2.13 M83.38 48.77 C69.51 37.02, 60.72 28.58, 28.54 -0.06 M82.28 46.55 C69.81 36.41, 58.39 26.31, 28.92 0.12 M83.09 40.92 C64.17 27.18, 46.7 9.44, 34.67 1.01 M83.05 42.75 C64.85 26.47, 48.33 12.17, 33.17 0.73 M84.64 36.85 C69.49 26.04, 53.35 13.9, 39.42 -1.02 M82.58 37.67 C70.56 27.04, 59.71 16.67, 39.49 -0.74 M81.91 32.33 C71.6 21.3, 60.99 11.45, 46.38 0.98 M84.32 32.5 C72.18 21.74, 59.19 11.59, 45.95 -0.57 M83.48 27.84 C79.52 23.55, 70.31 17.08, 51.02 -1.84 M85.35 29.02 C76.1 21.08, 68.64 14.98, 50.14 -0.98 M78.91 16.56 C72.58 15.22, 70.42 8.74, 64.93 8.11 M78.93 17.98 C75.45 14.89, 72 11.37, 65.72 7.19" stroke="#f1939c" stroke-width="0.5" fill="none"></path><path d="M27.37 2.27 C33.82 -0.92, 42.96 -1.24, 50.31 0.19 C57.67 1.61, 66.04 5.71, 71.51 10.79 C76.97 15.88, 81.56 23.6, 83.12 30.7 C84.68 37.81, 83.58 46.43, 80.85 53.42 C78.12 60.41, 72.76 68.23, 66.76 72.66 C60.76 77.08, 52.09 79.42, 44.86 79.95 C37.63 80.48, 29.81 79.16, 23.38 75.83 C16.95 72.5, 10.08 66.27, 6.26 59.99 C2.44 53.7, 0.19 45.17, 0.48 38.11 C0.78 31.05, 2.74 23.78, 8.04 17.62 C13.34 11.46, 27.37 3.76, 32.28 1.14 C37.19 -1.47, 37.43 1.11, 37.5 1.93 M29.36 3.5 C35.95 0.7, 45.88 -1.11, 53.08 0.37 C60.28 1.86, 67.53 6.87, 72.56 12.41 C77.59 17.95, 82.01 26.08, 83.27 33.62 C84.52 41.15, 82.91 51.01, 80.09 57.6 C77.26 64.19, 72.44 69.24, 66.32 73.14 C60.2 77.04, 51.05 80.81, 43.38 81 C35.71 81.18, 26.79 77.83, 20.29 74.26 C13.78 70.68, 7.59 66.09, 4.35 59.56 C1.11 53.03, -0.16 42.45, 0.84 35.08 C1.84 27.71, 5.43 20.94, 10.33 15.34 C15.23 9.74, 27.23 3.34, 30.24 1.5 C33.24 -0.35, 28.39 3.44, 28.35 4.26" stroke="#000000" stroke-width="1" fill="none"></path></g><g stroke-linecap="round" transform="translate(301.73726594192385 32.378390939719) rotate(0 42 40.5)"><path d="M6.4 18.82 C6.4 18.82, 6.4 18.82, 6.4 18.82 M6.4 18.82 C6.4 18.82, 6.4 18.82, 6.4 18.82 M1.77 27.25 C10.6 22.17, 14.03 18.57, 22.31 6.21 M3.84 28.67 C10.01 20.79, 15.25 15.47, 23.1 7.18 M-0.76 37.07 C7.41 32.28, 12.04 21.95, 28.17 6.6 M1.43 37.28 C10.45 24.48, 21.52 14.18, 28.16 7.31 M1.81 42.55 C16.29 29.24, 25.64 14.43, 34.92 4.7 M1.71 42.45 C10.13 32.83, 19.26 22.28, 32.95 6.34 M4.17 49.12 C13.29 35.77, 26.17 18.78, 40.33 3.13 M2.36 46.9 C12.04 36.21, 21.36 25.7, 40.83 5.06 M3.1 52.59 C16.9 38.63, 26.86 25.44, 48.8 0.57 M4.93 50.7 C20.96 31.85, 38.27 12.91, 47.81 0.08 M5.74 57.89 C17.06 41.9, 31.21 26.3, 50.45 4.49 M5.89 56.23 C20.62 40.31, 35.5 24.02, 52.26 2.78 M9.12 60.9 C25.18 38.83, 45.49 18.97, 55.65 3.58 M6.72 60.35 C24.21 40.77, 40.38 23.64, 56.19 4.16 M9.73 65.57 C22.12 46.72, 39.1 31.69, 58.14 5.04 M8.27 65.85 C19.1 53.84, 28.6 40.58, 59.08 6.35 M12.98 67.56 C23.07 54.2, 33.96 40.61, 62.55 8.4 M10.85 67.37 C22.21 54.05, 35.27 40.64, 63.98 8.81 M15.54 71.12 C25.19 59.62, 36.38 44.11, 67.86 7.88 M13.3 70.63 C26.98 54.69, 39.99 40.81, 67.78 8.95 M18.79 72.7 C31.23 57, 44.87 43.92, 71.06 11.33 M17.09 74.33 C36.39 52.85, 54.76 30.21, 69.49 11.41 M21.7 74.35 C37.85 55.25, 53.78 37.14, 71.24 17.25 M19.91 75.85 C33.06 62.82, 45.56 48.86, 73 15.39 M24.4 78.04 C39.01 60.08, 49.97 45.26, 73.82 17 M23.9 77.92 C41.51 58.3, 58.43 37.12, 76.07 19.18 M28.38 79.87 C37.19 69.14, 47.26 55.24, 76.83 22.64 M26.59 81.1 C40.51 67.65, 51.28 52.43, 77.24 22.3 M33.31 82.35 C44.24 67.63, 56.51 52.04, 78.38 25.32 M32.37 80.39 C45.52 66.27, 59.42 49.26, 80 26.18 M35.38 79.34 C50.44 64.6, 64.85 46.2, 83.58 30.39 M37.5 80.54 C47.31 69.14, 58.09 56.59, 82.38 29.65 M40.71 79.68 C56.88 64.86, 71.78 47.78, 80.75 35.54 M42.24 81.86 C56.47 64.71, 72.26 46.41, 81.92 35.34 M48.25 78.26 C59.07 64.83, 72.65 55.52, 80.85 40.15 M48.46 79.72 C58.49 69.87, 66.42 58.11, 81.69 41.31 M56.74 75.67 C67.31 67.9, 74.87 58.46, 81.88 48.46 M57.2 74.49 C63.94 67.68, 71.54 59.88, 81.44 46.63 M67.51 69.38 C68.95 67.9, 74.05 63.86, 83.56 51.61 M66.26 70.98 C71.48 66.59, 76.2 61.39, 82.95 51.67 M6.04 63.17 C6.04 63.17, 6.04 63.17, 6.04 63.17 M6.04 63.17 C6.04 63.17, 6.04 63.17, 6.04 63.17 M26.89 74.39 C21.89 68.56, 14.1 63.75, 4.55 55.03 M26.84 75.11 C18.7 69.14, 12.69 65.26, 4.84 56.23 M31.88 77.92 C22.83 65.31, 9.54 58.72, 3.12 49.3 M32.46 76.47 C20.25 65.83, 8.5 55.58, 2.34 49.06 M39.24 78.18 C28.88 67.59, 16.46 57.56, -0.83 39.88 M39.26 75.63 C24.01 63.86, 9.04 50.04, -0.48 42.26 M50.23 77.42 C36.53 68.88, 20.67 55.63, 1.79 39.9 M49.9 78.85 C32.85 65.13, 15.11 51.92, 1.4 38.91 M51.87 76.74 C37.93 63.24, 25.05 49.87, 1.96 35.39 M53.01 76.71 C35.15 62.42, 17.75 46.09, 3.31 35.28 M56.76 76.84 C38.7 60.91, 21.8 42.59, 4.84 31.55 M55.75 75.2 C44.1 65.27, 33.15 54.81, 3.88 29.4 M62.07 75.38 C44.8 59.71, 24.79 44.7, 7.52 23.97 M61.48 73.35 C44.71 59.43, 28.79 44.95, 5.52 26.56 M65.18 70.75 C48.21 59.9, 33.46 42.96, 8.24 23.72 M64.08 71.34 C45.05 55.92, 24.96 38.28, 8.26 22.82 M69.61 71.84 C55.49 55.63, 39.34 44.19, 9.44 17.21 M68.57 70.56 C47.76 52.94, 28.77 34.91, 7.49 17.05 M69.58 67.2 C47.91 49.93, 28.52 29.33, 10.45 13.82 M72.33 67.06 C59.51 55.87, 46.7 46.27, 11.42 14.99 M73.42 64.04 C58.43 54, 45.02 38.61, 16.03 12.61 M73.27 64.98 C54.16 47.86, 34.3 29.36, 14.21 12.17 M77.21 58.86 C56.86 44.36, 42.24 33.09, 17.84 10.57 M76.06 61.31 C56.32 44.32, 37.22 26.04, 18.16 10.54 M80.13 56.42 C58.22 39.24, 39.81 24.64, 21.48 6.48 M78.25 57.36 C65.72 47.55, 55.35 36.89, 21.49 6.65 M82.07 52.34 C65.24 40.31, 46.95 24.02, 24.46 2.71 M80.53 53.52 C67.98 42.04, 54.97 30.9, 22.91 3.69 M83.8 48.78 C70.84 41.85, 60.84 30.03, 26.46 0.34 M81.59 49.33 C62.1 31.77, 41.64 15.59, 26.64 2.99 M81.3 45.64 C65.08 30.76, 44.9 13.47, 32.82 2.25 M83.13 45 C64.57 30.34, 47.19 12.92, 32.54 1.4 M81.17 39.61 C71.63 28.7, 61.15 20.32, 36.06 -0.34 M81.99 38.74 C68.99 27.84, 55.59 14.84, 36.35 0.15 M81.99 34 C69.51 25.28, 58.92 15.62, 44.11 -0.15 M82.17 34.9 C66.52 20.82, 51.56 8.71, 42.55 -1.14 M81.44 30.6 C75.29 21.53, 67.18 14.27, 47.32 -2.03 M82.62 28.17 C68.16 17.09, 55.51 4.47, 48.18 -0.31 M72.35 14.39 C70.33 12.65, 63.05 7.07, 62.23 4.19 M73.78 16.25 C69.32 12.45, 64.39 8.31, 61.31 4.7" stroke="#f1939c" stroke-width="0.5" fill="none"></path><path d="M47.22 0.48 C54.29 0.8, 62.99 5.3, 68.73 10.07 C74.47 14.85, 79.47 22.31, 81.66 29.12 C83.84 35.93, 83.95 44.14, 81.86 50.95 C79.76 57.76, 74.68 65.18, 69.1 69.97 C63.52 74.77, 55.9 78.3, 48.36 79.69 C40.82 81.08, 30.89 81.02, 23.87 78.3 C16.85 75.57, 10.31 69.54, 6.25 63.35 C2.18 57.16, -0.55 48.55, -0.53 41.14 C-0.52 33.73, 2.06 25.04, 6.34 18.88 C10.63 12.73, 17.93 7.19, 25.17 4.2 C32.41 1.2, 45.2 1.32, 49.76 0.91 C54.32 0.51, 52.5 1.27, 52.54 1.79 M55.84 2.38 C62.79 3.75, 68.65 8.66, 73.19 14.13 C77.73 19.6, 81.91 28.02, 83.07 35.19 C84.23 42.36, 83.05 50.46, 80.16 57.15 C77.27 63.84, 72.3 71.35, 65.73 75.32 C59.16 79.3, 48.56 81.2, 40.74 80.99 C32.93 80.79, 25.21 78.13, 18.84 74.09 C12.48 70.06, 5.43 63.34, 2.55 56.79 C-0.33 50.24, 0.36 41.83, 1.55 34.79 C2.73 27.74, 4.74 19.85, 9.65 14.53 C14.57 9.21, 23.69 5.13, 31.05 2.88 C38.41 0.63, 49.74 1.11, 53.83 1.04 C57.92 0.96, 55.6 1.57, 55.58 2.43" stroke="#000000" stroke-width="1" fill="none"></path></g><g stroke-linecap="round" transform="translate(49.73726594192385 256.378390939719) rotate(0 42 40.5)"><path d="M5.25 21.79 C5.25 21.79, 5.25 21.79, 5.25 21.79 M5.25 21.79 C5.25 21.79, 5.25 21.79, 5.25 21.79 M2.69 31.64 C7.88 25.03, 14.57 19.12, 23.88 6.35 M4.11 30.29 C7.58 24.23, 13.63 19.23, 24.84 5.71 M0.86 38.42 C10.14 29.23, 13.82 24.12, 30.86 6.15 M1.08 37.9 C10.57 26.4, 22.62 14.95, 31.57 5.31 M1.85 45.93 C12.94 31.19, 22.61 22.1, 36.41 2.74 M1.75 43.61 C12.88 31.78, 23.03 18.87, 38.05 3.39 M5.24 47.28 C21.44 29.63, 34.04 11.1, 44.25 -1.26 M3.02 48.18 C14.7 34.92, 26.53 21.89, 46.19 -0.6 M6.28 53.65 C20.74 34.91, 35.94 17.57, 49.44 2.59 M4.39 52.33 C21.23 33.84, 37.94 13.88, 48.95 0.67 M8.4 55.7 C24.55 36.89, 41.12 14.28, 55.16 2.98 M6.74 56.83 C18.4 44.48, 29.65 31.04, 53.45 3.54 M8.98 59.96 C18.5 49.39, 30.15 35.34, 56.71 4.64 M8.43 61.53 C24.68 41.98, 43.38 21.87, 57.29 3.81 M10.47 63.66 C22.78 49.18, 38.91 30.35, 59.98 3.88 M10.75 64.97 C25.26 47.32, 38.52 30.93, 61.3 5.01 M12.85 68.16 C33.04 43.8, 52.92 19.58, 65.8 5.52 M12.66 66.4 C29.5 48.77, 46.3 30.43, 66.21 5.94 M16.81 70.29 C35.56 49.79, 50.34 28.8, 67.85 7.7 M16.32 69.87 C34.08 48.83, 53.92 27.8, 68.92 8.28 M19.44 71.99 C30.65 58.6, 44.46 45.22, 71.03 13.08 M21.07 72.53 C36.55 54.45, 50.86 34.59, 71.11 12.37 M21.48 75.7 C41.99 51.18, 63.45 25.92, 75.94 14.14 M22.99 74.71 C36.04 61.39, 48.1 46.87, 74.08 15.26 M26.33 78.67 C43.93 53.12, 64.68 30.54, 74.67 19.85 M26.21 76.95 C43.3 57.41, 58.84 40.45, 76.85 18.05 M29.21 78.17 C44.46 61.52, 56.53 46.63, 79.3 21.05 M30.43 79.83 C40.79 67.37, 49.32 55.93, 78.95 21.96 M36.31 78.29 C46.26 65.95, 55.37 54.32, 80.96 25.29 M34.36 79.55 C51.46 61.71, 65.68 42.94, 81.82 25.85 M37.93 79.15 C56.97 59.72, 72.33 41.66, 85.66 26.99 M39.13 79.71 C56.63 60.49, 72.95 41.17, 84.93 29.08 M42.9 79.93 C58.68 64.82, 72.15 48.71, 84.16 36.32 M45.08 79.16 C56.73 66.65, 67.24 53.9, 83.95 35.06 M49.02 78.56 C59.4 68.5, 73.89 53.17, 83.52 39.75 M50.48 80.27 C62.79 65.78, 73.2 51.99, 84.68 40.51 M59.53 77.05 C66.42 70.38, 71.62 61.96, 83.2 48.3 M58.34 74.99 C65.06 69.27, 70.78 60.78, 81.37 48.37 M67.67 70.71 C69.55 69.93, 70.66 69.09, 71.94 66.6 M68.15 71.33 C69.89 69.69, 71.39 67.82, 71.95 66.9 M9.16 64.15 C9.16 64.15, 9.16 64.15, 9.16 64.15 M9.16 64.15 C9.16 64.15, 9.16 64.15, 9.16 64.15 M28.3 77.69 C19.31 68.65, 11.38 62.94, 4.56 55.52 M29.01 75.23 C19.72 67.73, 12.16 61.42, 5.76 56.34 M37.31 77.23 C22.52 64.68, 13.94 57.87, 3.03 49.05 M35.86 75.51 C23.29 64.91, 11.33 56.31, 2.79 47.45 M44.46 78.18 C30.6 65, 16.59 52.83, -0.58 42.89 M41.9 77.24 C28.14 63.93, 12.11 50.5, 1.8 41.16 M47.97 79.44 C33.59 62.15, 14.62 48.12, 3.57 38.02 M49.39 78.66 C35.03 65.32, 21.78 52.97, 2.58 36.93 M53.13 76.39 C34.73 61.94, 15.78 43.05, 4.51 33.82 M53.09 76.86 C34.14 60.44, 13.99 42.91, 4.4 33.13 M59.72 75.04 C45.66 64.12, 29.06 51.01, 6.12 26.87 M58.08 74.52 C40.28 59.32, 22.06 42.56, 3.96 28.49 M64.1 74.99 C44.06 56.09, 24.95 42.11, 3.98 23.85 M62.07 73.62 C43.31 57.38, 23.39 39.8, 6.57 23.73 M65.31 70.96 C46.39 52.79, 20.95 33.97, 8.52 20.42 M65.9 71.62 C43.18 50.1, 18.92 31.14, 7.62 19.1 M71.49 70.99 C47.45 51.13, 27.29 33.27, 10.37 18.06 M70.2 68.33 C56.32 57.3, 41.86 43.64, 10.22 17.96 M73.24 65.28 C56.36 51.21, 36.34 33.11, 11.98 12.4 M73.11 67.54 C49.58 48.42, 28.67 29.05, 13.14 13.68 M74.97 61.8 C57.38 46.08, 35.54 31.47, 15.75 11.95 M75.91 63.17 C55.9 45.79, 35.25 28.36, 15.31 11.21 M75.33 57.75 C52.97 41.76, 34.92 22.02, 19.45 9.7 M77.79 59.55 C58.99 44.27, 39.53 27.77, 19.42 9.22 M77.79 54.48 C61.99 42.49, 48.86 30.46, 21.01 4.02 M78.72 54.94 C61.03 40.5, 42.55 24.7, 21.18 5.83 M80.01 54.38 C62.32 35.81, 40.51 18.9, 22.22 1.5 M81.18 53.15 C65.71 39.93, 50.61 25.03, 23.2 1.99 M81.23 48.42 C69.62 38.18, 53.8 23.22, 27.1 3.12 M81.78 47.76 C70.77 37.68, 61.36 28.66, 29.75 2.48 M82.68 43.68 C68.86 28.88, 52.95 17.35, 34.95 1.92 M82.04 42.3 C72.24 34.25, 60.25 25.37, 34.1 0.17 M82.66 38.14 C65.57 25.11, 51.48 10.07, 38.3 -0.23 M81.79 37.81 C73.94 29.57, 63.18 20.05, 38.79 -0.51 M81.65 30.4 C68.08 17.55, 52.86 6.86, 43.77 0.25 M82.55 31.15 C69.42 20.8, 58.58 11, 42.78 -1.94 M84.25 28.38 C71.2 18.21, 59.45 5.81, 46.42 -1.09 M81.81 26.48 C71.99 18.52, 60.84 9.19, 48.14 -2.44 M82.5 24.97 C78.49 15.92, 70.06 13.46, 57.96 1.99 M84.68 23.53 C77.35 16.68, 69.77 11.6, 58.55 1.16" stroke="#4f383e" stroke-width="0.5" fill="none"></path><path d="M45.48 -0.47 C52.63 -0.48, 61.76 3.28, 67.81 7.73 C73.85 12.17, 79.33 19.33, 81.73 26.2 C84.13 33.06, 84.09 41.67, 82.21 48.9 C80.32 56.13, 75.85 64.5, 70.43 69.56 C65.01 74.62, 56.78 77.89, 49.68 79.26 C42.58 80.63, 34.62 80.32, 27.82 77.77 C21.03 75.21, 13.47 69.76, 8.91 63.93 C4.36 58.11, 1.08 49.87, 0.5 42.81 C-0.08 35.75, 1.73 27.94, 5.42 21.59 C9.11 15.24, 15.29 8.06, 22.66 4.71 C30.03 1.37, 44.57 1.74, 49.63 1.5 C54.69 1.26, 53.29 2.65, 53.02 3.27 M37.73 -0.64 C44.67 -2.35, 53.52 0.15, 60.21 3.55 C66.89 6.94, 73.99 13.13, 77.84 19.72 C81.7 26.31, 83.43 35.94, 83.32 43.09 C83.2 50.24, 81.32 56.83, 77.17 62.61 C73.02 68.4, 65.48 75, 58.41 77.8 C51.34 80.6, 42.19 80.47, 34.72 79.4 C27.26 78.34, 19.07 76.34, 13.61 71.42 C8.15 66.5, 3.75 57.06, 1.98 49.88 C0.21 42.71, 0.53 35.26, 2.99 28.39 C5.45 21.52, 11.19 13.09, 16.75 8.65 C22.32 4.2, 32.99 2.9, 36.39 1.73 C39.78 0.56, 36.8 1.1, 37.11 1.63" stroke="#000000" stroke-width="1" fill="none"></path></g><g stroke-linecap="round" transform="translate(309.73726594192385 257.378390939719) rotate(0 42 40.5)"><path d="M13.59 11.81 C13.59 11.81, 13.59 11.81, 13.59 11.81 M13.59 11.81 C13.59 11.81, 13.59 11.81, 13.59 11.81 M3.47 31.46 C9.11 25.7, 15.41 15.79, 23.88 4.82 M2.12 31.15 C10.25 22.3, 19.47 12.42, 23.24 5.36 M1.32 40.08 C7.01 28.92, 16.74 21.41, 35.16 2.22 M0.8 37.21 C12.96 25.44, 25.22 11.74, 34.33 1.03 M3.59 45.33 C14.73 28.44, 31.54 9.82, 37.89 1.52 M1.26 44.05 C9.9 34.09, 17.47 25.43, 38.54 2.4 M1.2 51.46 C15.48 32.11, 28.93 16.76, 42.29 1.55 M2.09 48.74 C13.81 35.89, 25.75 24.1, 42.95 2.38 M3.83 55.05 C15.09 40.55, 27.69 26.3, 50.01 3.62 M2.51 54.51 C14.18 42.15, 24.41 28.35, 48.09 3.07 M4.11 58.63 C21.03 39.41, 34.17 24.06, 53.52 1.39 M5.23 58.67 C17.83 44.86, 29.36 30.23, 54.08 1.83 M6.59 60.58 C19.58 48.43, 29.17 34.59, 58.39 4.72 M8.17 60.89 C24.36 44.16, 39.96 24.53, 57.57 3.54 M8.53 63.49 C25.83 47.57, 38.83 28, 58.79 6.06 M9.84 65.81 C25.7 45.02, 42.84 26.1, 59.91 7.26 M13.42 66.75 C23.66 53.47, 34.1 41.95, 62.33 9.31 M11.66 67.98 C32.54 46.22, 52.69 23.71, 62.75 9.39 M15.29 72.75 C33.19 48.98, 50.66 28.4, 66.31 11.92 M14.86 70.35 C32.03 52.42, 49.12 32.42, 66.89 10.14 M17.49 73.42 C32.16 58.8, 46.92 40.02, 71.33 13.61 M18.02 75.14 C32.53 56.56, 45.25 40.18, 70.62 14.47 M22.9 74.17 C35.07 60.33, 46.55 46.87, 72.03 14.88 M21.9 76.05 C33.76 63.18, 44.38 49.93, 73.15 17.01 M26.92 75.75 C38.42 60.12, 52.92 42.13, 78.04 18.46 M25.2 78.51 C40.1 59.66, 57.58 41.75, 76.24 17.76 M28.22 80.34 C39.94 64.25, 53.47 50.49, 77.57 20.18 M29.89 80.02 C39.25 66.38, 49.61 55.31, 78.48 21.3 M32.32 82.48 C49.59 60.35, 67.63 38.19, 80.14 27.04 M33.57 81.4 C46.83 65.11, 59.19 51.36, 80.7 27.13 M36.49 82.4 C50.13 65.78, 65.07 53.84, 80.92 31.88 M37.05 82.47 C48.75 68.85, 60.4 56.2, 83.01 30.75 M40.58 84.67 C49.47 75.28, 57.29 64.56, 85.56 34.26 M39.82 84.95 C52.09 70.41, 64.14 56.76, 84.3 34.72 M46.56 80.54 C60.04 71.77, 68.21 56.41, 85.05 39.57 M48.27 83.17 C59.74 67.55, 71.86 54.1, 85.81 38.2 M56.18 81.64 C62.69 73.58, 67.4 66.57, 82.7 46.68 M54.12 80.07 C63.23 71.06, 69.5 62.17, 82.78 46.83 M15.79 73.29 C15.79 73.29, 15.79 73.29, 15.79 73.29 M15.79 73.29 C15.79 73.29, 15.79 73.29, 15.79 73.29 M25.74 78.6 C16.96 72.01, 8.96 63.68, 5.49 59.42 M26.8 77.12 C19.16 71.8, 14.1 65.63, 4.36 58.86 M39.12 79.8 C26.34 70.62, 17.13 62.28, 3.31 53.89 M36.65 81.13 C29.11 76.08, 23.19 68.69, 4.14 52.64 M41.02 77.26 C26.94 70.12, 18.18 58.89, 5.48 48.38 M39.3 78.48 C27.46 68.08, 17.16 58.2, 3.88 47.52 M45.94 79.05 C36.42 71.85, 27.77 61.41, 5.22 42.94 M44.99 78.34 C33.92 67.48, 22.49 58.15, 3.49 42.18 M51.16 77.67 C33.79 62.89, 20.23 52.05, 4.29 35.94 M50.38 76.4 C31.57 62.37, 14.54 46.8, 3.2 36.52 M53.95 73.64 C44.22 62.54, 29.44 55.16, 3.27 31.25 M54.43 74.77 C34.63 55.85, 13.61 40.08, 2.58 29.21 M59.2 75.3 C44.88 59.72, 28.49 48.95, 3.28 27.31 M58.68 74.08 C42.94 59.13, 24.88 43.67, 4.89 26.98 M65.75 73.95 C44.12 58.37, 28.17 39.11, 6.45 23.78 M64.38 73.01 C50.32 60.43, 35.82 49.51, 6.33 23.61 M66.81 72.34 C52.47 55.53, 37.73 45.48, 9.97 21.75 M67.46 70.98 C46.03 51.59, 26.41 34.36, 8.66 20.52 M71.82 66.37 C57.41 57.1, 45.39 45.47, 11.85 15.03 M69.16 68.25 C54.17 53.8, 36.17 38.44, 11.75 16.29 M71.1 66.29 C55.33 48.42, 34.44 30.62, 11.08 13.86 M73.35 63.39 C49.27 44.34, 25.85 24.23, 12.36 12.71 M73.92 63.15 C51.31 39.58, 29.42 20.42, 16.27 10.05 M75.29 62.06 C54.01 42.47, 31.71 23.87, 15.53 10.24 M76.91 57.24 C55.3 39.7, 30.59 17.81, 19.76 7.47 M78.71 59.73 C58.08 40.68, 36.27 23.19, 19.29 6.82 M78.44 53.26 C61.58 40.06, 45.47 23.73, 21.24 5.81 M78.9 55.24 C63.36 39.89, 46.04 24.16, 23.04 5.93 M82.47 51.35 C63.49 34.42, 46.99 18.59, 25.11 2.44 M81.24 50.03 C64.79 35.79, 46.69 20.61, 25.6 2.73 M81.96 47.64 C64.61 29.4, 43.24 11.22, 31.91 -0.62 M81.3 45.11 C64.81 31.71, 48.61 17.76, 31.28 1.43 M83.22 42.68 C66.07 27.91, 51.54 14.75, 35.9 -2.06 M81.84 41.72 C65.18 25.05, 48.04 11.33, 34.15 0.14 M83.78 35.2 C69.43 23.31, 52.6 10.24, 41.2 -1.65 M83.45 37.47 C75.29 28.62, 65.57 21.51, 40.92 0.89 M79.02 30 C73.18 24.31, 69.25 17.9, 49.88 1.05 M79.78 28.49 C69.06 20.1, 58.54 9.12, 47.7 1.18 M78.58 20.91 C74 16.85, 66.95 11.51, 58.16 2.34 M76.69 20.74 C70.45 13.61, 63 8.84, 56.8 2" stroke="#4f383e" stroke-width="0.5" fill="none"></path><path d="M56.36 2.98 C63.28 4.94, 70.71 11, 75.22 16.7 C79.73 22.39, 82.92 30.07, 83.41 37.15 C83.89 44.22, 81.71 52.81, 78.14 59.17 C74.58 65.53, 68.75 71.56, 62.03 75.32 C55.3 79.08, 45.48 82.04, 37.82 81.74 C30.15 81.44, 22.02 78.01, 16.05 73.52 C10.08 69.03, 4.55 61.78, 2.01 54.81 C-0.53 47.84, -1.07 38.82, 0.82 31.71 C2.71 24.59, 7.92 17.21, 13.34 12.11 C18.75 7, 24.99 2.27, 33.3 1.07 C41.61 -0.12, 57.46 3.75, 63.21 4.94 C68.96 6.13, 68.19 7.63, 67.8 8.21 M48.21 0.32 C55.05 0.83, 64.02 5.69, 69.79 10.55 C75.56 15.41, 80.53 22.35, 82.8 29.5 C85.08 36.65, 85.93 46.38, 83.45 53.44 C80.97 60.49, 74.03 67.31, 67.92 71.83 C61.82 76.34, 54.42 79.72, 46.85 80.55 C39.27 81.38, 29.12 79.91, 22.49 76.82 C15.86 73.74, 11 68.12, 7.09 62.04 C3.18 55.95, -1.05 47.5, -0.96 40.34 C-0.87 33.18, 3.31 25.38, 7.65 19.06 C11.99 12.75, 17.92 5.55, 25.07 2.45 C32.23 -0.65, 46.5 0.53, 50.58 0.45 C54.66 0.37, 49.79 1.5, 49.53 1.97" stroke="#000000" stroke-width="1" fill="none"></path></g><g transform="translate(47.73726594192385 54.878390939719) rotate(0 37 22.5)"><text x="37" y="32" font-family="Virgil, Segoe UI Emoji" font-size="36px" fill="#000000" text-anchor="middle" style="white-space: pre;" direction="ltr">1</text></g><g transform="translate(306.73726594192385 50.378390939719) rotate(0 37 22.5)"><text x="37" y="32" font-family="Virgil, Segoe UI Emoji" font-size="36px" fill="#000000" text-anchor="middle" style="white-space: pre;" direction="ltr">2</text></g><g transform="translate(54.73726594192385 274.378390939719) rotate(0 37 22.5)"><text x="37" y="32" font-family="Virgil, Segoe UI Emoji" font-size="36px" fill="#000000" text-anchor="middle" style="white-space: pre;" direction="ltr">3</text></g><g transform="translate(314.73726594192385 275.378390939719) rotate(0 37 22.5)"><text x="37" y="32" font-family="Virgil, Segoe UI Emoji" font-size="36px" fill="#000000" text-anchor="middle" style="white-space: pre;" direction="ltr">4</text></g><g stroke-linecap="round"><g transform="translate(34.73726594192385 81.878390939719) rotate(0 6.8279705779373785 -35.744849930423754)"><path d="M-0.72 0.39 C-4.56 -10.75, -30.21 -56.33, -23.69 -66.71 C-17.17 -77.09, 28.06 -62.65, 38.39 -61.9 M1.11 -0.45 C-2.29 -11.98, -27.38 -58.58, -21.34 -68.68 C-15.31 -78.78, 27.39 -62.22, 37.31 -61.06" stroke="#000000" stroke-width="1" fill="none"></path></g><g transform="translate(34.73726594192385 81.878390939719) rotate(0 6.8279705779373785 -35.744849930423754)"><path d="M8.1 -59.26 C15.29 -59.66, 20.67 -60.54, 35.33 -60.74 M6.91 -57.33 C13.32 -58.57, 20.04 -59.53, 38.14 -60.61" stroke="#000000" stroke-width="1" fill="none"></path></g><g transform="translate(34.73726594192385 81.878390939719) rotate(0 6.8279705779373785 -35.744849930423754)"><path d="M13.19 -79.14 C19.15 -74.67, 23.27 -70.64, 35.33 -60.74 M12 -77.21 C17.15 -74.16, 22.77 -70.87, 38.14 -60.61" stroke="#000000" stroke-width="1" fill="none"></path></g></g><g stroke-linecap="round"><g transform="translate(40.73726594192385 305.378390939719) rotate(0 6.829520763140948 -35.57656929019089)"><path d="M-0.69 0.29 C-4.51 -11.09, -30.11 -57.49, -23.61 -67.9 C-17.11 -78.31, 27.84 -63.16, 38.31 -62.19 M1.14 -0.6 C-2.21 -11.89, -27.22 -56.69, -21.21 -66.84 C-15.21 -76.98, 27.05 -62.38, 37.18 -61.49" stroke="#000000" stroke-width="1" fill="none"></path></g><g transform="translate(40.73726594192385 305.378390939719) rotate(0 6.829520763140948 -35.57656929019089)"><path d="M7.93 -58.47 C13.08 -59.41, 19.75 -58.91, 35.45 -63.28 M6.92 -57.03 C18.77 -59.15, 31.29 -60.36, 37.12 -61.28" stroke="#000000" stroke-width="1" fill="none"></path></g><g transform="translate(40.73726594192385 305.378390939719) rotate(0 6.829520763140948 -35.57656929019089)"><path d="M12.29 -78.52 C16.46 -74.67, 22.08 -69.35, 35.45 -63.28 M11.28 -77.09 C21.33 -71.42, 32.17 -64.87, 37.12 -61.28" stroke="#000000" stroke-width="1" fill="none"></path></g></g><g stroke-linecap="round"><g transform="translate(292.73726594192385 70.628390939719) rotate(0 -79.9522796069877 -0.2169589392840976)"><path d="M1 1.06 C-25.54 0.81, -132.96 -1.28, -159.97 -1.5 M0.06 0.58 C-26.57 0.48, -134.43 0.23, -160.9 -0.22" stroke="#000000" stroke-width="1" fill="none"></path></g><g transform="translate(292.73726594192385 70.628390939719) rotate(0 -79.9522796069877 -0.2169589392840976)"><path d="M-130.85 -10.19 C-140.16 -9.43, -144.73 -7.24, -160.46 -1.81 M-133.58 -9.8 C-139.83 -7.34, -145 -5.83, -160.57 -0.94" stroke="#000000" stroke-width="1" fill="none"></path></g><g transform="translate(292.73726594192385 70.628390939719) rotate(0 -79.9522796069877 -0.2169589392840976)"><path d="M-131.02 10.33 C-140.3 6.22, -144.83 3.53, -160.46 -1.81 M-133.75 10.72 C-139.83 8.46, -144.97 5.27, -160.57 -0.94" stroke="#000000" stroke-width="1" fill="none"></path></g></g><g stroke-linecap="round"><g transform="translate(296.73726594192385 300.128390939719) rotate(0 -80.2051935918629 -0.4063953897263559)"><path d="M0.45 -0.33 C-26.37 -0.63, -134.08 -0.95, -160.86 -0.87 M-0.77 -1.55 C-27.22 -1.72, -131.87 0.74, -158.61 0.74" stroke="#000000" stroke-width="1" fill="none"></path></g><g transform="translate(296.73726594192385 300.128390939719) rotate(0 -80.2051935918629 -0.4063953897263559)"><path d="M-131.1 -11.33 C-138.8 -6.97, -145.65 -5.3, -159.32 0.32 M-130.06 -9.19 C-136.4 -6.98, -142.41 -5.08, -159.15 1.22" stroke="#000000" stroke-width="1" fill="none"></path></g><g transform="translate(296.73726594192385 300.128390939719) rotate(0 -80.2051935918629 -0.4063953897263559)"><path d="M-130.84 9.19 C-138.78 7.29, -145.71 2.71, -159.32 0.32 M-129.8 11.33 C-136.29 9.15, -142.36 6.65, -159.15 1.22" stroke="#000000" stroke-width="1" fill="none"></path></g></g></svg>