<svg version="1.1" xmlns="http://www.w3.org/2000/svg" viewBox="0 0 1402.5 321" width="1402.5" height="321">
  <!-- svg-source:excalidraw -->
  
  <defs>
    <style>
      @font-face {
        font-family: "Virgil";
        src: url("https://excalidraw.com/Virgil.woff2");
      }
      @font-face {
        font-family: "Cascadia";
        src: url("https://excalidraw.com/Cascadia.woff2");
      }
    </style>
  </defs>
  <rect x="0" y="0" width="1402.5" height="321" fill="#ffffff"></rect><g stroke-linecap="round" transform="translate(306 39.42105263157828) rotate(0 74.50000000000034 109.78947368421106)"><path d="M36.77 -0.72 L121.22 -1.05 L127.11 2.39 L139.66 9.36 L145.72 21.21 L147.82 38.28 L147.91 190.43 L146.52 199.68 L139.69 209.13 L126.27 218 L113.52 219.63 L28.2 218.65 L22.55 215.44 L7.88 208.48 L4.2 199.05 L-0.17 182.12 L1.17 28.32 L3.3 21.58 L10.61 10.61 L19.1 2.24 L36.44 -0.22" stroke="none" stroke-width="0" fill="#5698c3"></path><path d="M37.25 0 M37.25 0 C57.81 -1.64, 83.28 1.53, 111.75 0 M37.25 0 C61.99 -0.39, 87.3 -1.4, 111.75 0 M111.75 0 C136.33 -0.37, 147.16 11.48, 149 37.25 M111.75 0 C137.58 0.89, 148.18 10.32, 149 37.25 M149 37.25 C148.37 91.29, 151.07 147.36, 149 182.33 M149 37.25 C148.29 87.05, 149.04 135.58, 149 182.33 M149 182.33 C149.58 208.19, 138.55 220.32, 111.75 219.58 M149 182.33 C151.21 208.55, 136.45 217.92, 111.75 219.58 M111.75 219.58 C93.28 219.97, 75.73 218.29, 37.25 219.58 M111.75 219.58 C87.96 219.78, 65.59 218.75, 37.25 219.58 M37.25 219.58 C14.19 218.37, 1.6 206.44, 0 182.33 M37.25 219.58 C10.34 218.01, 1.54 205.37, 0 182.33 M0 182.33 C0.62 129.32, -1.64 72.52, 0 37.25 M0 182.33 C1.15 135.94, 2.26 91.6, 0 37.25 M0 37.25 C-0.97 11.72, 13.58 -0.81, 37.25 0 M0 37.25 C1.87 11.61, 13.39 -0.78, 37.25 0" stroke="#5698c3" stroke-width="1" fill="none"></path></g><g stroke-linecap="round" transform="translate(338.15263157894765 68.43684210526192) rotate(0 41.95526315789493 69.4026315789477)"><path d="M-0.72 1.51 L82.23 -0.7 L82.71 137.31 L1.3 139.68" stroke="none" stroke-width="0" fill="#fff"></path><path d="M-2 1.07 C24.49 -0.6, 53.1 -0.83, 85.51 -0.72 M-0.78 0.77 C18.54 -1.14, 36.18 0.27, 83.78 -0.23 M83.31 -1.32 C84.15 45.18, 81.56 86.8, 85.08 138 M83.57 -0.53 C83.75 52.15, 83.69 106.48, 84.05 138.58 M82.92 139.42 C61.05 139.43, 37.59 137.24, -0.02 138.46 M84.76 138.74 C53.5 138.41, 23.89 139.48, -0.63 138.3 M1.53 139.71 C-1.11 100.43, 0.52 62.66, -1.52 -0.45 M-0.9 138.51 C1.21 105.38, 1.18 72.53, 0 0.31" stroke="#5698c3" stroke-width="1" fill="none"></path></g><g stroke-linecap="round" transform="translate(366.3842105263153 220.57368421052433) rotate(0 12.547368421052681 12.155263157894808)"><path d="M16.4 -0.05 C18.75 0.75, 21.49 4.2, 22.77 6.33 C24.05 8.47, 24.35 10.37, 24.09 12.78 C23.83 15.2, 22.96 19.05, 21.23 20.83 C19.5 22.61, 16.26 23.4, 13.71 23.46 C11.16 23.52, 8.29 22.74, 5.93 21.19 C3.56 19.64, 0.4 16.68, -0.47 14.16 C-1.33 11.64, -0.56 8.43, 0.75 6.07 C2.06 3.71, 4.59 0.75, 7.39 0.01 C10.2 -0.73, 15.83 1.43, 17.59 1.61 C19.34 1.79, 18.2 0.85, 17.94 1.09 M11.4 -0.01 C13.64 -0.35, 15.59 0.6, 17.95 1.99 C20.31 3.37, 24.71 5.98, 25.57 8.29 C26.43 10.61, 24.42 13.23, 23.11 15.88 C21.8 18.52, 19.92 22.9, 17.72 24.17 C15.51 25.44, 12.53 24.08, 9.89 23.5 C7.25 22.91, 3.37 22.77, 1.88 20.64 C0.38 18.51, 0.69 13.58, 0.92 10.71 C1.14 7.84, 1.63 5.38, 3.23 3.42 C4.83 1.46, 9.25 -0.5, 10.53 -1.06 C11.81 -1.62, 10.86 -0.24, 10.91 0.05" stroke="none" stroke-width="0" fill="#fff"></path><path d="M11.26 -0.68 C13.68 -1.52, 16.81 -0.54, 18.88 1.02 C20.94 2.57, 22.87 6.05, 23.66 8.64 C24.45 11.23, 24.45 14.32, 23.6 16.56 C22.75 18.79, 20.59 20.89, 18.54 22.03 C16.49 23.18, 13.96 23.59, 11.29 23.42 C8.61 23.25, 4.39 22.96, 2.49 21.01 C0.59 19.05, -0.15 14.61, -0.09 11.7 C-0.04 8.79, 0.95 5.44, 2.84 3.55 C4.74 1.66, 9.73 0.87, 11.27 0.37 C12.82 -0.13, 12.18 0.35, 12.13 0.57 M13.58 0 C15.76 -0.06, 17.47 1.03, 19.25 2.53 C21.02 4.04, 23.42 6.26, 24.25 9.03 C25.08 11.8, 25.58 16.92, 24.23 19.16 C22.89 21.4, 18.69 21.85, 16.17 22.48 C13.66 23.11, 11.42 23.5, 9.15 22.94 C6.87 22.38, 3.85 21.47, 2.52 19.14 C1.19 16.82, 0.64 11.58, 1.15 9.01 C1.66 6.44, 3.48 5.12, 5.59 3.72 C7.7 2.32, 12.8 1.21, 13.84 0.6 C14.89 -0.01, 12.27 -0.15, 11.86 0.04" stroke="#fff" stroke-width="1" fill="none"></path></g><g transform="translate(355 283) rotate(0 20.5 14)"><text x="0" y="21" font-family="Virgil, Segoe UI Emoji" font-size="20px" fill="#000" text-anchor="start" style="white-space: pre;" direction="ltr">手机</text></g><g stroke-linecap="round" transform="translate(862 31) rotate(0 86.5 107)"><path d="M41.72 -1.68 L140.39 0.3 L155.73 6.61 L165.14 16.96 L172.61 33.14 L173.21 44.39 L174.61 171.98 L168.45 189.12 L167.24 195.55 L156.42 208.44 L147.42 213.17 L131.33 214.75 L31.93 212.97 L18.3 209.39 L6.11 196.88 L2.55 179.79 L1.5 170.95 L2.29 31.3 L6.01 15.66 L18.79 5.45 L32.72 -0.13 L43.8 -0.62" stroke="none" stroke-width="0" fill="#83cbac"></path><path d="M43.25 0 M43.25 0 C60.51 2.75, 79.8 0.18, 129.75 0 M43.25 0 C70.28 0.84, 96.5 0.74, 129.75 0 M129.75 0 C159.12 -1.54, 171.74 16.39, 173 43.25 M129.75 0 C157.99 -1.63, 174.61 13.31, 173 43.25 M173 43.25 C173.43 84.6, 172.65 123.46, 173 170.75 M173 43.25 C172.61 84.16, 172.77 127.25, 173 170.75 M173 170.75 C172.96 200.87, 158.12 213.83, 129.75 214 M173 170.75 C171.56 200.31, 160.56 212.54, 129.75 214 M129.75 214 C108.15 214.12, 89.8 211.45, 43.25 214 M129.75 214 C95.43 214.1, 60.82 214.63, 43.25 214 M43.25 214 C13.38 215.01, -0.42 200.29, 0 170.75 M43.25 214 C12.88 212.48, -2.15 198.4, 0 170.75 M0 170.75 C0.49 126.94, 0.09 81.81, 0 43.25 M0 170.75 C-1.94 124.69, -1.53 78.94, 0 43.25 M0 43.25 C1.1 13.87, 15.16 1.66, 43.25 0 M0 43.25 C1.01 12.75, 13.83 2.16, 43.25 0" stroke="#fff" stroke-width="1" fill="none"></path></g><g stroke-linecap="round" transform="translate(883 56) rotate(0 29 29)"><path d="M16.05 1.06 L47.66 -0.15 L52.85 2.32 L54.27 4.52 L56.82 13.68 L59.77 46.85 L57.25 51.87 L52.17 54.71 L44.13 59.71 L9.84 56.43 L5.12 54.65 L0.56 53.02 L0.29 41.52 L2.83 9.6 L5.23 1.9 L15.07 -0.85" stroke="none" stroke-width="0" fill="#83cbac"></path><path d="M14.5 0 M14.5 0 C25.14 0.56, 35.28 -1.47, 43.5 0 M14.5 0 C20.46 0.76, 26.7 -0.02, 43.5 0 M43.5 0 C53.22 -0.88, 59.14 6.55, 58 14.5 M43.5 0 C54.52 -1.95, 56.71 3.82, 58 14.5 M58 14.5 C58.9 22.52, 59.03 25.77, 58 43.5 M58 14.5 C58.15 21.9, 58.69 29.8, 58 43.5 M58 43.5 C58.55 52.12, 54.4 57.51, 43.5 58 M58 43.5 C56.1 51.37, 53.93 56.42, 43.5 58 M43.5 58 C35.55 56.3, 24.13 59.83, 14.5 58 M43.5 58 C33.08 57.78, 23.96 57.6, 14.5 58 M14.5 58 C3.39 56.94, 0.74 51.63, 0 43.5 M14.5 58 C3.61 57.46, 0.77 53.18, 0 43.5 M0 43.5 C0.34 32.05, -1.81 24.87, 0 14.5 M0 43.5 C-1.12 36.19, 0.55 29.36, 0 14.5 M0 14.5 C0.17 6.65, 5.55 1.32, 14.5 0 M0 14.5 C0.6 4.6, 5.47 -1.87, 14.5 0" stroke="#fff" stroke-width="1" fill="none"></path></g><g stroke-linecap="round" transform="translate(957 55) rotate(0 29 29)"><path d="M15.68 -1.7 L45.78 -0.66 L50.72 3.14 L55.42 6.41 L59.66 15.37 L56.33 46.39 L57.84 52.91 L52.09 54.83 L44.34 56.73 L11.65 56.72 L6.9 55.47 L0.39 50.77 L0.66 42.12 L1.35 8.76 L7.31 3.44 L12.57 -0.67" stroke="none" stroke-width="0" fill="#83cbac"></path><path d="M14.5 0 M14.5 0 C26.57 -1.23, 35.75 0.19, 43.5 0 M14.5 0 C21.97 -0.62, 28.17 -0.08, 43.5 0 M43.5 0 C53.84 0.01, 59.01 5.17, 58 14.5 M43.5 0 C54.06 0.44, 56.53 2.81, 58 14.5 M58 14.5 C59.58 23.7, 57.82 38.22, 58 43.5 M58 14.5 C58.38 25.1, 58.29 34.29, 58 43.5 M58 43.5 C58.55 51.54, 52.53 57.73, 43.5 58 M58 43.5 C59.56 51.88, 51.88 58.02, 43.5 58 M43.5 58 C35.72 56.45, 24.29 56.31, 14.5 58 M43.5 58 C38.29 59.19, 31.99 57.39, 14.5 58 M14.5 58 C6.75 59.53, -0.05 53.89, 0 43.5 M14.5 58 C5.05 58.48, -0.79 52.23, 0 43.5 M0 43.5 C1.94 36.06, -1.29 24.2, 0 14.5 M0 43.5 C-0.6 34.4, 0.7 25.72, 0 14.5 M0 14.5 C1.39 4.72, 6.24 -0.3, 14.5 0 M0 14.5 C1.74 5.71, 4.12 -1.88, 14.5 0" stroke="#fff" stroke-width="1" fill="none"></path></g><g stroke-linecap="round" transform="translate(883 142) rotate(0 29 29)"><path d="M12.96 -1.06 L46.43 0.9 L52.34 3.05 L56.3 6.44 L58.38 13.22 L56.01 48.61 L54.99 53.25 L54.06 53.98 L43.46 59.36 L11.96 57.94 L7.48 56.68 L3.36 52.86 L-0.2 44.05 L-0.72 7.52 L5.39 3.39 L13.38 -1.12" stroke="none" stroke-width="0" fill="#83cbac"></path><path d="M14.5 0 M14.5 0 C24.36 1.75, 30.22 -0.26, 43.5 0 M14.5 0 C21.3 0.92, 27.49 0.74, 43.5 0 M43.5 0 C51.49 1.91, 59.53 4.78, 58 14.5 M43.5 0 C54 0.21, 58.48 4.04, 58 14.5 M58 14.5 C58.39 23.76, 59.65 28.04, 58 43.5 M58 14.5 C57.7 21.12, 57.53 29.39, 58 43.5 M58 43.5 C57.03 54.56, 53.05 59.41, 43.5 58 M58 43.5 C57.66 54.9, 54.04 57.29, 43.5 58 M43.5 58 C38.05 58.51, 28.99 58.21, 14.5 58 M43.5 58 C37.24 57.84, 29.65 57.21, 14.5 58 M14.5 58 C5.4 57.71, -1.56 52.83, 0 43.5 M14.5 58 C6.47 55.71, -0.13 53.29, 0 43.5 M0 43.5 C-0.86 37.79, -0.65 31.51, 0 14.5 M0 43.5 C-0.05 33.53, 0.67 25.05, 0 14.5 M0 14.5 C0.3 5.58, 3.54 0.99, 14.5 0 M0 14.5 C-1.18 7.02, 4.7 1.41, 14.5 0" stroke="#fff" stroke-width="1" fill="none"></path></g><g stroke-linecap="round" transform="translate(958 145) rotate(0 29 29)"><path d="M16.31 0.71 L48.22 0.75 L52.13 2.59 L54.34 5.03 L57.73 15.85 L56.65 45.78 L55.97 52.83 L51.62 57.1 L45.15 56.28 L10.74 55.92 L3.88 55.86 L3.61 54.14 L1.92 44.95 L-0.77 10.07 L7.19 1.99 L15.23 0.19" stroke="none" stroke-width="0" fill="#83cbac"></path><path d="M14.5 0 M14.5 0 C24.05 -1.33, 33.46 1.85, 43.5 0 M14.5 0 C25.52 1.03, 36.27 -0.17, 43.5 0 M43.5 0 C52.25 1.9, 57.03 6.22, 58 14.5 M43.5 0 C53.03 1.62, 57.66 6.57, 58 14.5 M58 14.5 C56.92 23.99, 58.8 34.66, 58 43.5 M58 14.5 C57.23 19.6, 58.85 26.68, 58 43.5 M58 43.5 C58.58 52.13, 53.73 57.71, 43.5 58 M58 43.5 C56.21 52.78, 54.81 55.71, 43.5 58 M43.5 58 C34.68 57.14, 25.53 58.06, 14.5 58 M43.5 58 C35.34 57.64, 27.93 57.22, 14.5 58 M14.5 58 C5.9 57.68, 0.3 53.91, 0 43.5 M14.5 58 C3.35 59.14, -1.18 55.35, 0 43.5 M0 43.5 C0.96 33.09, -1.76 25.25, 0 14.5 M0 43.5 C0.56 33.65, 0.11 23.79, 0 14.5 M0 14.5 C-1.98 4.97, 5.05 0.59, 14.5 0 M0 14.5 C-1.59 6.03, 4.48 2.28, 14.5 0" stroke="#fff" stroke-width="1" fill="none"></path></g><g transform="translate(917.5 267) rotate(0 30.5 14)"><text x="0" y="21" font-family="Virgil, Segoe UI Emoji" font-size="20px" fill="#000" text-anchor="start" style="white-space: pre;" direction="ltr">服务端</text></g><g stroke-linecap="round"><g transform="translate(471 51) rotate(0 187.84174627143892 -0.391114731933925)"><path d="M0.1 1.02 C62.62 1.07, 312.18 0.3, 374.87 0.21 M-1.31 0.51 C61.58 0.19, 314.18 -1.44, 376.99 -1.8" stroke="#000" stroke-width="1" fill="none"></path></g><g transform="translate(471 51) rotate(0 187.84174627143892 -0.391114731933925)"><path d="M350.57 6.75 C357.1 6.07, 365.39 3.63, 375.09 -1.16 M349.6 8.95 C357.2 5.43, 367.32 0.94, 377.67 -2.23" stroke="#000" stroke-width="1" fill="none"></path></g><g transform="translate(471 51) rotate(0 187.84174627143892 -0.391114731933925)"><path d="M350.44 -13.77 C356.99 -8.7, 365.32 -5.4, 375.09 -1.16 M349.47 -11.57 C356.93 -8.45, 367.09 -6.3, 377.67 -2.23" stroke="#000" stroke-width="1" fill="none"></path></g></g><g transform="translate(552 11) rotate(0 101 14)"><text x="0" y="21" font-family="Virgil, Segoe UI Emoji" font-size="20px" fill="#000" text-anchor="start" style="white-space: pre;" direction="ltr">1. 账号密码和设备信息</text></g><g stroke-linecap="round"><g transform="translate(1058 47) rotate(0 36.1876849476248 31.682233100757003)"><path d="M-0.23 -1.48 C26.26 -2.11, 48.88 0.45, 80.8 -1.79 M-0.99 -0.38 C24.37 0.04, 49.09 0, 78.92 0.17 M79.12 -1.99 C78.45 18.37, 79.9 42.19, 78.33 62.71 M79.84 0.54 C79.08 14.11, 78.97 30.03, 78.75 63.85 M79.01 65.35 C43.33 63.93, 10.89 63.04, -8.43 64.27 M78.81 63.25 C46.59 63.43, 17.23 63.08, -7.93 62.89" stroke="#000" stroke-width="1" fill="none"></path></g><g transform="translate(1058 47) rotate(0 36.1876849476248 31.682233100757003)"><path d="M20.11 51.39 C13.26 54.13, 2.59 59.79, -6.13 61.1 M19.35 52.48 C11.83 55.11, 3.64 58.14, -8.02 63.06" stroke="#000" stroke-width="1" fill="none"></path></g><g transform="translate(1058 47) rotate(0 36.1876849476248 31.682233100757003)"><path d="M19.94 71.91 C13.27 68.28, 2.65 67.58, -6.13 61.1 M19.18 73 C11.69 69.34, 3.56 66.07, -8.02 63.06" stroke="#000" stroke-width="1" fill="none"></path></g></g><g transform="translate(1051 10) rotate(0 66.5 14)"><text x="0" y="21" font-family="Virgil, Segoe UI Emoji" font-size="20px" fill="#000" text-anchor="start" style="white-space: pre;" direction="ltr">2. 生成 token</text></g><g transform="translate(1149.5 51) rotate(0 121.5 28)"><text x="0" y="21" font-family="Virgil, Segoe UI Emoji" font-size="20px" fill="#000" text-anchor="start" style="white-space: pre;" direction="ltr">在 redis 中</text><text x="0" y="49" font-family="Virgil, Segoe UI Emoji" font-size="20px" fill="#000" text-anchor="start" style="white-space: pre;" direction="ltr">将 token 和 设备信息绑定</text></g><g stroke-linecap="round"><g transform="translate(845 110) rotate(0 -186.2939196561431 0.19132616707059924)"><path d="M-0.49 0.74 C-98.37 -0.92, -195.64 -1.31, -372.68 0.79 M0.09 -0.04 C-131.09 -0.16, -263.19 -0.46, -372.01 1.03" stroke="#000" stroke-width="1" fill="none"></path></g><g transform="translate(845 110) rotate(0 -186.2939196561431 0.19132616707059924)"><path d="M-344.7 -8.28 C-352.99 -7.55, -360.31 -5.86, -373.12 0.69 M-343.76 -9.55 C-353.41 -5.4, -364.51 -2.76, -372.03 1.08" stroke="#000" stroke-width="1" fill="none"></path></g><g transform="translate(845 110) rotate(0 -186.2939196561431 0.19132616707059924)"><path d="M-344.52 12.24 C-352.94 7.6, -360.3 3.93, -373.12 0.69 M-343.58 10.97 C-353.19 7.87, -364.35 3.27, -372.03 1.08" stroke="#000" stroke-width="1" fill="none"></path></g></g><g transform="translate(595 74) rotate(0 66.5 14)"><text x="0" y="21" font-family="Virgil, Segoe UI Emoji" font-size="20px" fill="#000" text-anchor="start" style="white-space: pre;" direction="ltr">3. 返回 token</text></g><g stroke-linecap="round"><g transform="translate(290 118) rotate(0 -42.32178638270125 34.715516177006066)"><path d="M-0.37 1.3 C-17.69 0.99, -36.05 0.03, -83.01 0.98 M-0.3 0.12 C-29.64 0.63, -61.01 -0.23, -82.07 1.82 M-84.35 1.98 C-81.94 21.75, -83.75 38.92, -83.42 67.71 M-82.82 1.91 C-84.74 16.08, -84.11 29.57, -84.14 69.31 M-82.2 67.66 C-63.31 67.4, -41.7 67.36, -0.61 65.08 M-83.95 68.41 C-55.92 69.73, -28.97 68.55, -2.8 66.97" stroke="#000" stroke-width="1" fill="none"></path></g><g transform="translate(290 118) rotate(0 -42.32178638270125 34.715516177006066)"><path d="M-30.78 80.01 C-22.78 76.66, -15.86 72.79, -2.81 66.95 M-30.7 78.82 C-19.35 75.13, -10.14 69.59, -1.87 67.79" stroke="#000" stroke-width="1" fill="none"></path></g><g transform="translate(290 118) rotate(0 -42.32178638270125 34.715516177006066)"><path d="M-31.86 59.52 C-23.67 60.85, -16.5 61.66, -2.81 66.95 M-31.79 58.33 C-20.21 62.17, -10.6 64.15, -1.87 67.79" stroke="#000" stroke-width="1" fill="none"></path></g></g><g transform="translate(10 114) rotate(0 91 14)"><text x="0" y="21" font-family="Virgil, Segoe UI Emoji" font-size="20px" fill="#000" text-anchor="start" style="white-space: pre;" direction="ltr">4. 将 token 持久化</text></g><g transform="translate(80.5 155) rotate(0 54.5 14)"><text x="0" y="21" font-family="Virgil, Segoe UI Emoji" font-size="20px" fill="#000" text-anchor="start" style="white-space: pre;" direction="ltr">5. 登录成功</text></g><g stroke-linecap="round"><g transform="translate(472 220) rotate(0 188.97538105430766 -0.5789026768137546)"><path d="M0.08 -0.26 C99.89 0, 199.3 -1.84, 377.87 -0.29" stroke="#000" stroke-width="1.5" fill="none" stroke-dasharray="8 9"></path></g><g transform="translate(472 220) rotate(0 188.97538105430766 -0.5789026768137546)"><path d="M349.77 9.42 C357.23 8.26, 364.04 2.97, 379.32 0.87" stroke="#000" stroke-width="1.5" fill="none"></path></g><g transform="translate(472 220) rotate(0 188.97538105430766 -0.5789026768137546)"><path d="M349.86 -11.11 C357.33 -6.83, 364.12 -6.69, 379.32 0.87" stroke="#000" stroke-width="1.5" fill="none"></path></g></g><g transform="translate(561 189) rotate(0 86.5 28)"><text x="0" y="21" font-family="Virgil, Segoe UI Emoji" font-size="20px" fill="#000" text-anchor="start" style="white-space: pre;" direction="ltr">以后的请求都携带</text><text x="0" y="49" font-family="Virgil, Segoe UI Emoji" font-size="20px" fill="#000" text-anchor="start" style="white-space: pre;" direction="ltr">token 和 设备信息</text></g></svg>