<svg version="1.1" xmlns="http://www.w3.org/2000/svg" viewBox="0 0 402.56955397269076 347.6515715783894" width="402.56955397269076" height="347.6515715783894">
  <!-- svg-source:excalidraw -->
  
  <defs>
    <style>
      @font-face {
        font-family: "Virgil";
        src: url("https://excalidraw.com/Virgil.woff2");
      }
      @font-face {
        font-family: "Cascadia";
        src: url("https://excalidraw.com/Cascadia.woff2");
      }
    </style>
  </defs>
  <rect x="0" y="0" width="402.56955397269076" height="347.6515715783894" fill="#ffffff"></rect><g stroke-linecap="round" transform="translate(41.569553972690755 36.151571578389394) rotate(0 42 40.5)"><path d="M6.35 21.42 C6.35 21.42, 6.35 21.42, 6.35 21.42 M6.35 21.42 C6.35 21.42, 6.35 21.42, 6.35 21.42 M5.39 32.71 C12.48 21.09, 20.99 11.37, 24.02 6.38 M4.1 29.96 C8.32 25.48, 14.14 18.76, 25.04 6.89 M1.48 40.93 C10.16 29.33, 20.16 20.25, 32.33 4.86 M-0.47 41.94 C9.74 29.15, 19.59 18.74, 31.33 5.76 M4.26 43.21 C11.46 32.63, 25.43 16.88, 36.17 5.07 M2.11 44.19 C10.75 33.46, 20.38 23.34, 36.7 5.73 M4.81 48.14 C11.66 38.98, 22.8 26.45, 41.24 2.12 M3.49 48.37 C12.21 38.34, 22.63 27.14, 42.53 3.9 M7.63 51.64 C21.05 34.57, 38.27 15.13, 49.59 2.89 M5.88 53.09 C21.18 35.37, 34.35 17.74, 48.5 2.94 M5.92 56.86 C21.65 40.5, 37.04 22.91, 50.78 4.87 M7.64 56.49 C18.44 42.78, 31.73 28.92, 52.07 4.63 M9.31 60.3 C20.83 46.82, 33.14 37.37, 56.19 6.75 M9.39 61.05 C26.67 40.38, 44.61 20.57, 57.15 7.13 M10.37 67.44 C24.13 50.42, 38.88 35.04, 58.92 7.56 M10.74 65.95 C24.19 50.14, 38.73 32.58, 60.26 6.84 M11.65 67.11 C29.67 53.29, 40.38 36.7, 64.96 9.61 M13.72 68.07 C24.39 56.12, 36.01 42.82, 64.03 9.96 M17.6 70.62 C32.86 51.1, 47.45 34.48, 68.88 12.04 M16.96 69.83 C28.75 57.39, 38.12 44.78, 69.19 10.8 M21.64 74.18 C38.22 52.37, 58.43 28.19, 70.38 13.23 M19.1 72.29 C37.46 51.63, 56.77 31.52, 71.48 14.83 M23.21 75.41 C38.4 58.1, 51.83 42.16, 73.97 15.9 M22.16 76.39 C36.38 60.46, 49.46 44.79, 73.58 16.48 M24.32 79.35 C38.2 60.78, 55.25 45.7, 77.51 21.5 M26.37 77.57 C45.17 57.41, 62.22 36.22, 76.01 20.25 M29.98 79.71 C49.74 57.41, 67.06 36.6, 78 22.11 M28.92 79.78 C43.85 61.97, 58.8 45.14, 79.18 23.21 M34.63 78.59 C43.49 67.51, 55.2 53.38, 80.04 26.26 M34.75 79.85 C46.99 67.96, 56.93 54.72, 80.23 27.64 M39.34 79.57 C53.09 63.68, 64.92 48.73, 82.88 29.36 M40 81.28 C51.73 66.55, 65.02 53.02, 84.36 30.01 M46.19 82.85 C59.02 65.7, 71.83 50.66, 83.03 37.8 M44.73 82.04 C58.52 65.45, 71.09 50.51, 83.71 35.85 M48.77 80.82 C61.77 67.36, 68.2 56.91, 83.84 40.3 M49.73 80.87 C63.28 65.98, 75.15 51.44, 83.35 41.8 M60.57 75.48 C65.54 72.92, 67.44 63.61, 82.85 47.85 M59.24 77.38 C67.13 68.22, 73.06 59.46, 82.82 50.15 M67.24 73.28 C69.22 71.12, 71 68.59, 74.64 64.79 M68.25 72.5 C69.57 70.77, 70.55 69.38, 74.1 65.66 M8.74 64.63 C8.74 64.63, 8.74 64.63, 8.74 64.63 M8.74 64.63 C8.74 64.63, 8.74 64.63, 8.74 64.63 M30.17 75.29 C25.73 74.07, 20.01 69.15, 3.89 55.93 M28.58 75.76 C23.2 71.07, 17.09 67.65, 5.28 56.06 M36.47 76.16 C25.14 69.47, 16.77 61.92, 3.59 48.82 M34.68 77.39 C25.3 69.63, 15.51 61.59, 2.27 47.26 M41.81 77.04 C30.35 70.93, 22.07 61.74, -0.98 39.98 M40.73 76.78 C26.08 65.22, 12.9 52.78, 0.93 40.32 M47.95 79.77 C33.63 64.77, 21.72 52.93, 2.03 38.83 M48.99 79.29 C36.27 67.33, 20.99 54.85, 1.8 37.05 M53.68 76.26 C38.06 62.8, 23.91 49.72, 1.65 34.78 M54.45 76.4 C41.46 66.42, 29.6 57.5, 3.12 33.49 M57.81 77.15 C39.47 58.39, 21.98 45.26, 3.3 30.54 M58.18 75.1 C40.33 61.68, 25.52 45.94, 4.35 27.9 M61.44 75.54 C47.99 58.89, 30.78 47.85, 6.58 24.43 M61.89 74.23 C50.02 63.48, 37.64 51.55, 6.3 25.79 M66.14 72.46 C54.33 61.04, 41.8 47.7, 6.16 19.28 M64.4 70.74 C50.58 57.7, 37.25 46.87, 6.32 21.51 M68.08 70.41 C48.53 50.56, 28.3 34.61, 8.94 18.58 M70.11 69.81 C52.06 54.02, 32.74 37.48, 9.78 17 M71.85 67.6 C56.98 55.55, 41.32 41.24, 13.64 14.73 M73.11 67.85 C59.94 56.06, 47.79 43.92, 11.96 14.88 M74.16 64.81 C62.87 52.67, 46.68 38.69, 15.19 12.57 M75.22 64.02 C54.47 46.88, 32.91 27.33, 14.75 12.52 M77.38 58.89 C62.49 46.8, 47.91 36.08, 18.35 6.93 M77.84 60.44 C60.85 46.12, 44.39 32.02, 16.61 8.37 M77.52 58.36 C60.45 39.87, 41.28 24, 21.59 6.13 M78.19 56.43 C63.63 43.58, 46.92 29.58, 20.72 6.11 M81.75 52.92 C65.24 40.67, 53.39 30.78, 25.21 4.26 M81.24 52.76 C64.7 39.8, 50.23 25.84, 23.45 3.64 M83.6 48.35 C70.4 39.22, 61.01 30.56, 29.24 1.96 M81.1 49.21 C68.27 38.16, 54.23 25.79, 28.55 2.5 M83.54 42.69 C71.13 35.07, 59.41 25.11, 34.74 0.76 M82.03 43.45 C63.17 27.32, 44.68 10.72, 32.79 0.95 M83.37 36.46 C65.43 23.58, 50.21 11.02, 38.51 0.49 M81.08 37.93 C64.58 23.87, 47.98 9.41, 38.95 0.07 M82.13 32.2 C73.52 22.91, 62.95 14.53, 42.7 0.88 M82.29 32.11 C73.51 26.23, 66.91 19.73, 43.73 0 M81.65 28 C71.27 15.52, 59.47 6.33, 46.12 -2.84 M80.64 26.72 C69.64 17.22, 57.73 7.11, 47.44 -1.77 M72.27 12.62 C69.39 11.52, 64.27 7.28, 58.23 3.25 M70.56 13.27 C67.81 10.71, 65.96 7.61, 59.76 3.49" stroke="#f1939c" stroke-width="0.5" fill="none"></path><path d="M21.86 4.91 C28.02 1.35, 38.56 -0.07, 46.16 0.68 C53.76 1.44, 61.66 4.93, 67.47 9.46 C73.29 14, 78.59 21.26, 81.06 27.91 C83.53 34.55, 83.85 42.5, 82.31 49.35 C80.76 56.2, 77.33 63.97, 71.8 69.01 C66.27 74.05, 56.53 77.99, 49.11 79.58 C41.7 81.17, 34.09 81.04, 27.33 78.53 C20.58 76.02, 13.25 70.53, 8.6 64.51 C3.95 58.49, -0.23 49.61, -0.57 42.4 C-0.92 35.18, 1.3 27.86, 6.53 21.22 C11.75 14.57, 25.6 6.02, 30.76 2.51 C35.91 -1.01, 37.48 -0.26, 37.46 0.12 M25.8 5.15 C32.1 1.53, 40.24 -1.07, 47.26 -0.15 C54.27 0.77, 61.89 5.65, 67.89 10.67 C73.88 15.69, 80.89 23.28, 83.24 29.96 C85.59 36.65, 84.17 43.89, 82.01 50.76 C79.85 57.64, 75.7 66.11, 70.29 71.23 C64.87 76.35, 57.37 80.5, 49.54 81.47 C41.71 82.44, 30.56 80.22, 23.3 77.04 C16.05 73.86, 10.13 68.38, 6 62.41 C1.87 56.43, -1.55 48.23, -1.48 41.19 C-1.42 34.15, 2.3 26.43, 6.39 20.18 C10.48 13.93, 20.05 6.39, 23.07 3.68 C26.09 0.96, 23.86 3.31, 24.51 3.89" stroke="#000000" stroke-width="1" fill="none"></path></g><g stroke-linecap="round" transform="translate(300.56955397269076 31.651571578389394) rotate(0 42 40.5)"><path d="M2.86 26.34 C2.86 26.34, 2.86 26.34, 2.86 26.34 M2.86 26.34 C2.86 26.34, 2.86 26.34, 2.86 26.34 M4.48 33.47 C8.86 26.1, 15.14 17.45, 21.33 9.56 M1.72 32.64 C8.59 26.89, 13.21 20.17, 21.83 11.01 M1.61 40.27 C8.74 31.68, 18.38 24, 28.57 8.56 M2.62 40.02 C10.46 29.43, 20.67 19.12, 29.46 8.5 M0.24 44.57 C18.64 28.52, 31.81 8.97, 41.37 -0.33 M1.23 45.34 C11.51 33.92, 22.35 22.91, 42.03 -0.32 M3.4 47.89 C17.51 35.1, 28.3 19.37, 43.9 0.1 M3.64 48.88 C18.18 34.16, 31.59 17.33, 45.68 2.12 M4.48 53.33 C23.49 33.8, 40.2 13.84, 50.15 3.38 M5.93 54.62 C21.21 34.61, 36.56 16.88, 50.2 2.57 M7.93 57.45 C21.81 42.98, 34.41 23.18, 54.6 2.92 M7.55 56.4 C23.89 38.89, 40.1 19.2, 54.35 2.9 M8.94 61.65 C18.2 51.22, 31.54 37.49, 58.93 6.11 M9.69 61.62 C25.96 42.57, 43.09 23.24, 59.31 4.47 M12.9 66 C32.59 42.92, 53.98 16, 63.62 4.64 M11.41 65.39 C27.44 47.45, 41.81 28.54, 62.89 4.83 M11.65 71.44 C25.64 55.24, 36.77 44.2, 66.82 6.21 M12.61 69.02 C28.12 52.53, 42.24 36.42, 67.17 7.64 M16.31 72.6 C27.24 56.8, 41.14 42.37, 71.15 8.53 M15.52 73.18 C31.67 53.1, 47.69 35.7, 69.91 11.1 M20.92 72.68 C33.59 59.06, 43.86 44.87, 71.32 14.82 M19.03 73.09 C32.04 60.01, 45.55 45.79, 72.92 13.65 M23.21 76.37 C37.5 58.21, 53.16 43.28, 73.63 15.6 M24.18 75.71 C35.8 61.72, 47.76 48.27, 74.21 16.18 M27.53 76.93 C43.96 58.71, 63.89 37.9, 78.88 20.38 M25.75 79.21 C41.81 60.41, 56.78 44.42, 77.62 19.92 M29.7 81.05 C45.31 60.93, 62.46 44.01, 79.22 22.48 M29.77 80.06 C49.07 57.53, 69.37 35.79, 80.32 21.67 M31.89 80.54 C50.28 61.91, 65.59 42.42, 81.04 26.18 M33.16 83.1 C48.56 65.3, 62.62 49.12, 82.42 27.23 M38.16 82.13 C50.1 66.25, 63.01 52.32, 81.81 31.6 M39.87 81.6 C48.53 71.63, 58.46 60.58, 82.46 32.54 M46.72 82.17 C54.21 70.69, 63.82 59.41, 85.66 37.54 M45.91 82.3 C53.29 71.39, 62.33 60.2, 83.72 36.92 M51.38 82.2 C61.69 64.76, 75.01 51.96, 83.57 43.17 M51.44 81.3 C63.36 66.54, 75.61 50.86, 85.07 41.02 M55.86 81.33 C68 67.83, 73.31 59.63, 84.92 46.33 M57.76 80.74 C68.44 66.2, 79.54 54.1, 87.22 45.44 M69.79 72.86 C71.67 70.31, 72.71 68.32, 79.16 57.29 M68.06 73.73 C71.51 68.51, 75.68 65.48, 81.07 58.8 M11.66 68.9 C11.66 68.9, 11.66 68.9, 11.66 68.9 M11.66 68.9 C11.66 68.9, 11.66 68.9, 11.66 68.9 M29.48 82.22 C24.87 74.55, 16.15 65.15, 7.05 58.73 M29.95 80.44 C21.67 72.83, 15 66.18, 7.19 59.75 M35.73 79.02 C28.67 72.63, 20.54 66.88, 3.29 49.96 M36.96 79.48 C24.87 68.53, 13.06 59.61, 1.73 49.6 M41.99 77.63 C30.94 67.16, 16.6 55.8, 1.76 46.36 M41.73 78.8 C27.27 66.85, 12.53 54.33, 2.1 45.39 M48.03 76.65 C34.09 68.98, 23.51 59.07, 4.65 40.31 M47.55 79.38 C33.38 65.93, 19.3 54.26, 2.87 40.52 M51.87 77.82 C42.34 70.84, 33.05 59.66, 5.29 34.11 M52.01 78.05 C34.57 63.2, 18.38 48.13, 4 35.8 M57.85 75.31 C41.52 64.67, 31.15 52.45, 5.74 30.53 M55.79 75.01 C37.13 59.73, 15.97 42.13, 3.1 30.27 M62.07 75.97 C42.05 59.61, 27.66 44.81, 2.91 23.27 M60.77 74.44 C46.11 62.22, 30.82 49.66, 4.28 24 M64.74 73.31 C50.42 60.94, 33.36 45.24, 4.72 20.66 M63.02 70.77 C50.54 60.31, 39.57 48.75, 6.95 22.09 M67.77 68.5 C44.56 49.53, 24.92 31.95, 10.41 19.61 M67.17 69.99 C54.42 59.11, 41.9 48.89, 8.84 18.97 M71.46 67.56 C51.22 48.32, 28.76 31.2, 12.2 14.66 M71.71 67.17 C60.11 57.6, 47.05 46.39, 12.35 15.7 M75.82 67.14 C60.06 50, 41.48 36.77, 15.69 14.4 M75.04 66.54 C53.82 46.7, 30.38 26.82, 15.64 12.75 M74.7 61.02 C56.36 44.2, 39.06 29.58, 15.69 9.95 M76.24 62.31 C54.02 42.65, 31.15 20.52, 17.13 10.78 M79.71 59.08 C61.75 44.27, 45.85 27.97, 19.88 6.77 M77.78 57.93 C63.21 43.83, 48.37 31.8, 19.86 6.77 M79.82 52.58 C59.84 38.54, 43.26 23.36, 25.17 5.11 M79.65 53.75 C63.39 39.5, 45.09 22.93, 24.54 4.75 M81.45 49.93 C68.05 40.6, 55.79 28.33, 28.05 3.16 M82.31 50.99 C63.34 33.79, 43.98 16.75, 28.59 3.29 M82.64 47.1 C69.41 34.08, 54.36 22.14, 32.03 4.12 M83.4 46.56 C73.22 37.89, 62.7 27.36, 32.22 2.91 M83.92 42.77 C69.57 30.19, 55.15 16.15, 36.94 2.04 M85.39 42.48 C66.71 25.68, 47.93 10.99, 36.53 0.15 M84.15 38.82 C68.08 25.48, 53.6 10.14, 42.62 -2.42 M84.06 36.7 C68.6 24.56, 53.22 9.82, 41.74 -0.27 M84.45 31.35 C72.38 22.49, 63.45 12.76, 48.52 1.78 M83.17 30.41 C69.81 17.95, 56.17 6.71, 49.59 0.6 M82.04 25.91 C76.56 16.87, 67.03 9.92, 57.76 1.31 M82.9 23.61 C73.11 16.43, 62.75 7.99, 58.07 3.46" stroke="#f1939c" stroke-width="0.5" fill="none"></path><path d="M40.67 0.23 C47.96 -0.56, 57.14 1.53, 63.74 5.09 C70.34 8.64, 76.82 15.05, 80.27 21.55 C83.72 28.06, 85.47 36.6, 84.46 44.1 C83.44 51.59, 79.13 60.89, 74.17 66.54 C69.21 72.19, 61.87 75.64, 54.7 78 C47.53 80.36, 38.29 82.21, 31.15 80.72 C24.01 79.23, 16.83 74.63, 11.84 69.05 C6.85 63.48, 2.67 54.44, 1.21 47.29 C-0.26 40.13, 0.12 32.61, 3.06 26.12 C5.99 19.62, 12.24 12.65, 18.8 8.32 C25.37 3.98, 38.54 1.42, 42.43 0.1 C46.31 -1.21, 42.35 -0.09, 42.09 0.43 M34.98 0.3 C41.71 -2.13, 49.65 -1.63, 56.62 1.26 C63.6 4.15, 72.1 11.54, 76.83 17.62 C81.56 23.71, 84.85 30.53, 84.98 37.76 C85.12 44.98, 81.5 54.32, 77.65 60.97 C73.81 67.62, 68.3 74.57, 61.93 77.64 C55.55 80.72, 47.05 80.39, 39.41 79.43 C31.76 78.46, 22.23 76.3, 16.04 71.85 C9.86 67.4, 4.74 59.48, 2.32 52.71 C-0.09 45.94, -0.39 38.32, 1.57 31.24 C3.53 24.16, 8.76 15.32, 14.08 10.22 C19.4 5.11, 30.33 1.9, 33.51 0.61 C36.69 -0.68, 33.04 1.66, 33.15 2.47" stroke="#000000" stroke-width="1" fill="none"></path></g><g stroke-linecap="round" transform="translate(48.569553972690755 255.6515715783894) rotate(0 42 40.5)"><path d="M16.12 10.04 C16.12 10.04, 16.12 10.04, 16.12 10.04 M16.12 10.04 C16.12 10.04, 16.12 10.04, 16.12 10.04 M4.78 29.82 C10.03 23.41, 14.03 17.28, 23.09 6.57 M3.96 30.39 C11.2 22.04, 17.5 15.44, 24.55 6.34 M3.51 36.5 C10.42 30.69, 18.3 20.56, 33.68 3.22 M3.26 36.53 C11.64 27.69, 20.27 18.21, 33.62 3.44 M1.16 44.66 C12.88 31.23, 21.13 21.97, 38.37 1.22 M1.92 43.12 C11.51 33.2, 21.52 23.21, 38.39 2.03 M-0.48 52.93 C15.28 34.95, 28.12 16.92, 42.02 3.88 M0.51 51.98 C16.18 35.08, 29.71 18.84, 44.04 4.08 M3.19 55.89 C20.87 35.58, 38.19 15.53, 48.51 5.37 M4.48 54.55 C13.81 41.04, 25.43 29.04, 47.7 4.32 M6.3 57.77 C19.37 43.29, 27.06 32.46, 51.93 5.61 M5.25 58.3 C22.34 40.06, 37.26 21.51, 51.91 3.74 M8.72 60.27 C27.05 43.99, 42.07 22.93, 58.33 6.61 M8.69 61.23 C24.05 44.15, 39.14 27.46, 56.7 6.71 M11.3 65.93 C29.87 45.68, 44.62 23.39, 60.84 6.87 M10.69 65.95 C30.21 42.2, 48.79 19.43, 61.02 6.01 M14.97 69.05 C23.29 56.08, 36.72 42.83, 63.45 8.01 M12.55 69.2 C26.44 53.11, 40.75 36.43, 64.88 8.16 M15.87 70.49 C34.56 48.8, 54.63 27.95, 66.17 11.35 M16.45 71.49 C31.64 52.37, 49.51 33.47, 68.74 10.7 M17.75 75.12 C31.77 57.15, 45.28 41.04, 72.1 12.82 M18.16 73.09 C33.21 58.74, 47.06 43.64, 70.93 13.78 M23.25 75.16 C36.3 59.6, 52.6 40.26, 73.28 15.36 M22.59 76.15 C42.07 53.19, 62.04 29.68, 73.86 17.21 M25.51 75.82 C45.65 57.41, 63.16 38.11, 78.45 18.97 M27.79 76.95 C38.86 62.65, 52.76 46.85, 77.99 19.3 M31.44 78.66 C46.86 60, 65.49 36.32, 80.19 23.68 M30.46 78.06 C47.73 59.12, 65.76 39.08, 79.38 22.39 M32.74 79.96 C46.51 63.86, 59.43 50.23, 80.05 26.6 M35.3 81.27 C48.08 64.91, 62.5 48.04, 81.1 26.67 M38.4 80.61 C52.68 63.16, 68.92 45.61, 82.29 29.31 M37.87 82.27 C56.1 62.56, 73.29 42.1, 83.23 30.24 M45.13 81.22 C56.09 67.55, 67.3 54.98, 84.39 34.51 M45.26 80.38 C58.19 64.58, 70.85 50.05, 83.77 36.44 M52.6 78.03 C59.1 67.81, 70.19 56.17, 85.53 42.88 M51.71 79.19 C58.63 70.51, 64.62 63.36, 83.38 41.4 M59.75 79.25 C61.63 69.86, 68.81 63.77, 82.33 51.72 M59.16 77.55 C65.12 68.52, 73.52 60.48, 81.44 49.37 M73.57 65.92 C75.8 62.89, 78.28 60.48, 79.25 58.53 M73.96 65.58 C75.44 63.57, 77.9 61.08, 79.93 58.73 M14.9 71.27 C14.9 71.27, 14.9 71.27, 14.9 71.27 M14.9 71.27 C14.9 71.27, 14.9 71.27, 14.9 71.27 M29.24 78.56 C23.71 73.77, 16.77 68.38, 4.2 58.66 M27.46 75.8 C18.66 69.81, 10.75 61.87, 5.22 57.29 M36.6 80.96 C27.83 73.09, 20.13 64.53, 1.6 50.44 M37.07 80.73 C22.81 68.83, 10.29 55.56, 1.24 49.83 M40.5 81.05 C30.42 70.3, 19.55 59.12, 3.35 46.07 M41.67 79.49 C28 66.2, 13.19 51.85, 2.37 44.03 M45.46 76.4 C33.83 64.77, 19.35 55.15, 3.39 40.46 M48.18 78.58 C30.85 64.39, 14.94 49.83, 3.61 39.18 M51.92 76.58 C39.64 64.95, 23.23 54.64, 2.54 36.34 M52.14 76.67 C36.24 64.22, 20.93 50.24, 4.24 34.67 M56.66 74.64 C39.02 61.88, 19.87 46.72, 2.8 30.41 M56.35 76.69 C42.3 61.65, 26.42 48.41, 2.54 28.9 M62.4 72.68 C44.36 61.34, 27.68 44.48, 3.81 24.89 M60.87 74.11 C41.53 56.47, 21.92 40.99, 4.54 25.45 M65.48 72.65 C52.96 59.83, 37.61 48.43, 6.84 21.19 M62.93 70.47 C51.09 60.27, 37.3 49.07, 8.27 23.48 M66.41 67.28 C50.69 55.21, 35.69 43.07, 10.02 17.36 M67.9 68.94 C44.27 49.11, 22.12 29.46, 9.38 19.83 M70.56 68.32 C52.86 52.15, 36.8 36.06, 10.72 14.26 M70.16 67.26 C59.04 56.54, 46.7 46.89, 11.76 15.91 M75.23 65.33 C60.44 52.46, 48.91 43.07, 15.34 13.86 M74.62 65.26 C55.41 47.57, 36.01 32.11, 13.69 12.68 M76.81 60.63 C60.09 47.59, 45.66 31.49, 16.53 11.35 M78.1 62.44 C64.59 51.13, 49.3 38.29, 17.37 9.43 M81.17 59.47 C67.67 48.63, 51.81 33.77, 20.51 6.76 M80.02 58.87 C57.15 38.85, 35.39 19.49, 20.51 8.12 M79.46 53.61 C58.84 36.18, 37.49 16.32, 23.94 5.83 M80.63 55.4 C70.27 44.89, 57.89 34.74, 23.58 4.9 M81.61 50.09 C63.5 34.02, 43.23 15.59, 27.83 4.83 M82.66 51.23 C62 32.88, 40.54 14, 27.96 3.64 M84.32 47.56 C65.69 31.5, 48.68 14.07, 34.63 0.17 M83.77 46.79 C68.71 32.78, 51.4 18.03, 33.41 2.21 M84.78 41.8 C73.11 32.15, 60.6 20.79, 38.39 1.87 M84.48 42.04 C68.55 27.66, 53.86 13.81, 36.5 0.7 M88.24 36.53 C71.3 22.61, 52.56 10.73, 42.88 3.11 M86.12 37.94 C70.68 23.75, 53.15 9.47, 45.04 1.54 M84.41 28.39 C74.72 21.25, 64.29 14.46, 52.66 4.57 M83.47 30.13 C71.79 20.01, 60.96 11.05, 51.48 2.66" stroke="#f1939c" stroke-width="0.5" fill="none"></path><path d="M36.8 0.84 C43.92 -0.55, 52.81 1.56, 59.51 4.71 C66.22 7.87, 73.03 13.81, 77.03 19.76 C81.02 25.71, 83.35 33.34, 83.48 40.39 C83.61 47.45, 82.05 56.01, 77.81 62.09 C73.57 68.17, 64.96 73.75, 58.05 76.89 C51.14 80.03, 43.56 81.87, 36.36 80.93 C29.16 79.99, 20.76 76.17, 14.85 71.23 C8.94 66.3, 2.93 58.27, 0.92 51.31 C-1.09 44.35, 0.28 36.33, 2.78 29.49 C5.28 22.65, 9.76 15.35, 15.9 10.29 C22.04 5.23, 35.26 0.84, 39.62 -0.87 C43.98 -2.58, 42.16 -0.74, 42.04 0.02 M50.13 0.34 C56.81 1.13, 64.39 7.19, 70.03 12.58 C75.67 17.97, 82.13 25.88, 83.98 32.69 C85.82 39.5, 83.76 46.72, 81.1 53.44 C78.44 60.16, 73.77 68.28, 68.02 73.01 C62.28 77.73, 54.52 81.32, 46.63 81.79 C38.74 82.25, 27.71 79.43, 20.68 75.79 C13.66 72.16, 8.17 66.23, 4.49 59.99 C0.82 53.76, -1.99 45.4, -1.39 38.38 C-0.8 31.35, 3.52 23.83, 8.04 17.86 C12.57 11.9, 18.7 5.52, 25.76 2.59 C32.83 -0.34, 46.18 0.48, 50.45 0.28 C54.71 0.08, 51.33 0.65, 51.34 1.39" stroke="#000000" stroke-width="1" fill="none"></path></g><g stroke-linecap="round" transform="translate(308.56955397269076 256.6515715783894) rotate(0 42 40.5)"><path d="M6.97 19.31 C6.97 19.31, 6.97 19.31, 6.97 19.31 M6.97 19.31 C6.97 19.31, 6.97 19.31, 6.97 19.31 M4.54 28.86 C12.54 17.88, 20.86 7.44, 25.68 4.21 M5.11 28.76 C11.92 19.78, 20.45 10.56, 25.45 3.11 M1.84 37.26 C14.91 25.59, 23.68 11.83, 32.14 2.87 M1.87 36.78 C9.97 28.5, 17.48 19.58, 32.36 3.04 M3.34 44 C14.93 26.85, 30.68 10.24, 36.83 1.34 M1.8 42.46 C12.41 32.14, 22.95 19.75, 37.64 2.66 M4.75 47.86 C17.03 30.87, 29.25 15.11, 44.67 1.87 M3.8 48.38 C13.37 36.38, 23.59 25.62, 44.88 2.04 M6.04 52.54 C23.27 32.39, 40.72 12.32, 50.7 -0.18 M4.7 51.11 C18.2 34.86, 33.24 19.14, 49.64 0.15 M5.59 58.62 C14.73 42.71, 27.53 31.66, 54.25 3.46 M6.12 57.39 C21.59 39.11, 36.72 21.43, 52.38 3.09 M5.76 63.6 C24.46 43.81, 38.35 27.59, 57.81 4.67 M6.72 62.59 C23.27 43.69, 40.24 23.87, 57.91 5 M9.75 67.3 C26.23 45.32, 40.76 27.92, 61.29 7.26 M9.76 66.36 C27.08 43.98, 45.4 22.57, 60.43 4.76 M13.16 66.28 C24.95 54.46, 36.39 38.87, 64.23 6.91 M13.32 67.34 C32.08 46.45, 50.22 25.37, 64.38 8.19 M14.24 70.17 C33.01 49.92, 52.63 27.31, 68.62 9.72 M15.25 69.88 C31.99 51.46, 48.92 32.74, 67.97 8.96 M20.68 71.81 C38.99 48.3, 59.22 26.36, 71.14 10.4 M18.65 72.42 C31.72 59.67, 44 45.59, 72.1 11.06 M21.87 73.86 C39.75 56.33, 53.84 35.99, 73.42 16.12 M22.85 74.45 C33.92 61.56, 44.51 47.58, 75.27 14.96 M25.09 77.96 C37.22 66.15, 48.5 53.03, 76.12 17.85 M26.22 75.97 C44.17 56.65, 60.57 37.31, 76.45 19.32 M30.39 76.29 C47.71 59.15, 59.99 42.24, 80.56 23.03 M29.79 77.38 C41.85 65.47, 52.78 51.39, 79.27 21.88 M34.15 78.04 C47 62.34, 62.26 46.44, 80.3 26.45 M35.46 78.21 C50.41 60.97, 64.82 45.13, 80.37 26.73 M37.92 78.2 C50.83 64.56, 63.61 50.52, 80.58 32.08 M39.58 80.31 C54.35 63.52, 68.39 46.25, 81.51 30.41 M44.01 80.47 C58.94 62.49, 75.02 46.9, 81.29 36.77 M43.17 80.99 C54.99 65.83, 68.12 51.78, 83.22 35.92 M46.3 79.89 C55.17 71.88, 62.61 64.64, 83.76 40.76 M47.46 82.01 C55.86 70.38, 65.8 60.5, 82.28 41.61 M53.86 81.7 C61.8 70.48, 73 57.75, 83.67 49.17 M52.16 82.73 C61.12 72.52, 71.18 61.02, 81.32 48.88 M61.63 79.44 C64.27 75.39, 68.43 67.1, 83.27 53.55 M60.88 78.54 C69.32 70.49, 76.75 61.35, 83.72 52.1 M6.91 63.69 C6.91 63.69, 6.91 63.69, 6.91 63.69 M6.91 63.69 C6.91 63.69, 6.91 63.69, 6.91 63.69 M28.67 76.77 C19.93 67.45, 10.3 60.56, 5.92 58.3 M25.91 75.34 C21.26 70.31, 14.27 64.7, 4.54 56.39 M34.68 76.63 C23.89 68.34, 12.15 56.35, 4.05 51.59 M34.45 75.7 C26.41 70.01, 17.25 61.97, 3.44 49.5 M43.73 77.23 C29.71 65.73, 15.18 56.53, 2.77 44.42 M42.17 78.79 C33.4 71.02, 23.23 62.24, 0.73 43.06 M48.04 80.26 C37.74 70.34, 29.85 60.88, 3.36 40.56 M50.22 79.45 C37.73 69.75, 25.28 59.52, 2.08 39 M53.41 79.41 C38.9 63.46, 25.32 50.22, 5.34 35.23 M53.5 78.06 C35.78 61.39, 15.89 44.79, 3.67 35.16 M56.65 76.58 C42.66 61.46, 27.16 48.32, 6.83 30.13 M58.69 77.21 C38.85 60.27, 20.51 43.84, 5.32 30.52 M60.43 74.6 C47.22 61.76, 29.45 46.19, 5.43 27.2 M61.86 74.57 C43.63 59.93, 28.15 44.14, 6 25.4 M66.89 74.24 C44.2 54.37, 23.53 36.66, 5.87 20.5 M64.71 72.29 C53.71 59.95, 41.09 49.93, 8.16 21.53 M68.03 69.34 C54.51 57.02, 41.37 45.39, 6.84 19.3 M69.68 70.47 C46.04 51.1, 22.81 30.56, 9.3 17.53 M74.05 67.33 C57.32 55.26, 40.87 38.57, 9.38 12.48 M72.99 67.92 C50.95 48.93, 30.66 30.56, 11.03 13.62 M75.29 62.91 C58.87 52.07, 46.25 40.39, 16.03 12.45 M75.23 64.23 C57.02 49.2, 40.82 33.86, 14.85 11.79 M74.82 59.26 C58.63 45.09, 38.44 28.12, 19.17 7.52 M76.64 61.21 C55.7 41.16, 33.11 23.99, 17.25 8.57 M78.56 58.49 C66.86 46.5, 51.95 34.24, 19.66 8.33 M77.95 55.72 C65.76 45.84, 53.74 34.98, 21.02 7.7 M79.65 54.04 C62.42 37.78, 42.61 18.67, 23.72 1.75 M81.44 54.36 C62.5 36.79, 43.44 19.66, 22.78 4.38 M82.33 51.25 C62.59 32.2, 40.22 12.38, 27.8 3.22 M83.47 50.34 C71.75 40.36, 59.83 29.78, 26.61 1.9 M83.08 44.39 C65.48 30.06, 45.93 14.96, 29.73 0.58 M82.31 44.86 C69.58 32.09, 55.7 21.92, 31.78 -0.16 M82.01 39.76 C67.19 24.99, 49.87 11.8, 38.78 0.61 M82.25 38.45 C72.98 31.6, 63.95 22.49, 37.61 0.81 M80.67 34.95 C68.03 21.53, 57.27 9.56, 43.34 0.74 M82.09 34.61 C67.89 20.69, 53.22 8.42, 41.78 -1.41 M80.51 28.46 C69.72 17.4, 59.6 10.6, 50.28 0.13 M82.25 27.76 C73.8 20.92, 66.37 13.99, 48.37 -0.53 M78.37 17.08 C70.03 11.29, 65.07 6.7, 62.38 5.51 M77.01 18.81 C72.12 15.1, 69.9 12.64, 60.01 4.39" stroke="#f1939c" stroke-width="0.5" fill="none"></path><path d="M24.73 3.33 C31.07 -0.25, 40.91 -1.23, 48.44 -0.26 C55.97 0.71, 64.4 4.19, 69.91 9.15 C75.42 14.12, 79.57 22.63, 81.52 29.56 C83.47 36.49, 83.69 43.68, 81.61 50.72 C79.54 57.76, 74.56 66.7, 69.09 71.8 C63.61 76.9, 56.04 80.49, 48.76 81.33 C41.47 82.18, 32.37 79.82, 25.38 76.86 C18.38 73.9, 10.88 69.44, 6.81 63.6 C2.73 57.75, 0.87 49.24, 0.95 41.8 C1.02 34.37, 2.93 25.62, 7.24 18.99 C11.54 12.36, 22.85 4.98, 26.76 2.02 C30.68 -0.93, 30.39 0.49, 30.71 1.26 M60.74 3.05 C67.31 5.98, 75.25 14.76, 79.29 21.27 C83.34 27.78, 85.68 34.88, 85.01 42.11 C84.33 49.34, 79.76 58.42, 75.23 64.65 C70.7 70.87, 64.55 77.11, 57.83 79.47 C51.11 81.84, 42.47 80.57, 34.93 78.83 C27.4 77.09, 18.27 74.06, 12.62 69.02 C6.96 63.97, 2.66 55.53, 1.03 48.54 C-0.61 41.55, 0.08 33.92, 2.82 27.06 C5.56 20.19, 11.62 11.86, 17.48 7.35 C23.34 2.83, 30.78 0.3, 37.98 -0.03 C45.18 -0.36, 56.91 4.37, 60.68 5.37 C64.46 6.37, 60.86 5.29, 60.61 5.95" stroke="#000000" stroke-width="1" fill="none"></path></g><g transform="translate(46.569553972690755 54.151571578389394) rotate(0 37 22.5)"><text x="37" y="32" font-family="Virgil, Segoe UI Emoji" font-size="36px" fill="#000000" text-anchor="middle" style="white-space: pre;" direction="ltr">1</text></g><g transform="translate(305.56955397269076 49.651571578389394) rotate(0 37 22.5)"><text x="37" y="32" font-family="Virgil, Segoe UI Emoji" font-size="36px" fill="#000000" text-anchor="middle" style="white-space: pre;" direction="ltr">2</text></g><g transform="translate(53.569553972690755 273.6515715783894) rotate(0 37 22.5)"><text x="37" y="32" font-family="Virgil, Segoe UI Emoji" font-size="36px" fill="#000000" text-anchor="middle" style="white-space: pre;" direction="ltr">3</text></g><g transform="translate(313.56955397269076 274.6515715783894) rotate(0 37 22.5)"><text x="37" y="32" font-family="Virgil, Segoe UI Emoji" font-size="36px" fill="#000000" text-anchor="middle" style="white-space: pre;" direction="ltr">4</text></g><g stroke-linecap="round"><g transform="translate(33.569553972690755 81.1515715783894) rotate(0 8.12052830424932 -34.69871009724045)"><path d="M0.6 -0.56 C-3.15 -11.89, -28.56 -57.57, -22.02 -67.75 C-15.49 -77.92, 29.77 -62.9, 39.81 -61.62 M-0.54 1.75 C-4.4 -9.46, -29.13 -56.2, -22.46 -66.6 C-15.79 -77, 29.39 -61.37, 39.47 -60.62" stroke="#000000" stroke-width="1" fill="none"></path></g><g transform="translate(33.569553972690755 81.1515715783894) rotate(0 8.12052830424932 -34.69871009724045)"><path d="M8.81 -54.93 C18.6 -56.74, 28.91 -60.82, 41.06 -62.19 M10.17 -55.77 C16.64 -58.33, 22.45 -57.66, 40.41 -59.66" stroke="#000000" stroke-width="1" fill="none"></path></g><g transform="translate(33.569553972690755 81.1515715783894) rotate(0 8.12052830424932 -34.69871009724045)"><path d="M13.15 -74.99 C21.5 -69.96, 30.34 -67.22, 41.06 -62.19 M14.52 -75.82 C19.91 -74.05, 24.79 -69.09, 40.41 -59.66" stroke="#000000" stroke-width="1" fill="none"></path></g></g><g stroke-linecap="round"><g transform="translate(291.56955397269076 69.9015715783894) rotate(0 -79.36757212786472 -0.07388672081140157)"><path d="M0.98 -0.75 C-25.66 -0.92, -132.23 -1.73, -159.19 -1.62 M0.03 1.48 C-26.74 1.5, -133.32 0.16, -159.71 -0.4" stroke="#000000" stroke-width="1" fill="none"></path></g><g transform="translate(291.56955397269076 69.9015715783894) rotate(0 -79.36757212786472 -0.07388672081140157)"><path d="M-132.6 -8.86 C-142.36 -7.89, -149.67 -4.68, -161.43 -1.77 M-130.86 -10.83 C-142.49 -5.23, -152.6 -1.34, -158.95 -0.3" stroke="#000000" stroke-width="1" fill="none"></path></g><g transform="translate(291.56955397269076 69.9015715783894) rotate(0 -79.36757212786472 -0.07388672081140157)"><path d="M-132.93 11.66 C-142.48 5.44, -149.68 1.47, -161.43 -1.77 M-131.19 9.69 C-142.78 7.24, -152.76 3.09, -158.95 -0.3" stroke="#000000" stroke-width="1" fill="none"></path></g></g><g stroke-linecap="round"><g transform="translate(295.5695658085408 299.4015716523636) rotate(0 -79.77628181202732 -0.4985546755682435)"><path d="M-0.75 0.81 C-27.42 0.35, -134.23 -1.35, -160.62 -1.81 M1.06 0.19 C-25.16 -0.23, -131.5 -0.48, -158.23 -0.69" stroke="#000000" stroke-width="1" fill="none"></path></g><g transform="translate(295.5695658085408 299.4015716523636) rotate(0 -79.77628181202732 -0.4985546755682435)"><path d="M-128.64 -11.84 C-138.4 -6.83, -145.76 -7.59, -159.6 1.15 M-130.61 -10.87 C-138.67 -6.26, -148.29 -2.98, -158.13 -1.64" stroke="#000000" stroke-width="1" fill="none"></path></g><g transform="translate(295.5695658085408 299.4015716523636) rotate(0 -79.77628181202732 -0.4985546755682435)"><path d="M-128.74 8.68 C-138.64 8.5, -145.98 2.55, -159.6 1.15 M-130.71 9.65 C-138.9 7.23, -148.49 3.48, -158.13 -1.64" stroke="#000000" stroke-width="1" fill="none"></path></g></g><g stroke-linecap="round"><g transform="translate(85.56955397269076 243.9015715783894) rotate(0 -0.7754561110632494 -59.18908668681979)"><path d="M0.24 -0.38 C-0.06 -19.92, -0.64 -98.43, -0.9 -118 M-1.09 -1.63 C-1.63 -20.98, -1.6 -97.77, -1.79 -116.98" stroke="#000000" stroke-width="1" fill="none"></path></g><g transform="translate(85.56955397269076 243.9015715783894) rotate(0 -0.7754561110632494 -59.18908668681979)"><path d="M7.96 -88.67 C3.19 -99.96, -0.38 -111.07, -1.57 -116.22 M7.81 -88.21 C6.36 -93.88, 4.79 -99.62, -0.93 -117.96" stroke="#000000" stroke-width="1" fill="none"></path></g><g transform="translate(85.56955397269076 243.9015715783894) rotate(0 -0.7754561110632494 -59.18908668681979)"><path d="M-12.56 -88.58 C-9.58 -99.94, -5.41 -111.09, -1.57 -116.22 M-12.71 -88.12 C-9.85 -94, -7.11 -99.76, -0.93 -117.96" stroke="#000000" stroke-width="1" fill="none"></path></g></g></svg>