<svg version="1.1" xmlns="http://www.w3.org/2000/svg" viewBox="0 0 1551 945.7894736842109" width="1551" height="945.7894736842109">
  <!-- svg-source:excalidraw -->
  
  <defs>
    <style>
      @font-face {
        font-family: "Virgil";
        src: url("https://excalidraw.com/Virgil.woff2");
      }
      @font-face {
        font-family: "Cascadia";
        src: url("https://excalidraw.com/Cascadia.woff2");
      }
    </style>
  </defs>
  <rect x="0" y="0" width="1551" height="945.7894736842109" fill="#ffffff"></rect><g stroke-linecap="round" transform="translate(375.70048309178674 160.76328502415356) rotate(0 24.202898550724626 32.67391304347825)"><path d="M10.77 -0.41 L37.75 0.74 L43.61 3.51 L48.03 4.69 L48.13 10.62 L46.89 51.95 L48.29 60.91 L45.48 64.03 L35.23 63.62 L9.18 63.36 L5.83 61.86 L2.07 61.57 L-0.66 51.71 L-0.21 8.29 L3.83 2.98 L13.06 -1.59" stroke="none" stroke-width="0" fill="#f1c4cd"></path><path d="M12.1 0 M12.1 0 C16.28 1.44, 22.48 -2.04, 36.3 0 M12.1 0 C18.64 0.29, 23.48 0.14, 36.3 0 M36.3 0 C44.94 -1.56, 48.53 4.37, 48.41 12.1 M36.3 0 C45.09 -0.14, 50.49 1.94, 48.41 12.1 M48.41 12.1 C49.26 22.69, 48.73 36.2, 48.41 53.25 M48.41 12.1 C47.16 26.88, 47.65 39.96, 48.41 53.25 M48.41 53.25 C46.95 60.87, 44.11 67.19, 36.3 65.35 M48.41 53.25 C46.71 61.64, 43.32 65.67, 36.3 65.35 M36.3 65.35 C28.93 64.81, 20.04 65.37, 12.1 65.35 M36.3 65.35 C28.39 64.63, 21.72 65.68, 12.1 65.35 M12.1 65.35 C2.97 64.5, 1.22 63.02, 0 53.25 M12.1 65.35 C6.32 67.2, -1.69 59.99, 0 53.25 M0 53.25 C1.83 42.44, -0.01 31.55, 0 12.1 M0 53.25 C-0.71 40.21, -0.65 28.07, 0 12.1 M0 12.1 C1.88 4.78, 3.08 -1.89, 12.1 0 M0 12.1 C1.58 4.15, 6.3 1.9, 12.1 0" stroke="#fff" stroke-width="1" fill="none"></path></g><g stroke-linecap="round" transform="translate(318.4202898550715 22) rotate(0 81.4830917874396 77.04589371980671)"><path d="M38.72 0.75 L134.2 1.73 L148.97 4.73 L157.83 16.08 L159.84 22.3 L164.4 39.81 L161.86 125.75 L157.9 140.6 L147.81 149.87 L141.07 152.04 L122.71 153.11 L28.55 154.63 L13.07 149.44 L5.53 137.31 L0.53 130.92 L1.5 114.56 L-0.84 38.69 L2.73 23.15 L10.92 9.27 L13.35 6.22 L19.96 1.12 L38.27 -1.06" stroke="none" stroke-width="0" fill="#f1c4cd"></path><path d="M38.52 0 M38.52 0 C60.98 -0.77, 84.12 -1.41, 124.44 0 M38.52 0 C56.58 -0.1, 74.69 -0.37, 124.44 0 M124.44 0 C151.37 0.9, 162.52 12.23, 162.97 38.52 M124.44 0 C149.53 0.56, 163.01 12.84, 162.97 38.52 M162.97 38.52 C164.88 69.38, 164.02 95.58, 162.97 115.57 M162.97 38.52 C162.63 55.51, 162.61 72.24, 162.97 115.57 M162.97 115.57 C164.43 139.31, 150.13 154.27, 124.44 154.09 M162.97 115.57 C163.22 142.29, 150.08 155.24, 124.44 154.09 M124.44 154.09 C100.65 153.95, 80.61 155.14, 38.52 154.09 M124.44 154.09 C97.99 154.94, 72.69 154.07, 38.52 154.09 M38.52 154.09 C11.01 152.87, 0.75 141.68, 0 115.57 M38.52 154.09 C15.06 152.3, -1.49 140.31, 0 115.57 M0 115.57 C0.97 88.75, -1.11 59.57, 0 38.52 M0 115.57 C0.86 95.78, 0.19 76.41, 0 38.52 M0 38.52 C0.45 11.51, 12.43 -1.39, 38.52 0 M0 38.52 C0.63 12.76, 14.92 1.53, 38.52 0" stroke="#fff" stroke-width="1" fill="none"></path></g><g stroke-linecap="round" transform="translate(316 206.74879227053225) rotate(0 83.5 15.328502415458956)"><path d="M7.38 -1.45 L162.24 0.21 L168.37 2.83 L166.8 25.43 L162.97 30.38 L159.13 30.14 L4.44 29.7 L-0.77 26.43 L0.1 7.99 L2.31 0.84 L6.14 0.34" stroke="none" stroke-width="0" fill="#f1c4cd"></path><path d="M7.66 0 M7.66 0 C58.7 2.36, 109.28 2.25, 159.34 0 M7.66 0 C41.51 0.75, 77.24 0.45, 159.34 0 M159.34 0 C164.22 -1.81, 167.2 4.02, 167 7.66 M159.34 0 C162.62 -0.95, 166.37 1.76, 167 7.66 M167 7.66 C166.41 11.35, 168.2 18.02, 167 22.99 M167 7.66 C166.4 13.11, 167.12 19.36, 167 22.99 M167 22.99 C168.92 29.15, 165.79 30.8, 159.34 30.66 M167 22.99 C166.26 28.47, 163.93 32.77, 159.34 30.66 M159.34 30.66 C108.3 31.82, 57.44 32.45, 7.66 30.66 M159.34 30.66 C111.6 31.22, 65.23 30.38, 7.66 30.66 M7.66 30.66 C3.71 32.38, 0.55 29.95, 0 22.99 M7.66 30.66 C1.15 32.83, 0.31 29.28, 0 22.99 M0 22.99 C0.06 16.22, -0.18 9.94, 0 7.66 M0 22.99 C0.06 17.33, 0.64 13.82, 0 7.66 M0 7.66 C-1.63 0.74, 4.17 0.19, 7.66 0 M0 7.66 C-1.38 3.33, 2 -1.8, 7.66 0" stroke="#fff" stroke-width="1" fill="none"></path></g><g stroke-linecap="round" transform="translate(353.9178743961364 55.077294685990864) rotate(0 46.79227053140096 45.58212560386471)"><path d="M1.17 -1.5 L94.2 0.69 L91.69 91.18 L1.35 89.73" stroke="none" stroke-width="0" fill="#fff"></path><path d="M1.79 1.11 C30.76 -0.44, 58.16 -1.38, 94.48 0.03 M0.72 0.16 C25.64 0.09, 51.68 -1.25, 93.42 0.46 M92.22 1.36 C93.14 19.2, 92.18 40.17, 94.6 90.89 M92.9 -0.73 C94.16 19.31, 94.25 38.95, 94.57 90.55 M93.18 90.08 C57.59 92.2, 20.49 91.09, -0.53 92.11 M93.98 90.48 C65.64 90.81, 37.15 91.99, 0.78 91.11 M0.28 90.16 C-0.56 72.19, 1.33 50.95, -0.6 1.29 M-0.2 91.82 C-0.87 56, -0.2 21.18, 0.04 -0.66" stroke="#fff" stroke-width="1" fill="none"></path></g><g transform="translate(382 257) rotate(0 13.5 12.5)"><text x="0" y="18" font-family="Virgil, Segoe UI Emoji" font-size="20px" fill="#000" text-anchor="start" style="white-space: pre;" direction="ltr">PC</text></g><g stroke-linecap="round" transform="translate(980.5 24) rotate(0 86.5 107)"><path d="M42.94 -0.49 L140.51 0.54 L157.51 7.19 L166.32 18.75 L172.61 31.71 L173.24 41.71 L171.11 168.81 L171.91 189.96 L166.45 198.26 L155.99 206.49 L146.8 210.46 L129.08 213.11 L31.48 212.25 L15.02 208.23 L7.73 198.01 L-0.96 180.06 L0.25 171.89 L0.71 34.4 L5.45 18.17 L15.93 4.92 L32.23 -0.78 L44.43 0.61" stroke="none" stroke-width="0" fill="#83cbac"></path><path d="M43.25 0 M43.25 0 C73.3 -0.66, 98.76 -0.43, 129.75 0 M43.25 0 C64.04 0.39, 85.77 0.09, 129.75 0 M129.75 0 C158.59 -1.72, 171.24 14.95, 173 43.25 M129.75 0 C158.19 1.88, 171.44 14.1, 173 43.25 M173 43.25 C173.25 90.1, 173.32 135.62, 173 170.75 M173 43.25 C173 77.24, 174.46 109.61, 173 170.75 M173 170.75 C172.52 197.72, 158.25 212.52, 129.75 214 M173 170.75 C170.83 198.46, 157.15 216.29, 129.75 214 M129.75 214 C99.7 214.55, 66.41 211.72, 43.25 214 M129.75 214 C108.34 212.51, 86.35 213.57, 43.25 214 M43.25 214 C13.92 214.72, 0.6 199.54, 0 170.75 M43.25 214 C15.6 214.64, 1 201.21, 0 170.75 M0 170.75 C1.55 145.6, 1.48 118.12, 0 43.25 M0 170.75 C-0.08 135.5, 1.07 102.06, 0 43.25 M0 43.25 C-1.82 15.33, 12.56 -1.2, 43.25 0 M0 43.25 C-0.04 15.26, 15.09 0.51, 43.25 0" stroke="#fff" stroke-width="1" fill="none"></path></g><g stroke-linecap="round" transform="translate(1001.5 49) rotate(0 29 29)"><path d="M14.01 0.62 L46.76 1.63 L53.44 1.44 L57.82 5.95 L56.6 14.74 L56.23 45.01 L54.02 53.95 L52.63 55.5 L44.66 57.89 L9.67 55.9 L4.83 55.29 L1.15 50.71 L-1.07 41.62 L1.21 9.8 L6.57 0.4 L13.67 0.25" stroke="none" stroke-width="0" fill="#83cbac"></path><path d="M14.5 0 M14.5 0 C24.22 1.09, 34.25 -1.35, 43.5 0 M14.5 0 C22.22 0.07, 29.21 -0.08, 43.5 0 M43.5 0 C55.15 -0.58, 57.36 4.48, 58 14.5 M43.5 0 C51.91 0.82, 59.56 3.81, 58 14.5 M58 14.5 C58.02 24.32, 56.26 38.12, 58 43.5 M58 14.5 C58.1 23.37, 57.41 31.8, 58 43.5 M58 43.5 C59.3 53.32, 54.54 56.96, 43.5 58 M58 43.5 C57.13 54.53, 53.43 56.27, 43.5 58 M43.5 58 C32.68 56, 22.49 56.38, 14.5 58 M43.5 58 C38.53 58.45, 31.64 57.49, 14.5 58 M14.5 58 C6.18 58.84, -0.54 51.17, 0 43.5 M14.5 58 C3.79 57.58, -1.72 54.62, 0 43.5 M0 43.5 C-0.7 37.95, 0.4 30.92, 0 14.5 M0 43.5 C0.63 32.34, -0.72 23.41, 0 14.5 M0 14.5 C0.73 5.54, 5.49 -0.92, 14.5 0 M0 14.5 C-0.67 3.68, 3.06 -1.65, 14.5 0" stroke="#fff" stroke-width="1" fill="none"></path></g><g stroke-linecap="round" transform="translate(1075.5 48) rotate(0 29 29)"><path d="M15.12 -0.14 L48.3 1.33 L51.74 3.9 L56.25 4.26 L58.24 12.96 L55.89 44.96 L57.58 52.63 L51.87 57.12 L43.39 56.57 L9.23 56.94 L4.99 55.07 L0.41 51.26 L-1.88 43.81 L2.55 9.06 L4.02 1.21 L14.75 1.14" stroke="none" stroke-width="0" fill="#83cbac"></path><path d="M14.5 0 M14.5 0 C24.52 -0.87, 30.82 -0.8, 43.5 0 M14.5 0 C21.33 -0.21, 27.76 0.9, 43.5 0 M43.5 0 C52.58 -0.64, 57.64 3.74, 58 14.5 M43.5 0 C53.99 1.56, 56.98 7.09, 58 14.5 M58 14.5 C56.48 21.6, 58.73 31.89, 58 43.5 M58 14.5 C58.47 24.75, 58.69 37.29, 58 43.5 M58 43.5 C58.15 54.54, 52.13 57.24, 43.5 58 M58 43.5 C59.37 53.43, 51.43 59.3, 43.5 58 M43.5 58 C30.9 57.6, 20.55 56.05, 14.5 58 M43.5 58 C36.85 58.36, 28.61 58.96, 14.5 58 M14.5 58 C5.67 57.46, -1.99 52.26, 0 43.5 M14.5 58 C4.41 56.28, 1.45 51.24, 0 43.5 M0 43.5 C0.65 33.43, -0.11 23.2, 0 14.5 M0 43.5 C-1.1 33.35, 0.17 24.85, 0 14.5 M0 14.5 C0.7 5.49, 3.91 -0.58, 14.5 0 M0 14.5 C-1.15 3.06, 3.18 -1.64, 14.5 0" stroke="#fff" stroke-width="1" fill="none"></path></g><g stroke-linecap="round" transform="translate(1001.5 135) rotate(0 29 29)"><path d="M14.36 1.4 L48 -0.37 L54.19 2.33 L54.56 5.91 L56.46 12.61 L55.83 48.52 L56.25 51.87 L53.49 55.85 L42.07 56.13 L10.26 57.1 L4.77 54.33 L0.97 50.46 L0.31 45.15 L1.81 6.52 L4.83 2.28 L15.64 0.03" stroke="none" stroke-width="0" fill="#83cbac"></path><path d="M14.5 0 M14.5 0 C24.1 -1.35, 34.73 -1.64, 43.5 0 M14.5 0 C24.79 0.02, 36.31 -0.36, 43.5 0 M43.5 0 C52.53 -0.36, 56.91 5.55, 58 14.5 M43.5 0 C54.72 -1.02, 60.25 4.96, 58 14.5 M58 14.5 C56.24 25.68, 57.66 37.43, 58 43.5 M58 14.5 C57.14 22.12, 58.61 28.04, 58 43.5 M58 43.5 C59.37 52.13, 52.41 59.19, 43.5 58 M58 43.5 C58.26 51.43, 54.47 59.62, 43.5 58 M43.5 58 C35.86 56.25, 27 56.75, 14.5 58 M43.5 58 C36.69 57.85, 30.4 58.6, 14.5 58 M14.5 58 C4.29 56.01, -0.9 52.8, 0 43.5 M14.5 58 C3.11 59.45, -1.93 54.72, 0 43.5 M0 43.5 C0.67 34.14, 1.1 25.42, 0 14.5 M0 43.5 C-0.85 33.84, 0.16 23.94, 0 14.5 M0 14.5 C0.66 3.91, 4.25 -1, 14.5 0 M0 14.5 C-1.78 3.18, 3.2 1, 14.5 0" stroke="#fff" stroke-width="1" fill="none"></path></g><g stroke-linecap="round" transform="translate(1076.5 138) rotate(0 29 29)"><path d="M15.9 1.11 L46.3 2.09 L52.63 0.64 L56.21 4.12 L56.11 12.56 L59.39 47.19 L55.5 53.49 L52.22 54.53 L41.63 57.16 L10.43 56.88 L4.03 54.89 L0.16 52.64 L1.65 44.41 L-0.73 7.32 L5.91 3.18 L14.53 1.28" stroke="none" stroke-width="0" fill="#83cbac"></path><path d="M14.5 0 M14.5 0 C21.12 -0.75, 28.6 1.32, 43.5 0 M14.5 0 C24.18 1.02, 33.39 -0.28, 43.5 0 M43.5 0 C52.81 -1.09, 58.72 6.19, 58 14.5 M43.5 0 C52.14 2.25, 58.13 6.38, 58 14.5 M58 14.5 C58.29 22.86, 59.39 30.55, 58 43.5 M58 14.5 C59.08 23.45, 58.27 31.79, 58 43.5 M58 43.5 C56.96 52.41, 54.36 58.23, 43.5 58 M58 43.5 C56.27 54.47, 54.78 56.89, 43.5 58 M43.5 58 C34.02 56.07, 26.52 56.7, 14.5 58 M43.5 58 C31.58 58.7, 20.74 57.75, 14.5 58 M14.5 58 C2.84 57.1, -0.36 51.67, 0 43.5 M14.5 58 C6.28 56.07, 1.56 53.66, 0 43.5 M0 43.5 C-0.15 36.55, 0.45 28.42, 0 14.5 M0 43.5 C0.58 33.11, 0.63 22.32, 0 14.5 M0 14.5 C-0.92 4.25, 3.83 -1.54, 14.5 0 M0 14.5 C-1.65 3.2, 5.83 0.86, 14.5 0" stroke="#fff" stroke-width="1" fill="none"></path></g><g transform="translate(1036 260) rotate(0 30.5 14)"><text x="0" y="21" font-family="Virgil, Segoe UI Emoji" font-size="20px" fill="#000" text-anchor="start" style="white-space: pre;" direction="ltr">服务端</text></g><g stroke-linecap="round" transform="translate(998.4999999999995 664.2105263157891) rotate(0 74.50000000000034 109.78947368421109)"><path d="M38.95 -1.93 L121.96 -1.03 L128.15 0.33 L140.54 9.46 L144.98 19.84 L149.56 37.19 L149.76 190.59 L144.97 199.77 L140.8 208.63 L129.75 216.96 L110.19 218.99 L26.81 217.22 L22 215.51 L10.81 210.08 L3.91 198.75 L0.65 180.57 L0.16 30.32 L1.33 20.81 L8.79 10.99 L20.65 3.91 L37.89 1.73" stroke="none" stroke-width="0" fill="#5698c3"></path><path d="M37.25 0 M37.25 0 C60.38 0.51, 78.5 -1.06, 111.75 0 M37.25 0 C60.09 -1.28, 84.94 -1.07, 111.75 0 M111.75 0 C135.26 1.21, 147.05 10.69, 149 37.25 M111.75 0 C134.46 1.95, 150.98 14.26, 149 37.25 M149 37.25 C150.48 81.13, 150.71 125.69, 149 182.33 M149 37.25 C148.97 78.83, 150.38 120.98, 149 182.33 M149 182.33 C150.63 208.83, 137.82 217.61, 111.75 219.58 M149 182.33 C148.1 205.16, 135.15 220.46, 111.75 219.58 M111.75 219.58 C83.12 220.56, 55.98 221.22, 37.25 219.58 M111.75 219.58 C82.6 219.84, 52.95 218.65, 37.25 219.58 M37.25 219.58 C10.96 221.16, 0.83 205.28, 0 182.33 M37.25 219.58 C11.71 218.1, -1.73 207.59, 0 182.33 M0 182.33 C-2.03 131.97, -2.29 78.87, 0 37.25 M0 182.33 C0.21 135.43, 0.29 87.6, 0 37.25 M0 37.25 C-1.48 11.88, 12.71 -0.29, 37.25 0 M0 37.25 C-2.3 10.47, 12.14 -0.95, 37.25 0" stroke="#5698c3" stroke-width="1" fill="none"></path></g><g stroke-linecap="round" transform="translate(1030.6526315789474 693.2263157894727) rotate(0 41.95526315789493 69.40263157894776)"><path d="M-0.21 0.81 L84.99 1.47 L85.72 139.39 L-0.79 138.66" stroke="none" stroke-width="0" fill="#fff"></path><path d="M0.1 -1.99 C17.94 0.83, 32.49 -0.44, 84.47 -0.06 M0.57 0.56 C29.99 1.56, 61.47 -0.07, 83.61 -0.85 M85.4 -0.19 C86.22 29.41, 85.29 56.8, 83.49 140.61 M84.75 -0.15 C84.6 35.01, 84.68 69.27, 84.39 138.47 M82.6 139.1 C52.2 139.73, 19.39 136.73, 1.66 137.95 M83.05 137.88 C65.15 138.85, 45.5 138.01, 0.87 138.39 M0.77 138.63 C0.72 96.2, -1.17 51.09, 1.67 -1.52 M-0.98 138.41 C-2.03 85.21, -0.78 33.68, 0.26 0.23" stroke="#5698c3" stroke-width="1" fill="none"></path></g><g stroke-linecap="round" transform="translate(1058.8842105263147 845.3631578947352) rotate(0 12.547368421052738 12.155263157894751)"><path d="M18.64 0.69 C20.92 1.58, 22.95 4.48, 24 6.97 C25.04 9.46, 25.63 13.03, 24.91 15.61 C24.2 18.19, 21.9 21.09, 19.72 22.44 C17.54 23.79, 14.6 23.83, 11.83 23.7 C9.06 23.57, 5.16 23.24, 3.07 21.64 C0.98 20.04, -0.7 16.74, -0.7 14.11 C-0.71 11.48, 1.57 8.21, 3.06 5.86 C4.55 3.52, 5.68 0.8, 8.24 0.04 C10.8 -0.72, 16.32 0.64, 18.44 1.29 C20.55 1.94, 20.86 3.61, 20.93 3.92 M13 1.37 C15.52 0.85, 18.6 0.38, 20.54 1.86 C22.49 3.34, 24.3 7.78, 24.66 10.26 C25.03 12.74, 24.14 14.36, 22.76 16.74 C21.37 19.11, 18.56 23.59, 16.35 24.53 C14.14 25.47, 11.96 23.49, 9.5 22.37 C7.03 21.25, 3.31 19.71, 1.56 17.8 C-0.2 15.9, -1.58 13.17, -1.03 10.95 C-0.48 8.72, 2.8 6.38, 4.86 4.45 C6.91 2.51, 9.92 0.19, 11.28 -0.65 C12.64 -1.49, 12.89 -0.99, 13.03 -0.6" stroke="none" stroke-width="0" fill="#fff"></path><path d="M14.64 0.55 C17.15 1.18, 20.73 3.51, 22.43 5.37 C24.13 7.24, 24.85 9.19, 24.85 11.77 C24.85 14.35, 24.32 18.66, 22.41 20.87 C20.51 23.09, 16.22 24.92, 13.44 25.05 C10.65 25.18, 7.91 23.33, 5.72 21.66 C3.53 19.99, 1.25 17.28, 0.31 15.02 C-0.64 12.76, -0.88 10.23, 0.04 8.09 C0.96 5.94, 3.24 3.3, 5.82 2.15 C8.41 1, 13.83 1.35, 15.53 1.16 C17.24 0.98, 16.23 1.01, 16.05 1.04 M17.62 2.47 C20.08 3.63, 22.52 5.98, 23.77 8.37 C25.01 10.75, 25.82 14.35, 25.1 16.77 C24.38 19.2, 21.83 21.49, 19.44 22.93 C17.05 24.37, 13.38 26.03, 10.76 25.41 C8.15 24.79, 5.69 21.22, 3.74 19.2 C1.79 17.17, -0.72 15.4, -0.95 13.25 C-1.18 11.11, 0.75 8.64, 2.34 6.33 C3.93 4.02, 5.77 0.37, 8.59 -0.59 C11.41 -1.55, 17.87 0.09, 19.26 0.58 C20.65 1.07, 17.45 2.27, 16.91 2.34" stroke="#fff" stroke-width="1" fill="none"></path></g><g transform="translate(1047.4999999999995 907.7894736842109) rotate(0 20.5 14)"><text x="0" y="21" font-family="Virgil, Segoe UI Emoji" font-size="20px" fill="#000" text-anchor="start" style="white-space: pre;" direction="ltr">手机</text></g><g stroke-linecap="round"><g transform="translate(498.20410173313246 49.45194349886356) rotate(0 232.06357694702444 -0.10756647869590097)"><path d="M0.72 -0.64 C164.27 -1.25, 327.93 -0.71, 463.94 0.67 M0.19 0.1 C98.4 0.45, 197.77 0.22, 462.92 0.63" stroke="#000" stroke-width="1" fill="none"></path></g><g transform="translate(498.20410173313246 49.45194349886356) rotate(0 232.06357694702444 -0.10756647869590097)"><path d="M436.27 9.46 C444.39 7.54, 452.78 4.63, 464.15 0.76 M435.12 11.07 C440.14 8.8, 447.68 5.84, 461.93 0.65" stroke="#000" stroke-width="1" fill="none"></path></g><g transform="translate(498.20410173313246 49.45194349886356) rotate(0 232.06357694702444 -0.10756647869590097)"><path d="M436.29 -11.06 C444.5 -5.7, 452.87 -1.33, 464.15 0.76 M435.14 -9.45 C440.18 -7.35, 447.72 -5.95, 461.93 0.65" stroke="#000" stroke-width="1" fill="none"></path></g></g><g transform="translate(534 10) rotate(0 184 14)"><text x="0" y="21" font-family="Virgil, Segoe UI Emoji" font-size="20px" fill="#000" text-anchor="start" style="white-space: pre;" direction="ltr">1. 访问扫码登录页面，请求获取二维码ID</text></g><g stroke-linecap="round"><g transform="translate(1167 45) rotate(0 93.30401398567483 32.62129585444927)"><path d="M1.52 -0.62 C68.75 -1.45, 141.83 -0.67, 187.29 -2.07 M0.27 0.46 C56.71 0.62, 111.65 -1.41, 186.27 -3.78 M184.82 -5.22 C185.41 14.97, 185.09 36.25, 185.49 67.79 M185.94 -3.3 C184.7 17.38, 185.06 40.14, 185.45 68.17 M185.36 68.43 C120.49 69.38, 56.6 69.8, 1.86 69.94 M186.7 68.89 C147.14 68.95, 108.03 67.85, -0.68 70.47" stroke="#000" stroke-width="1" fill="none"></path></g><g transform="translate(1167 45) rotate(0 93.30401398567483 32.62129585444927)"><path d="M28.84 59.07 C14.96 63.08, 7.05 69.42, 0.96 72.29 M27.58 60.15 C19.22 63.02, 9.36 65.43, -0.06 70.57" stroke="#000" stroke-width="1" fill="none"></path></g><g transform="translate(1167 45) rotate(0 93.30401398567483 32.62129585444927)"><path d="M29.21 79.59 C15.36 75.82, 7.31 74.39, 0.96 72.29 M27.96 80.67 C19.5 77.31, 9.52 73.5, -0.06 70.57" stroke="#000" stroke-width="1" fill="none"></path></g></g><g transform="translate(1184 10) rotate(0 178.5 14)"><text x="0" y="21" font-family="Virgil, Segoe UI Emoji" font-size="20px" fill="#000" text-anchor="start" style="white-space: pre;" direction="ltr">2. 生成二维码ID，记录过期时间、状态</text></g><g transform="translate(1370 51) rotate(0 44.5 42)"><text x="0" y="21" font-family="Virgil, Segoe UI Emoji" font-size="20px" fill="#000" text-anchor="start" style="white-space: pre;" direction="ltr">a. 未扫码</text><text x="0" y="49" font-family="Virgil, Segoe UI Emoji" font-size="20px" fill="#000" text-anchor="start" style="white-space: pre;" direction="ltr">b. 已扫码</text><text x="0" y="77" font-family="Virgil, Segoe UI Emoji" font-size="20px" fill="#000" text-anchor="start" style="white-space: pre;" direction="ltr">c. 过期</text></g><g stroke-linecap="round"><g transform="translate(954 118) rotate(0 -227.33906613656706 -0.9086359683488467)"><path d="M-0.08 0.92 C-114.92 -1.75, -228.89 -3.26, -454.89 -2.38 M0.21 0.34 C-128.93 -1.61, -257.56 -2.77, -453.67 -2.74" stroke="#000" stroke-width="1" fill="none"></path></g><g transform="translate(954 118) rotate(0 -227.33906613656706 -0.9086359683488467)"><path d="M-425.63 -11.01 C-432.75 -9.6, -438.14 -8.6, -455.53 -1.45 M-425.02 -12.24 C-433.54 -10.14, -440.85 -7.88, -452.97 -2.2" stroke="#000" stroke-width="1" fill="none"></path></g><g transform="translate(954 118) rotate(0 -227.33906613656706 -0.9086359683488467)"><path d="M-425.67 9.51 C-432.91 5.73, -438.3 1.55, -455.53 -1.45 M-425.06 8.28 C-433.36 4.56, -440.67 0.99, -452.97 -2.2" stroke="#000" stroke-width="1" fill="none"></path></g></g><g transform="translate(632 83) rotate(0 78.5 14)"><text x="0" y="21" font-family="Virgil, Segoe UI Emoji" font-size="20px" fill="#000" text-anchor="start" style="white-space: pre;" direction="ltr">3. 返回二维码ID</text></g><g stroke-linecap="round"><g transform="translate(298 114) rotate(0 -54.48165439758449 315.4524479056616)"><path d="M1.15 0.26 C-26.58 -0.93, -53.23 0.41, -103.95 0.45 M-0.92 0.22 C-31.4 2.29, -62.42 1.28, -103.56 1.97 M-103.46 1.93 C-103.62 241.79, -105.89 480.29, -110.11 628.46 M-104.34 2.02 C-105.1 232.86, -107.24 462.68, -109.79 629.02 M-108.65 630.39 C-76.53 630.65, -43.62 631.45, -3.05 631 M-109.96 629.06 C-85.63 630.27, -62.81 630.14, -5.35 629.93" stroke="#000" stroke-width="1" fill="none"></path></g><g transform="translate(298 114) rotate(0 -54.48165439758449 315.4524479056616)"><path d="M-32.35 640.54 C-26.59 636.91, -19.69 635.12, -5.3 628.38 M-34.42 640.49 C-24.81 637.73, -15.83 632.99, -4.91 629.9" stroke="#000" stroke-width="1" fill="none"></path></g><g transform="translate(298 114) rotate(0 -54.48165439758449 315.4524479056616)"><path d="M-32.42 620.01 C-26.55 621.6, -19.64 625.02, -5.3 628.38 M-34.49 619.97 C-25.02 623.42, -16.03 624.89, -4.91 629.9" stroke="#000" stroke-width="1" fill="none"></path></g></g><g stroke-linecap="round" transform="translate(323 695) rotate(0 51.5 47.5)"><path d="M0 0 C0 0, 0 0, 0 0 M0 0 C0 0, 0 0, 0 0 M-0.19 6.61 C1.49 5.06, 2.24 3.4, 5.5 0.54 M-0.23 6.1 C1.63 4.25, 3.35 2.52, 4.84 0.57 M0.68 11.03 C4.29 7.38, 5.54 5.82, 10.93 1.22 M0.24 12.77 C2.25 8.35, 5.51 5.63, 9.94 0.01 M1.12 18.3 C4.63 12.8, 12.79 4.79, 16.48 0.52 M0.34 18.86 C4.02 14.1, 7.62 8.68, 14.97 0.68 M0.03 25.63 C7.28 13.68, 14.8 6.9, 21.63 1.07 M0.77 24.58 C5.06 17.32, 12.27 11.39, 20.33 -0.98 M-0.73 29.49 C6.95 25.18, 11.75 18.12, 25.44 -1.46 M0.94 31.45 C9.73 19.49, 17.38 8.93, 25.33 0.09 M-1.37 35.84 C8.7 24.94, 17.17 17.44, 33.23 -1.82 M-0.49 37.17 C12.74 22.69, 25.62 7.42, 31.09 0.31 M-0.86 42.1 C8.66 31.75, 17.62 20.06, 38.48 -0.84 M-0.62 42.62 C9.12 32.99, 16.12 24.36, 37.08 1.11 M0.14 49.32 C17.51 27.5, 32.48 11.04, 41.12 0.44 M-0.28 49.64 C12.32 35.73, 25.27 20.44, 43.33 -0.65 M0.91 52.85 C8.32 43.46, 19.49 31.92, 49.36 0.77 M-0.5 54.29 C14.73 37.09, 32.19 17.67, 47.14 0.95 M-1.46 62.32 C18.43 38.25, 39.3 16.53, 54 0.54 M0.23 60.39 C20.96 37.65, 42.19 13.46, 53.34 -0.67 M1.51 68.29 C20.19 44.41, 37.67 21.5, 58.24 1.83 M-0.48 66.83 C21.41 43.21, 44.92 17.36, 58.97 1.02 M-1.13 74.44 C15.47 53.25, 30.07 36.97, 63.98 -1.76 M1.06 73.28 C18.82 50.89, 35.69 30.93, 63.5 0.13 M-0.76 79.8 C24.01 51.16, 50.7 20.26, 69.68 -1.09 M-0.34 79.06 C14.62 61.81, 31 44.54, 69.58 -0.07 M-1.44 83.37 C15.2 66.84, 31.97 48.77, 72.59 -1.6 M-0.22 85.35 C27.05 53.71, 55.51 21.25, 75.21 -0.66 M-0.16 90.13 C17.37 71.71, 31.34 54.58, 78.66 0.67 M-0.74 91.76 C19.09 72.1, 35.52 50.98, 78.52 0.5 M2.13 98.15 C26.09 67.86, 49.89 39.46, 84.76 0.98 M1.18 97.1 C31.69 61.56, 61.57 26.91, 85.93 -0.75 M7.66 96.81 C35.47 59.87, 68.31 22.5, 88.56 1.86 M6.88 96.12 C28.99 68.55, 53.25 43.46, 90.9 0.74 M11.01 96.07 C35.77 71, 59.12 46.2, 94.8 -0.97 M12.09 96.41 C42.67 60.53, 74.91 24.06, 96.15 -0.14 M19.29 97.04 C48.16 60.31, 81.16 20.63, 101.16 1.33 M16.96 95.57 C49.69 61.77, 78.91 25.47, 100.37 0.88 M22.02 96.45 C47.35 66.39, 74.21 37.45, 103.16 2.2 M22.89 95.27 C46.83 70.75, 68.94 43.77, 105.12 1.38 M29.41 96.61 C56.61 64.22, 85.74 31.62, 104.09 7.58 M28.68 95.78 C48.18 73.8, 66.79 51.12, 105.57 7.88 M34.22 97.34 C57.28 68.21, 80.76 39.25, 104.45 13.55 M33.34 95.54 C56.92 67.38, 82.2 38.5, 103.9 14 M38.04 93.88 C55.35 79.09, 70.54 57.46, 104.58 18.61 M38.2 95.6 C61.56 67.84, 85.3 41.26, 104.86 20.36 M45.1 96.89 C58.72 78.34, 69.78 64.33, 103.71 25.33 M43.74 95.28 C68.03 70.42, 90.3 43.99, 104.63 26.78 M48.61 94.32 C72.14 72.63, 90.32 50.86, 103.58 33.02 M49.73 96.57 C64.17 78.56, 78.48 61.22, 105.47 32.61 M52.53 95.38 C72.8 73.44, 93.25 50.13, 104.25 39.71 M53.96 95.76 C73.61 74.2, 93.51 51.57, 105.35 37.26 M57.94 96.47 C71.12 81.57, 80.14 69.86, 103.82 42.79 M60.5 95.92 C70.46 83.49, 82.73 70.04, 104.58 44.43 M64.79 97.14 C79.38 76.96, 98.42 60.51, 105.43 49.22 M64.39 96.45 C78.28 82.17, 90.1 67.44, 104.78 50.95 M70.28 93.98 C78.71 87.88, 87.03 76.47, 106.44 55.74 M69.83 95.6 C82.71 82.4, 94.2 67.84, 104.89 56.54 M74.59 96.61 C80.62 91, 88.56 83.66, 104.02 63.48 M74.97 96.03 C83.78 85.13, 93.16 76.05, 104.71 63.07 M78.61 98.33 C87.5 87.09, 96.56 77.86, 105.01 70.01 M81.4 96.03 C87.07 90.39, 91.9 82.58, 105.67 68.13 M85.01 96.33 C89.58 91.79, 95.99 86.04, 103.55 75.94 M86.2 95.36 C89.86 92.04, 94.24 87.41, 104.32 74.29 M89.3 97.86 C95.26 88.66, 102.17 83.9, 106.16 81.12 M90.92 96.04 C95.04 93, 98.22 89.6, 104.41 80.86 M96.03 96.56 C98.43 93.75, 101.15 90.98, 103.58 86.92 M96.37 96.33 C99.87 91.86, 102.45 88.42, 104.12 86.82 M101.33 96.34 C102.6 96, 103.45 95.03, 105.48 92.62 M101.58 96.39 C102.43 95.58, 103.57 94.29, 105.03 92.59" stroke="#000" stroke-width="0.5" fill="none"></path><path d="M1.54 1.3 C39.29 0.47, 82.14 -0.4, 103.39 -1.09 M-0.79 0.02 C36.95 0.77, 73.19 1.18, 103.56 0.35 M101.87 -1.66 C100.87 34.4, 102.98 67.36, 101.93 96.28 M103.57 -0.31 C103.53 27.16, 103.65 54.38, 103.55 94.73 M102.78 96.79 C69.96 96.93, 33.22 96.58, 1.18 93.31 M103.05 95.61 C77.87 95.86, 51.77 94.46, 0.03 94.4 M0.71 95.5 C0.64 62.05, 0.84 33.29, 1.47 -1.15 M-1 94.94 C-0.89 62.63, 0.71 30.05, -0.87 0.52" stroke="#000" stroke-width="1" fill="none"></path></g><g stroke-linecap="round" transform="translate(325 694) rotate(0 14 16)"><path d="M-1.65 0.1 L28.95 0.85 L27.66 32.92 L-1.48 31.69" stroke="none" stroke-width="0" fill="#fff"></path><path d="M-0.12 -1.94 C8.63 1.53, 16.85 -1.45, 29.05 0 M0.62 0.67 C10.31 -1.21, 20.41 0.48, 27.55 -0.01 M26.59 1.52 C28.48 10.75, 27.77 22.82, 29.02 31.03 M28.27 0.49 C28.32 7.38, 28.15 15.84, 28.23 32.28 M26.5 32.93 C18.25 32.9, 10.37 31.31, 1.07 31.57 M27.37 32.77 C18.84 31.82, 11.68 32.29, 0.79 31.74 M1.83 30.17 C-0.92 20.68, 0.55 9.33, 0.1 1.67 M-0.07 31.37 C0.49 22.59, -0.04 12.75, 0.1 -0.35" stroke="#000" stroke-width="1" fill="none"></path></g><g stroke-linecap="round" transform="translate(397 696) rotate(0 14 16)"><path d="M-1.86 -1.81 L26.68 1.57 L27.38 31.26 L-0.99 33.05" stroke="none" stroke-width="0" fill="#fff"></path><path d="M-1.25 0.5 C9.08 0.67, 18.79 0.62, 27.56 0.13 M0.25 0.61 C10.25 -0.83, 20.83 -0.4, 28.44 0.29 M27.92 -1.96 C28.86 7.2, 29.71 15.17, 27.45 32.5 M28.27 -0.36 C28.38 11.12, 27.34 19.9, 27.57 32.22 M28.15 33.32 C23.27 32.1, 14.79 33.64, 0.85 32.35 M27.17 32.05 C18.86 32.33, 8.61 32.36, -0.74 31.85 M1.91 32.47 C-0.35 26.02, -0.61 15.5, -0.72 0.68 M0 31.16 C0.32 22.31, -1.01 11.14, 0.77 0.07" stroke="#000" stroke-width="1" fill="none"></path></g><g stroke-linecap="round" transform="translate(326 755) rotate(0 14 16)"><path d="M0.65 1.34 L26.28 1.85 L29.29 33.53 L-0.47 32.58" stroke="none" stroke-width="0" fill="#fff"></path><path d="M-0.52 0.54 C8.37 0.04, 20.02 -2.05, 26.96 -0.86 M0.83 0.08 C9.67 0.61, 17.94 -0.64, 28.7 0.43 M27.3 -1.65 C28.24 11.11, 28.99 19.98, 28.92 30.52 M28.69 0.96 C28.03 8.99, 28.57 17.96, 27.28 31.64 M27.35 32.01 C16.96 33.17, 10.29 30.51, -0.95 33.53 M27.34 32.79 C19.11 31.38, 10.34 32.27, 0.84 31.85 M0.85 32.43 C-0.32 21.59, 2.06 9.05, -1.44 -1.05 M-0.27 31.23 C0.1 24.85, -0.23 18.77, -0.96 -0.19" stroke="#000" stroke-width="1" fill="none"></path></g><g transform="translate(344 811) rotate(0 30.5 14)"><text x="0" y="21" font-family="Virgil, Segoe UI Emoji" font-size="20px" fill="#000" text-anchor="start" style="white-space: pre;" direction="ltr">二维码</text></g><g transform="translate(10 411) rotate(0 77.5 28)"><text x="0" y="21" font-family="Virgil, Segoe UI Emoji" font-size="20px" fill="#000" text-anchor="start" style="white-space: pre;" direction="ltr">4. 根据二维码ID</text><text x="0" y="49" font-family="Virgil, Segoe UI Emoji" font-size="20px" fill="#000" text-anchor="start" style="white-space: pre;" direction="ltr">生成二维码</text></g><g stroke-linecap="round"><g transform="translate(506 190) rotate(0 222.51080027057475 -0.06521098927936464)"><path d="M0.67 -0.12 C134.03 1.98, 268.39 0.82, 444.35 -1.12" stroke="#f68c60" stroke-width="1.5" fill="none" stroke-dasharray="8 9"></path></g><g transform="translate(506 190) rotate(0 222.51080027057475 -0.06521098927936464)"><path d="M417.62 9.18 C423.8 8.4, 432.05 4.09, 445.06 0.66" stroke="#f68c60" stroke-width="1.5" fill="none"></path></g><g transform="translate(506 190) rotate(0 222.51080027057475 -0.06521098927936464)"><path d="M417.42 -11.34 C423.78 -5.9, 432.1 -4, 445.06 0.66" stroke="#f68c60" stroke-width="1.5" fill="none"></path></g></g><g transform="translate(558 151) rotate(0 177 14)"><text x="0" y="21" font-family="Virgil, Segoe UI Emoji" font-size="20px" fill="#f68c60" text-anchor="start" style="white-space: pre;" direction="ltr">轮询、长轮询、ws 之一获取二维码状态</text></g><g stroke-linecap="round"><g transform="translate(973 723) rotate(0 -263.9613537050784 0.8238991053893869)"><path d="M0.27 0.38 C-133.16 1.58, -266.8 2.34, -528.2 0.41 M0.11 0.07 C-205.21 0.65, -410.89 1.58, -527.81 1.35" stroke="#000" stroke-width="1" fill="none"></path></g><g transform="translate(973 723) rotate(0 -263.9613537050784 0.8238991053893869)"><path d="M-498.94 -7.98 C-505.79 -7.92, -513.25 -4.07, -528.3 -0.12 M-499.36 -8.76 C-510.43 -5.31, -522.36 0.03, -527.34 2.23" stroke="#000" stroke-width="1" fill="none"></path></g><g transform="translate(973 723) rotate(0 -263.9613537050784 0.8238991053893869)"><path d="M-498.93 12.54 C-505.95 7.41, -513.4 6.07, -528.3 -0.12 M-499.35 11.76 C-510.37 7.23, -522.31 4.59, -527.34 2.23" stroke="#000" stroke-width="1" fill="none"></path></g></g><g transform="translate(602 692) rotate(0 84.5 14)"><text x="0" y="21" font-family="Virgil, Segoe UI Emoji" font-size="20px" fill="#000" text-anchor="start" style="white-space: pre;" direction="ltr">5. 手机扫描二维码</text></g><g stroke-linecap="round"><g transform="translate(450 792) rotate(0 260.5098129754886 1.972447743453131)"><path d="M0.08 -0.35 C141.41 1.56, 283.03 1.76, 521.41 3.83 M-0.4 0.34 C121.24 -0.27, 242.21 0.75, 521.08 4.29" stroke="#000" stroke-width="1" fill="none"></path></g><g transform="translate(450 792) rotate(0 260.5098129754886 1.972447743453131)"><path d="M492.96 13.35 C500.39 11.95, 508.61 7.05, 522.12 3.86 M491.79 15.06 C499.65 11.68, 505.74 9.58, 521.3 5.02" stroke="#000" stroke-width="1" fill="none"></path></g><g transform="translate(450 792) rotate(0 260.5098129754886 1.972447743453131)"><path d="M493.21 -7.17 C500.67 -3.01, 508.82 -2.33, 522.12 3.86 M492.03 -5.46 C499.65 -4.07, 505.68 -1.4, 521.3 5.02" stroke="#000" stroke-width="1" fill="none"></path></g></g><g transform="translate(612 755) rotate(0 64 14)"><text x="0" y="21" font-family="Virgil, Segoe UI Emoji" font-size="20px" fill="#000" text-anchor="start" style="white-space: pre;" direction="ltr">获取二维码ID</text></g><g stroke-linecap="round"><g transform="translate(1067.166922000052 646.6984806429871) rotate(0 0.39673137148872684 -173.53483985480966)"><path d="M1.16 0.69 C-0.47 -80.09, -0.39 -161.26, 0.71 -347.76 M0.63 0.05 C0.55 -89.9, 0.16 -180.62, -0.37 -346.51" stroke="#000" stroke-width="1" fill="none"></path></g><g transform="translate(1067.166922000052 646.6984806429871) rotate(0 0.39673137148872684 -173.53483985480966)"><path d="M11.76 -317.29 C7.41 -323.44, 5.16 -330.07, 0.97 -348.13 M10.95 -318.27 C7.2 -324.82, 3.96 -332.44, -0.67 -346.21" stroke="#000" stroke-width="1" fill="none"></path></g><g transform="translate(1067.166922000052 646.6984806429871) rotate(0 0.39673137148872684 -173.53483985480966)"><path d="M-8.77 -317.22 C-8.31 -323.2, -5.75 -329.85, 0.97 -348.13 M-9.57 -318.2 C-7.97 -324.62, -5.84 -332.26, -0.67 -346.21" stroke="#000" stroke-width="1" fill="none"></path></g></g><g transform="translate(1093 464) rotate(0 100.5 28)"><text x="0" y="21" font-family="Virgil, Segoe UI Emoji" font-size="20px" fill="#000" text-anchor="start" style="white-space: pre;" direction="ltr">6. 发送手机端token、</text><text x="0" y="49" font-family="Virgil, Segoe UI Emoji" font-size="20px" fill="#000" text-anchor="start" style="white-space: pre;" direction="ltr">二维码ID</text></g><g stroke-linecap="round"><g transform="translate(1173 187) rotate(0 90.43074392387643 36.96779399881251)"><path d="M-0.16 0.22 C69.34 -2.24, 135.56 -1.81, 179.38 0.94 M0.04 -0.58 C55.04 -2.64, 110.86 -1.96, 180.58 0.59 M179.9 -1.67 C181.86 18.44, 181.15 34, 184.65 73.61 M180.79 -0.91 C182.16 20.87, 182.98 41.92, 183.81 74.72 M181.48 75.73 C109.05 75.36, 37.1 73.81, -1.86 72.96 M183.85 75.51 C115.22 72.2, 47.14 71.83, -3.79 73.27" stroke="#000" stroke-width="1" fill="none"></path></g><g transform="translate(1173 187) rotate(0 90.43074392387643 36.96779399881251)"><path d="M24.09 62.79 C15.18 65.76, 3.06 70.2, -5.41 74.2 M24.28 61.99 C15.79 65.16, 8.14 69.08, -4.21 73.85" stroke="#000" stroke-width="1" fill="none"></path></g><g transform="translate(1173 187) rotate(0 90.43074392387643 36.96779399881251)"><path d="M24.4 83.31 C15.48 78.59, 3.24 75.34, -5.41 74.2 M24.6 82.51 C16.07 79.45, 8.32 77.14, -4.21 73.85" stroke="#000" stroke-width="1" fill="none"></path></g></g><g transform="translate(1202 276) rotate(0 113.5 56)"><text x="0" y="21" font-family="Virgil, Segoe UI Emoji" font-size="20px" fill="#000" text-anchor="start" style="white-space: pre;" direction="ltr">7. 效验手机端token</text><text x="0" y="49" font-family="Virgil, Segoe UI Emoji" font-size="20px" fill="#000" text-anchor="start" style="white-space: pre;" direction="ltr">获取 token 的用户信息</text><text x="0" y="77" font-family="Virgil, Segoe UI Emoji" font-size="20px" fill="#000" text-anchor="start" style="white-space: pre;" direction="ltr">根据用户信息和二维码ID</text><text x="0" y="105" font-family="Virgil, Segoe UI Emoji" font-size="20px" fill="#000" text-anchor="start" style="white-space: pre;" direction="ltr">生成PC端token</text></g><g stroke-linecap="round"><g transform="translate(505 273) rotate(0 222.433089948658 1.4816001314496816)"><path d="M-0.03 -0.81 C117.82 1.61, 236.25 2.04, 445.05 3.05 M-0.35 -0.07 C167.67 -0.2, 336.11 0.75, 445.22 3.77" stroke="#f68c60" stroke-width="1" fill="none"></path></g><g transform="translate(505 273) rotate(0 222.433089948658 1.4816001314496816)"><path d="M416.78 11.83 C422.94 10.91, 430.32 7.02, 445.33 1.83 M416.12 13.34 C426.72 10.25, 438.18 5.43, 445.66 3.32" stroke="#f68c60" stroke-width="1" fill="none"></path></g><g transform="translate(505 273) rotate(0 222.433089948658 1.4816001314496816)"><path d="M417.17 -8.68 C423.3 -4.14, 430.57 -2.57, 445.33 1.83 M416.52 -7.17 C426.96 -2.51, 438.26 0.42, 445.66 3.32" stroke="#f68c60" stroke-width="1" fill="none"></path></g></g><g transform="translate(590 240) rotate(0 100 14)"><text x="0" y="21" font-family="Virgil, Segoe UI Emoji" font-size="20px" fill="#000" text-anchor="start" style="white-space: pre;" direction="ltr">8. 获取 PC 端 token</text></g><g stroke-linecap="round"><g transform="translate(463 304) rotate(0 -67.98594024218619 46.51306977809554)"><path d="M0.62 1.47 C-1.47 30.82, -0.04 59.15, -0.23 100.52 M-0.58 0.64 C0.62 35.27, -0.99 70.92, -1.14 100.09 M-0.61 99.31 C-42.51 98.49, -81.51 97.6, -136.11 99.62 M-1.19 100.41 C-43.21 102.52, -86.06 101.01, -135.42 99.99 M-136.59 99.89 C-132.74 71.91, -132.97 40.63, -134.36 -8.44 M-135.65 98.89 C-135.53 73.33, -135.84 46.88, -135.07 -6.09" stroke="#000" stroke-width="1" fill="none"></path></g><g transform="translate(463 304) rotate(0 -67.98594024218619 46.51306977809554)"><path d="M-124.49 23.68 C-127.97 15.41, -128.85 6.11, -133.3 -6.56 M-125.69 22.85 C-128.03 12.15, -132.43 2.57, -134.21 -6.99" stroke="#000" stroke-width="1" fill="none"></path></g><g transform="translate(463 304) rotate(0 -67.98594024218619 46.51306977809554)"><path d="M-145.01 23.46 C-142.52 15.23, -137.43 6.01, -133.3 -6.56 M-146.21 22.64 C-141.37 12.21, -138.59 2.7, -134.21 -6.99" stroke="#000" stroke-width="1" fill="none"></path></g></g><g transform="translate(263 422) rotate(0 130.5 14)"><text x="0" y="21" font-family="Virgil, Segoe UI Emoji" font-size="20px" fill="#000" text-anchor="start" style="white-space: pre;" direction="ltr">9. 获取 token 中的用户信息</text></g></svg>