<svg version="1.1" xmlns="http://www.w3.org/2000/svg" viewBox="0 0 722.2840432437399 619.5281766505062" width="722.2840432437399" height="619.5281766505062">
  <!-- svg-source:excalidraw -->
  
  <defs>
    <style>
      @font-face {
        font-family: "Virgil";
        src: url("https://excalidraw.com/Virgil.woff2");
      }
      @font-face {
        font-family: "Cascadia";
        src: url("https://excalidraw.com/Cascadia.woff2");
      }
    </style>
  </defs>
  <rect x="0" y="0" width="722.2840432437399" height="619.5281766505062" fill="#ffffff"></rect><g stroke-linecap="round" transform="translate(44.28404324374014 31.528176650506225) rotate(0 42 40.5)"><path d="M6.97 17.98 C6.97 17.98, 6.97 17.98, 6.97 17.98 M6.97 17.98 C6.97 17.98, 6.97 17.98, 6.97 17.98 M3.49 25.81 C10.26 22.39, 16.06 15.52, 23.47 2.31 M4.46 27.47 C10.03 21.26, 14.29 15.36, 25.09 3.65 M3.03 35.35 C9.66 24.98, 16.27 15.9, 29.23 5.58 M1.78 36.8 C8.3 28.64, 14.3 21.28, 28 5.41 M0.98 40.51 C14.87 27.55, 26.89 13.48, 36 2.1 M2.21 40.01 C14.27 27.67, 26.53 14.09, 34.39 4.7 M3.96 45.27 C14.12 34.7, 24.63 18.78, 41.16 1.58 M3.23 46.77 C13.68 34.97, 22.93 24.44, 41.62 3.3 M4.97 51.84 C19.69 32.68, 32.91 17.14, 48.34 1.79 M5.04 51.35 C18.26 37.77, 29.58 23.19, 49.78 0.23 M6.41 56.2 C18.58 44.42, 30.71 30.73, 53.89 2.55 M6.21 56.59 C21.6 37.07, 37.56 19.19, 52.91 2.1 M5.55 60.85 C21.44 42.28, 39.64 26.24, 56.09 3.15 M5.89 62.81 C20.72 44.08, 34.92 29.12, 56.8 4.85 M8.71 65.56 C27.98 45.6, 43.1 22.79, 61.59 4.37 M8.63 64.97 C21.15 49.78, 35.04 34.09, 60.23 6.09 M12.31 66.34 C25.88 48.74, 41.43 33.65, 64.92 6.34 M12.15 67.94 C22.68 54.81, 34.45 39.85, 63.05 7.19 M12.88 69.81 C28.04 53.96, 45.39 35.56, 67.33 7.64 M14.04 69.15 C30.22 51.9, 47.08 33.82, 67.8 8.81 M18.71 71.99 C33 56.16, 46.18 39.13, 71 13.18 M18.07 71.73 C35.44 51.59, 53.09 31.06, 70.57 13 M20.69 73.52 C33.26 63.73, 42.55 52.17, 71.28 15.83 M21.72 76.03 C31.97 62.14, 44.27 47.19, 71.91 15.2 M23.17 78.73 C40.48 57.66, 57.94 37.59, 75.52 19.53 M23.79 76.99 C36.14 63.2, 50.87 47.35, 74.39 19.62 M28.85 76.54 C42.65 59.84, 57.23 44.85, 76.62 23.95 M29.87 77.33 C42.22 63.1, 55.13 45.98, 76.83 22.26 M35.06 79.08 C46.11 62.77, 62.53 44.55, 80.62 26.81 M33.41 78.57 C42.24 68.41, 52.03 56.82, 80.51 25.49 M36.5 79.81 C49.78 66.18, 61.97 53.43, 81.52 27.07 M37.07 79.36 C54.52 60.03, 72.49 40.48, 82.77 29.6 M40.21 81.13 C58.89 64.06, 75.05 45.47, 84.18 31.99 M42.44 81.49 C56.8 63.88, 71.7 46.4, 84.57 32.13 M45.75 80.05 C55.42 70.59, 65.17 61.61, 84.57 39.35 M46.84 81.77 C60.71 65.85, 73.15 49.82, 83.37 38.43 M53.36 77.74 C63.45 70.08, 72.49 59.07, 85.17 42.67 M54.25 78.03 C63.08 67.63, 73.16 57.11, 85.31 45.21 M62.98 75.77 C69.42 69.51, 74.68 64.49, 83.34 50.49 M62.96 75.53 C69.75 67.2, 75.36 60.48, 84.18 50.06 M4.95 61.37 C4.95 61.37, 4.95 61.37, 4.95 61.37 M4.95 61.37 C4.95 61.37, 4.95 61.37, 4.95 61.37 M23.46 71.91 C20.4 67.37, 10.97 63.23, 3.66 56.19 M24.03 73.55 C16.08 66.35, 8.43 60.24, 3.99 54.3 M33.32 73.34 C27.08 70.2, 20.88 62.95, 1.63 48.64 M33.4 75.11 C27.78 69.89, 20.25 63.6, 1.89 48.76 M40.43 77.22 C26.81 66.01, 12.73 50.31, 0.84 40.5 M40.63 78.09 C31.77 68.25, 19.94 58.2, 2.05 41.85 M48.89 78.15 C32.05 63.6, 16.6 47.49, 2.76 36.18 M49.62 78.99 C38.04 68.33, 25.81 58.42, 2.76 37.29 M54.44 75.73 C39.05 65.63, 27.29 54.26, 5.07 32.58 M52.59 76.25 C37.75 63.1, 21.41 50.66, 3.44 33.07 M55.05 72.94 C45.35 67.13, 36.37 55.66, 3.31 28.2 M57.51 74.98 C45.48 64.63, 33.53 53.57, 5.01 28.86 M62.31 72.72 C48.77 60.05, 32.53 47.23, 7.49 24.21 M62.01 73.85 C41.27 57.31, 22.01 38.91, 5.18 25.44 M63.26 71.72 C50.17 56.43, 29.56 41.64, 9 19.61 M66.02 71.17 C48.8 56.97, 31.8 42.13, 7.99 20.12 M72.06 72.07 C55.83 57.39, 38.5 41.83, 7.43 18.38 M70.11 70.91 C51.51 54.41, 33.23 37.53, 7.42 16.22 M72.35 68.59 C48.61 47.11, 25.37 26.84, 11.78 14.55 M72.46 66.3 C56.91 51.89, 40.4 38.87, 11.2 14.46 M76.36 63.12 C57.79 50.28, 39.98 34.05, 15.71 12.73 M74.77 64.39 C51.78 43.96, 28.75 24.89, 14.8 11.81 M75.34 59.68 C55.55 40.8, 33.78 23.53, 18.27 7.83 M77.27 59.63 C60.58 45.91, 45.36 32.28, 16.82 9.5 M80.1 57.68 C57.72 36.73, 35.21 16.29, 20.01 6.25 M80.05 57.29 C65.05 45.6, 51.84 32.09, 21.77 6.53 M82.22 52.99 C63.44 37.12, 39.56 20.82, 24.79 3.62 M80.84 54.88 C62.92 37.65, 43.41 19.43, 24.65 3.72 M83.1 51.01 C66.15 32.98, 49.61 20.02, 25.23 2.6 M84.88 51.55 C67.7 36.86, 51.85 21.86, 26.98 1.86 M86.12 43.92 C66.91 30.31, 47.87 16.13, 30.82 0.66 M83.68 45.64 C68.61 31.42, 51.98 18.37, 31.68 -0.26 M84.56 41.67 C74.92 31.9, 62.69 21.45, 39.51 -0.71 M83.6 39.97 C66.7 25.33, 50.44 12.11, 37.28 -0.3 M83.14 34.51 C70.45 20.79, 54.35 9.3, 41.58 -0.95 M84.2 34.71 C76.04 27.34, 67.02 21.31, 42.55 -0.98 M84.96 28.12 C74.63 21.71, 66.66 13.58, 51.34 -0.69 M83.74 28.79 C76.65 22.57, 69.29 15.74, 48.83 -0.06 M75.54 16.79 C71.28 13.97, 69.74 11.56, 65.24 8.1 M75.83 17.19 C73.88 15.23, 70.58 12.42, 66.3 7.92" stroke="#f1939c" stroke-width="0.5" fill="none"></path><path d="M26.34 2.36 C32.67 -1.12, 41.52 -1.61, 48.75 -0.14 C55.99 1.33, 64.17 6.07, 69.76 11.19 C75.36 16.32, 80.19 23.62, 82.31 30.61 C84.44 37.59, 84.87 46.2, 82.53 53.1 C80.19 60.01, 74.3 67.36, 68.29 72.05 C62.27 76.73, 54.02 80.5, 46.44 81.21 C38.86 81.93, 29.66 79.58, 22.81 76.33 C15.96 73.07, 8.96 67.83, 5.31 61.69 C1.66 55.55, 0.59 46.78, 0.89 39.46 C1.19 32.15, 2.03 24.35, 7.1 17.83 C12.18 11.3, 26.18 3.25, 31.33 0.31 C36.48 -2.63, 37.84 -0.48, 38.02 0.21 M36.14 0.41 C43.59 -1.24, 53.48 0.93, 60.4 3.81 C67.33 6.68, 73.8 11.45, 77.7 17.66 C81.61 23.87, 84 33.86, 83.84 41.08 C83.69 48.29, 80.78 54.95, 76.78 60.95 C72.78 66.96, 66.37 74.01, 59.84 77.11 C53.3 80.2, 45.3 80.23, 37.59 79.5 C29.88 78.76, 19.43 77.42, 13.6 72.7 C7.76 67.98, 4.71 58.24, 2.56 51.2 C0.41 44.15, -1.2 37.16, 0.7 30.43 C2.61 23.69, 8 15.64, 13.98 10.8 C19.96 5.96, 33.18 2.76, 36.61 1.4 C40.04 0.04, 34.82 2.04, 34.56 2.64" stroke="#000000" stroke-width="1" fill="none"></path></g><g transform="translate(49.28404324374014 49.528176650506225) rotate(0 37 22.5)"><text x="37" y="32" font-family="Virgil, Segoe UI Emoji" font-size="36px" fill="#000000" text-anchor="middle" style="white-space: pre;" direction="ltr">1</text></g><g stroke-linecap="round"><g transform="translate(35.28404324374037 80.52817665050623) rotate(0 7.3543554651417935 -34.81019411227609)"><path d="M-0.72 -1.12 C-4.5 -12.17, -30.03 -57.42, -23.25 -67.33 C-16.46 -77.24, 29.62 -61.6, 39.99 -60.56 M1.1 0.91 C-2.81 -9.88, -30.77 -55.37, -24.32 -65.96 C-17.88 -76.56, 29.15 -63.66, 39.75 -62.68" stroke="#000000" stroke-width="1" fill="none"></path></g><g transform="translate(35.28404324374037 80.52817665050623) rotate(0 7.3543554651417935 -34.81019411227609)"><path d="M8.31 -58.04 C17.14 -57.07, 25.89 -60, 39.56 -63.62 M10.11 -57.45 C21.64 -59.85, 31.72 -62.15, 38.75 -63.3" stroke="#000000" stroke-width="1" fill="none"></path></g><g transform="translate(35.28404324374037 80.52817665050623) rotate(0 7.3543554651417935 -34.81019411227609)"><path d="M11.98 -78.23 C19.72 -72.18, 27.53 -70.01, 39.56 -63.62 M13.78 -77.64 C23.9 -72.62, 32.62 -67.51, 38.75 -63.3" stroke="#000000" stroke-width="1" fill="none"></path></g></g><g stroke-linecap="round" transform="translate(44.28404324374014 198.52817665050623) rotate(0 42 40.5)"><path d="M6.35 18.77 C6.35 18.77, 6.35 18.77, 6.35 18.77 M6.35 18.77 C6.35 18.77, 6.35 18.77, 6.35 18.77 M1.02 30.55 C9.44 18.87, 19.65 11.86, 24.1 4.7 M3.14 29.19 C7.89 23.01, 13.01 18.21, 24.7 3.58 M-0.59 39.62 C8.35 25.78, 20.92 16.83, 31.4 4.25 M-0.81 37.75 C7.94 28.05, 17.69 18.74, 29.78 2.85 M1.68 42.49 C7.81 32.76, 19.43 23.14, 35.44 0.26 M2.27 42.96 C10.87 30.24, 22.52 19.72, 37.48 1.48 M1.9 47.28 C20.3 28.92, 36.21 11.15, 43.75 -0.96 M3.45 46.84 C16.12 32.03, 26.61 19.3, 43.26 -0.22 M5.41 50.08 C21.5 30.53, 38.9 10.88, 50.67 2 M3.54 50.71 C14.46 39.85, 25.86 28.07, 48.63 0.68 M5.98 56.09 C19.84 39.89, 33.83 23.91, 52.44 0.53 M6.53 54.97 C16.27 44.36, 25.68 32.89, 52.66 1.28 M8.99 58.96 C21.83 45.94, 32.92 32.09, 58.32 2.36 M7.14 59.17 C21.08 44.72, 35.22 29.49, 57.27 3.86 M8.52 65.48 C20.72 50.19, 29.8 38.38, 59.73 5.23 M8.23 65.37 C20.09 51.68, 30.65 39.03, 58.84 6.29 M14.43 65.89 C23.78 53.27, 39.65 34.42, 62.07 6.45 M12.1 67.15 C27.72 50.87, 41.89 32.75, 62.21 8.26 M16.96 68.81 C32.33 50.02, 52.12 28.41, 67.83 10.35 M15.51 69.2 C31.28 50.48, 46.55 33.23, 66.16 9.41 M20.39 72.09 C31.23 59.35, 43.79 44.68, 70.34 12.08 M17.58 70.9 C37.15 50.37, 55.8 28.01, 69.5 11.84 M21.55 74.92 C33.95 57.72, 50.22 40.43, 70.99 14.8 M20.64 75.06 C33.25 61.53, 42.77 50.46, 72.54 15.94 M25.57 75.98 C42.09 55.96, 60.22 35.73, 74.88 19.25 M24.31 76.82 C40.38 59.04, 56.37 40.61, 75.1 18.69 M29.07 80.3 C46.26 61.13, 62.99 37.23, 79.42 22.17 M26.97 79.16 C38.29 67.19, 49.01 55.63, 77.4 20.78 M33.21 79.88 C52.64 60.25, 70.61 36.67, 78.7 25.14 M33.14 80.22 C41.72 68.3, 51.64 57.99, 80.74 24.09 M36.93 79.36 C52.28 60.88, 66.08 44.05, 83.99 28.49 M37 79.62 C54.82 61.33, 72.26 40.04, 82.33 28.29 M41.94 80.08 C52.78 65.16, 66.5 50.55, 80.87 36.4 M41.77 81.29 C55.87 65.68, 70.29 49.77, 82.72 34.7 M45.94 81.25 C56.73 66.86, 70.96 54.93, 84.92 42 M47.16 81.25 C59.85 65.93, 73.3 50.9, 83.82 39.99 M53.05 83.56 C58.84 72.62, 70.34 63.4, 82.35 46.32 M52.15 81.93 C61.89 69.3, 73.63 58.84, 81.8 45.84 M59.48 76.51 C65.03 70.19, 71.43 64.1, 84.31 52.84 M60.99 78.22 C68.01 68.26, 76.34 58.56, 83.76 52.23 M7.52 62.99 C7.52 62.99, 7.52 62.99, 7.52 62.99 M7.52 62.99 C7.52 62.99, 7.52 62.99, 7.52 62.99 M27.07 76.98 C17.34 66.66, 10.48 59.02, 6.54 55.04 M26.69 75.97 C19.71 68.35, 12.55 61.58, 5.86 56.27 M34.74 75.22 C24.28 65.57, 12.22 53.85, 2.28 49.02 M34.72 75.21 C22.49 66.93, 11.91 56.16, 2.03 48.43 M41.63 77.11 C30.46 65.94, 18.33 54.98, -0.93 38.21 M42.4 76.53 C26.86 63.49, 11.53 51.04, 0.44 39.92 M50.12 80.64 C35.7 66.46, 19.17 51.14, 1.82 38.08 M50.62 79.73 C36.97 67.1, 21.03 54.68, 0.48 36.03 M56.03 78.12 C37.56 62.85, 21.07 47.37, 2.69 30.27 M54.73 76.66 C44.41 68.71, 32.47 57.73, 2.67 32.21 M57.05 74.11 C39.35 58.1, 22.15 43.24, 4.1 27.29 M57.31 75.87 C42.4 62.56, 27 48.86, 3.91 27.37 M63.82 73.81 C38.64 53.59, 14.79 31.11, 3.06 25.48 M61.54 73.67 C43.69 58.01, 25.68 41.99, 4.15 23.56 M67.07 69.92 C51.6 57.2, 31.64 41.17, 7.02 20.53 M66.63 71.67 C50.83 58.57, 35 44.35, 6.6 18.18 M71.7 68.16 C50.43 52.41, 30.33 35.62, 6.51 15.66 M70.3 69.02 C52.57 53.73, 35.06 40.05, 8.64 16.86 M74.47 68.84 C48.68 48.5, 24.08 28.16, 10.53 13.26 M74.69 66.61 C61.04 57.07, 48.9 45.03, 11.51 13.74 M75.83 62.35 C54.21 43.08, 31.49 27.52, 15.14 11 M76.54 63.32 C55.89 46, 36.95 29.01, 15.24 10.34 M77.34 62.03 C59.28 43.16, 41.48 30.42, 18.39 8.07 M76.93 59.53 C56.8 42.68, 34.36 22.74, 17.87 8.43 M81.76 56.45 C65.66 44.25, 49.76 34.13, 22.13 7.4 M79.67 58.07 C56.26 36.49, 33.69 16.27, 21.62 6.95 M82.64 54.9 C67.01 39.88, 53.96 27.67, 26.18 5.19 M81.21 54.48 C68.44 41.7, 54.54 30.08, 25.31 4.24 M84.05 50.28 C73.47 37.68, 59.94 27.76, 28.2 2.43 M84.66 50.48 C73.62 39.55, 62.17 29.25, 28.57 2.24 M83.08 45.98 C71.59 33.28, 61.86 23.54, 34.3 -0.17 M84.66 45.62 C73.67 34.39, 61.1 25.3, 34.78 2.11 M85.58 38.71 C75.37 30.1, 64 21.16, 39.42 1.33 M83.33 38.76 C72.65 29.49, 60.17 19.12, 39.73 0.42 M83.71 36.1 C74.72 25.53, 64.68 18.54, 45.94 0.96 M84.27 34.37 C69.64 21.53, 53.51 8.75, 44.58 0.71 M82.58 27.57 C73.94 18.73, 67.69 13.48, 50.61 -2.9 M83.37 28.06 C75.41 22.57, 69.27 15.7, 49.03 -1.59" stroke="#51c4d3" stroke-width="0.5" fill="none"></path><path d="M47.8 -0.27 C55.06 0.2, 62.2 5.45, 67.98 10.17 C73.77 14.9, 80.03 21.22, 82.49 28.1 C84.95 34.97, 84.61 44.41, 82.73 51.42 C80.85 58.43, 76.78 65.39, 71.21 70.16 C65.64 74.93, 56.89 78.78, 49.3 80.04 C41.71 81.3, 32.58 80.53, 25.66 77.73 C18.75 74.93, 12.18 69.38, 7.8 63.23 C3.41 57.09, -0.34 48.21, -0.64 40.87 C-0.93 33.52, 1.85 25.31, 6.03 19.15 C10.21 12.99, 17.42 7.16, 24.43 3.9 C31.44 0.63, 43.82 -0.16, 48.09 -0.44 C52.36 -0.72, 49.99 1.24, 50.07 2.2 M34.58 -0.23 C41.26 -2.33, 49.93 -0.54, 56.95 2.46 C63.98 5.47, 72.11 11.51, 76.73 17.79 C81.34 24.07, 84.19 32.83, 84.66 40.15 C85.12 47.47, 83.33 55.54, 79.52 61.7 C75.71 67.85, 68.7 73.66, 61.8 77.08 C54.9 80.5, 45.85 83, 38.12 82.2 C30.39 81.4, 21.18 77.01, 15.43 72.3 C9.68 67.59, 6.15 60.72, 3.64 53.93 C1.13 47.14, -1.11 38.68, 0.39 31.57 C1.89 24.47, 6.94 16.4, 12.64 11.31 C18.34 6.22, 31.12 2.85, 34.58 1.04 C38.04 -0.77, 33.31 -0.01, 33.39 0.44" stroke="#000000" stroke-width="1" fill="none"></path></g><g transform="translate(49.28404324374014 216.52817665050623) rotate(0 37 22.5)"><text x="37" y="32" font-family="Virgil, Segoe UI Emoji" font-size="36px" fill="#000000" text-anchor="middle" style="white-space: pre;" direction="ltr">2</text></g><g stroke-linecap="round"><g transform="translate(83.28404324374014 185.02817665050623) rotate(0 0.2848383197894009 -32.535388541966654)"><path d="M0.91 -0.22 C1.06 -11.09, 0.39 -54.21, 0.4 -64.85 M-0.07 -1.38 C0 -12.16, -0.46 -53.52, -0.34 -63.76" stroke="#000000" stroke-width="1" fill="none"></path></g><g transform="translate(83.28404324374014 185.02817665050623) rotate(0 0.2848383197894009 -32.535388541966654)"><path d="M9.59 -34.93 C5.77 -41.26, 4.38 -49.45, 0.14 -63.13 M10.19 -36.04 C7.04 -44.16, 4.86 -51.26, 0.29 -64.41" stroke="#000000" stroke-width="1" fill="none"></path></g><g transform="translate(83.28404324374014 185.02817665050623) rotate(0 0.2848383197894009 -32.535388541966654)"><path d="M-10.93 -34.9 C-9.44 -41.4, -5.51 -49.59, 0.14 -63.13 M-10.33 -36.02 C-7.85 -44.28, -4.38 -51.38, 0.29 -64.41" stroke="#000000" stroke-width="1" fill="none"></path></g></g><g stroke-linecap="round" transform="translate(43.28404324374014 362.5281766505062) rotate(0 42 40.5)"><path d="M13.38 11.63 C13.38 11.63, 13.38 11.63, 13.38 11.63 M13.38 11.63 C13.38 11.63, 13.38 11.63, 13.38 11.63 M0.27 30.53 C6.29 25.57, 13.37 18.66, 23.27 6.69 M1.13 32.3 C6.37 23.87, 13.06 17.27, 23.79 6.41 M2.67 35.1 C14.83 21.46, 26.51 10.48, 31.96 -0.44 M3.58 34.18 C10.98 25.47, 19.47 17.6, 33.65 -0.66 M3.99 40.17 C14.86 29.27, 26.2 12.8, 40.6 1.25 M4.53 39.08 C12.57 31.51, 19.91 24.24, 39.69 1.21 M5.97 46.62 C13.92 37.97, 20.85 27.11, 44.98 2.85 M5.23 45.42 C15.65 32.8, 26.94 19.9, 43.36 0.05 M4.18 51.08 C20.41 35.33, 37.47 16, 50 2.37 M6.12 50.75 C19.06 34.18, 32.49 18.77, 48.7 0.94 M5.57 57.98 C16.33 45.72, 26.39 32.78, 53.82 1.72 M4.97 56.17 C19.58 41.17, 32.89 28.01, 53.16 1.46 M9.28 60.49 C26.7 41.41, 41.32 20.55, 58.01 2.68 M8.43 59.52 C23.76 41.64, 39.58 23.17, 58.52 1.87 M11.6 62.33 C30.02 44.1, 47.57 22.67, 63.14 5.24 M9.72 63.58 C21.9 50.15, 31.7 38.34, 61.12 5.81 M14.81 66.23 C30.08 47.27, 49.24 27.1, 65.61 8.45 M12.04 66.75 C26.56 51.57, 41.27 34.42, 63.35 7.44 M16.01 71.19 C32.37 51.53, 46.46 33.5, 65.22 9.32 M16.21 70.72 C26.16 56.2, 37.7 43.3, 67.94 10.67 M18.03 75.7 C32.8 57.55, 44.37 40.69, 70.06 11.69 M18.22 73.92 C30.91 56.81, 45.98 41.36, 71.54 12.35 M21.65 75.33 C43.49 50.46, 62.31 26.63, 72.69 16.38 M22.09 75.45 C35.12 57.75, 50.49 40.31, 73.6 14.7 M25.13 77.6 C40.29 61.86, 54.69 43.32, 77.04 19.77 M26.16 76.29 C41.62 57.93, 58.8 37.81, 75.9 18.22 M28.44 79.62 C48.74 56.58, 65.04 35.57, 77.27 21.46 M29.98 79.24 C42.19 64.39, 53.97 49.38, 78.16 21.68 M35.41 79.45 C42.46 67.99, 54 56.86, 81.27 26.13 M33.13 80.54 C47.08 61.69, 61.53 46.12, 80.22 26.25 M39.34 81.24 C49.95 65.1, 67.53 48.38, 81.63 31.14 M37.55 81.4 C49.32 65.96, 63.7 51.22, 81.62 29.47 M43.16 84.34 C49.87 72.65, 57.42 64.72, 83.76 36.23 M42.34 83.38 C52.71 70.95, 60.96 59.11, 84.52 35.19 M47.61 81.42 C59.56 67.39, 72.13 54.29, 84.81 38.55 M48.71 80.84 C57.43 72.45, 65.17 62.18, 85.27 39.01 M54.93 81.38 C65.1 67.22, 77.92 56.32, 84.62 48.4 M54.25 80.13 C62.42 70.07, 72.63 60.4, 83.96 46.21 M62.86 76.18 C70.84 70.22, 77.83 59.64, 81 53.95 M61.72 76.78 C66.37 72.81, 69.56 68.98, 82.54 54.89 M16.31 72.69 C16.31 72.69, 16.31 72.69, 16.31 72.69 M16.31 72.69 C16.31 72.69, 16.31 72.69, 16.31 72.69 M29.23 77.42 C18.16 72.21, 13.17 63.8, 6.04 56.53 M27.31 77.86 C22.61 72.59, 18.65 68.92, 5.5 57.2 M36.96 78.53 C30.82 74.49, 20.26 68.5, 5.51 51.26 M37.03 81.36 C30.79 75.07, 23.57 69.59, 6.14 53.71 M42.01 78.71 C29.97 70.45, 18.3 59.95, 5.42 47.21 M41.35 77.89 C28.78 68, 16.65 56.66, 4.81 46.24 M48.13 78.87 C31.02 64.53, 15.09 48.75, 6.28 39.89 M45.45 77.09 C30.32 64.53, 13.59 49.14, 5.49 41.45 M53.12 76.35 C40.04 67.33, 27.37 56.88, 1.85 33.99 M52.31 76.99 C33.98 63.05, 16.38 46.79, 3.33 35.96 M57 76.64 C42.67 63.06, 28.99 50.3, 1.73 29.73 M57.53 76.07 C38 58.66, 17.24 42.84, 3.99 29.02 M62.16 77.08 C52.59 67.14, 37.28 54.32, 4.02 24.03 M64.27 77.23 C42.4 58.89, 23.65 41.35, 4.89 25.98 M64.94 72.17 C49.43 62.16, 38.4 47.91, 6.4 22.37 M65.4 73.45 C50.1 59.25, 34.6 46.42, 7.04 22.5 M67.08 71.11 C50.06 54, 29.64 38.76, 7.78 19.83 M67.69 69.65 C54.9 59.2, 41.98 47.09, 9.39 19.81 M69.79 65.76 C58.54 54.79, 46.88 43, 9.94 15.57 M70.58 66.93 C58.37 55.82, 45.48 44.77, 11.11 15.64 M72.36 65.1 C52.33 47.77, 30.06 28.81, 12.88 11.94 M73.48 65.32 C58.93 50.76, 43.19 38.67, 13.66 11.52 M75.09 62.27 C59.07 46.13, 45.53 32, 16.23 8.29 M77.32 61.25 C58.59 45.56, 39.16 29.78, 16.87 8.97 M78.12 57.79 C60.65 41.41, 40.17 24.36, 19.06 9.45 M78.17 58.91 C61.37 42.6, 42.67 26.08, 21.47 8.26 M78.81 53.29 C67.09 41.98, 50.36 27.8, 24.33 6.16 M79.23 54.44 C68.19 43.93, 54.52 34.08, 24.15 5.19 M83.15 50.61 C62.01 31.21, 43.34 17.37, 28.71 4.87 M80.95 49.27 C70.43 39.55, 59.08 30.43, 28.18 3.14 M84.1 47 C72.58 35.57, 61.44 26.41, 31.24 0.82 M82.07 45.66 C70.82 37.02, 61.6 26.58, 32.67 0.54 M81.98 39.54 C74.16 32.46, 61.71 20.48, 33.92 -0.73 M82.69 41.39 C71.92 32.11, 62.12 21.5, 35.87 -1.65 M82.56 35.59 C73.91 24.02, 62.62 15.96, 40.15 1.15 M83.04 36.59 C70.63 23.91, 55.92 12.02, 42.31 0.05 M82.49 26.66 C69.97 17.83, 57.18 8.17, 49.51 -0.32 M79.61 27.85 C68.86 18.49, 58.73 9.85, 48.26 0.58 M77.18 19.33 C72.34 17.26, 68.55 10.49, 54.44 0.05 M77.68 19.53 C72.79 15.8, 66.81 11.8, 55.13 0.29" stroke="#51c4d3" stroke-width="0.5" fill="none"></path><path d="M56.64 1.61 C63.49 3.61, 71.1 11.05, 75.64 16.91 C80.19 22.77, 83.5 29.63, 83.92 36.77 C84.33 43.91, 81.7 53.06, 78.14 59.73 C74.58 66.4, 68.94 73.19, 62.53 76.79 C56.12 80.4, 47.41 82.07, 39.68 81.36 C31.95 80.65, 22.18 76.88, 16.16 72.56 C10.13 68.23, 5.99 62.21, 3.52 55.39 C1.06 48.57, -0.24 38.93, 1.38 31.66 C3 24.39, 7.85 17.03, 13.24 11.79 C18.64 6.55, 26.07 1.52, 33.73 0.21 C41.4 -1.09, 54.67 3.04, 59.24 3.95 C63.81 4.87, 61.39 5.14, 61.16 5.71 M25.71 3.17 C32.2 0.24, 42.74 0.83, 50 1.99 C57.27 3.14, 63.84 5.37, 69.3 10.13 C74.76 14.89, 80.89 23.12, 82.77 30.55 C84.64 37.97, 82.92 47.7, 80.57 54.7 C78.21 61.69, 74.21 68.35, 68.62 72.52 C63.03 76.69, 54.6 79.21, 47.03 79.72 C39.47 80.23, 30.02 78.89, 23.24 75.58 C16.45 72.26, 9.99 65.72, 6.34 59.83 C2.68 53.93, 1.23 47.2, 1.29 40.19 C1.35 33.17, 2.61 24.16, 6.68 17.75 C10.76 11.34, 22.62 4.13, 25.72 1.72 C28.81 -0.69, 24.83 2.31, 25.25 3.28" stroke="#000000" stroke-width="1" fill="none"></path></g><g transform="translate(48.28404324374014 380.5281766505062) rotate(0 37 22.5)"><text x="37" y="32" font-family="Virgil, Segoe UI Emoji" font-size="36px" fill="#000000" text-anchor="middle" style="white-space: pre;" direction="ltr">3</text></g><g stroke-linecap="round"><g transform="translate(86.28404324374014 350.0281766505062) rotate(0 -0.8082318001269186 -31.870988838369954)"><path d="M-0.24 -1.13 C-0.34 -11.87, 0.27 -54.08, 0.25 -64.63 M-1.83 0.89 C-2.14 -9.68, -0.65 -52.72, -0.56 -63.43" stroke="#000000" stroke-width="1" fill="none"></path></g><g transform="translate(86.28404324374014 350.0281766505062) rotate(0 -0.8082318001269186 -31.870988838369954)"><path d="M7.18 -34.59 C4.49 -46.09, 1.25 -55.78, -1.59 -61.53 M9.37 -35.91 C6.28 -43.52, 4 -50.93, -0.1 -63.86" stroke="#000000" stroke-width="1" fill="none"></path></g><g transform="translate(86.28404324374014 350.0281766505062) rotate(0 -0.8082318001269186 -31.870988838369954)"><path d="M-13.34 -35.05 C-8.43 -46.34, -4.08 -55.86, -1.59 -61.53 M-11.15 -36.37 C-8.75 -44.04, -5.55 -51.32, -0.1 -63.86" stroke="#000000" stroke-width="1" fill="none"></path></g></g><g stroke-linecap="round" transform="translate(40.28404324374014 528.5281766505062) rotate(0 42 40.5)"><path d="M6.21 21.29 C6.21 21.29, 6.21 21.29, 6.21 21.29 M6.21 21.29 C6.21 21.29, 6.21 21.29, 6.21 21.29 M1.84 31.76 C10.46 21.69, 14.95 14.47, 24.54 7.05 M3.83 30.38 C7.27 25.33, 11.33 19.49, 23.58 7.12 M-0.08 38.17 C8.59 28.49, 20.95 17.74, 30.35 3.58 M1.72 39.05 C9.72 27.72, 18.66 17.9, 30.83 3.79 M0.27 42.64 C16.66 27.26, 30.54 12.4, 39.35 3.75 M3.01 43.45 C12.77 31.12, 22.71 20.49, 37.38 4.47 M2.93 47.58 C19.87 28.24, 35.09 10.48, 45.33 1.74 M4.35 48.97 C15.74 34.85, 26.21 23.7, 46.08 -0.1 M3.86 53.03 C17.02 37.11, 27.85 25.31, 50.96 0.09 M5.8 51.86 C14.24 41.06, 23.55 30.86, 49.02 2.55 M8.12 57.74 C21.86 38.33, 35.87 21.5, 51.94 4.33 M6.37 57.02 C20.32 41.58, 33.44 26.65, 53.96 4.03 M6.93 59.81 C25.83 40.14, 45.94 18.33, 57.73 3.02 M7.41 61.34 C24.42 42.96, 38.96 25.97, 57.41 5.79 M8.89 64.06 C26.24 47.7, 38.08 30.95, 59.22 8.81 M10.1 65.73 C29.14 43.29, 49.45 20.37, 60.57 6.86 M15 68.44 C30.17 45.51, 52.32 25.83, 65.89 7.58 M12.81 68.22 C32.49 46.43, 51.3 24.14, 64.85 7.7 M17.25 72.11 C25.69 59.55, 36.87 47.52, 70.94 11.59 M15.99 70.76 C31.31 54.59, 45.93 37.53, 69.27 10 M17.62 73.86 C40.27 52.15, 60.51 25.92, 73.09 11.33 M19.51 74.27 C32.74 57.89, 45.47 42.39, 70.59 13.26 M22.59 75.69 C32.29 64.9, 46.16 50.94, 72.94 16.85 M23.44 74.96 C37.7 57.46, 53.28 40.13, 74.01 16.79 M27.64 76.71 C41.49 62.03, 54.85 46.2, 77.56 19.71 M24.87 78.91 C38.48 62.68, 51.66 47.18, 76.01 18.34 M28.28 79.52 C49.57 56.36, 69.4 32.41, 78.22 21.35 M29.31 81.08 C43.58 64.1, 59.86 44.64, 78.47 23.14 M34.55 81.8 C51.69 62.01, 70.13 41.66, 81.53 27.39 M33.41 81.69 C42.44 69.93, 53.05 58.76, 82.02 24.95 M36.89 81.23 C49.71 65.44, 63.21 50.6, 86.53 28.85 M39.22 81.75 C56.02 61.02, 73.14 40.99, 85.55 27.89 M43.16 83.61 C53.42 68.15, 67.63 56.07, 83.25 34.23 M43.48 81.86 C54.77 68.03, 66.63 53.59, 85.05 35.29 M49.76 81.67 C60.1 67.41, 71.04 56.78, 84.31 42.08 M51.09 79.77 C60.43 69.57, 67.53 59.51, 85.45 40.86 M61.5 73.8 C65.81 67.86, 75.5 57.42, 83.57 46.24 M61.23 75.74 C67.65 66.05, 74.99 56.45, 85.69 46.68 M69.39 68.34 C77.66 61.83, 80.76 56.36, 84.5 52.62 M69.53 69.58 C77.21 61.99, 82.09 55.77, 85.32 52.66 M6.95 63.64 C6.95 63.64, 6.95 63.64, 6.95 63.64 M6.95 63.64 C6.95 63.64, 6.95 63.64, 6.95 63.64 M27.2 77.97 C22.54 71.84, 14.01 65.82, 3.4 54.79 M27.58 75.8 C22.45 70.2, 15.12 65.84, 4.27 56.63 M34.82 77.5 C29 72.42, 19.74 64.79, 3.52 49.82 M34.19 77.51 C22.79 67.73, 11.51 57.2, 1.9 48.76 M41.43 76.56 C27.91 68.26, 16.66 55.31, 0.02 41.47 M40.69 77.31 C33.27 69.65, 22.89 61.2, 0.6 42.62 M49.55 77.97 C31.81 64.99, 15.83 49.18, 2.27 37.06 M48 77.58 C31.13 62.99, 13.84 49.76, 1.71 38.56 M54.77 78.08 C42.11 66.48, 30.97 57.92, 2.09 33.37 M54.21 77.92 C38.53 64, 23.28 51.23, 1.9 34.29 M57.87 75.05 C34.67 58.76, 15.07 38.49, 5.16 30.83 M57.02 74.08 C36.04 57.64, 14.6 39.55, 2.93 29.69 M62.03 72.94 C47.1 61.04, 31.91 47.1, 3.1 25.7 M61.21 72.83 C39.59 55.08, 18.23 37.13, 4.03 25.76 M62.82 72.74 C49.36 56.17, 33.36 41.07, 5.38 21.64 M65.03 71.56 C49.29 56.52, 33.05 43.84, 6.11 20.8 M66.93 69.8 C46.89 48.01, 23.77 27.91, 8.89 19.25 M69.17 68.47 C57.75 58.98, 44.11 49.38, 9.71 18.7 M73.98 68.08 C59.9 57.56, 48.56 47.06, 13.15 14.95 M72.91 67.54 C51.83 50.05, 32.81 32.65, 12.41 14.47 M72.44 63.73 C52.11 46.01, 30.57 27.13, 12.84 13.19 M74.34 64.69 C50.94 42.57, 26.61 22.5, 13.79 11.15 M77.48 61.86 C59.02 48.48, 46.55 34.45, 16.26 8.64 M76.57 61.32 C59.61 44.26, 40.1 28.33, 18.08 8.68 M80.35 58.85 C55.53 39.64, 33.67 19.65, 20.4 5.07 M79.36 57.29 C64.2 44.84, 49.22 31.67, 19.66 5.47 M82.28 55.16 C70.34 41.76, 56.42 30.36, 22.08 2.23 M81.34 54.41 C62.88 39.39, 47.79 24.82, 22.45 4 M83.3 52.23 C65.74 36.54, 48.97 20.48, 27.35 0.72 M83.2 50.04 C65.75 34.95, 49.35 20.7, 27.62 2.29 M87.16 45.41 C70.96 33.14, 55.86 19.52, 31.81 2.89 M84.85 46.66 C66.13 30.42, 48.24 15.47, 32.24 1.61 M86.67 40.73 C70.18 29.46, 55.26 15.1, 38.52 1.7 M85.15 41.43 C67.17 25.03, 47.83 10.51, 37.51 -0.08 M83.41 37.82 C74.14 25.01, 61.57 16.36, 42.89 -2.42 M85.83 35.67 C73.21 26.29, 59.91 14.76, 41.95 -0.53 M85.73 28.82 C73.22 22.18, 64.02 10.47, 47.03 -3.36 M83.89 30.55 C70.8 18.84, 58.59 7.14, 46.03 -2.28 M81.95 22.53 C75.2 16.41, 65.84 8.68, 55.92 1.48 M83.1 23.92 C75.06 16.67, 68.84 10.89, 56.73 0.74" stroke="#51c4d3" stroke-width="0.5" fill="none"></path><path d="M21.96 4.43 C28 0.55, 36.76 -1.37, 44.27 -0.77 C51.78 -0.17, 60.73 3.48, 67.03 8.05 C73.32 12.62, 79.36 19.73, 82.02 26.65 C84.68 33.58, 84.87 42.48, 82.97 49.59 C81.07 56.7, 76.02 64.27, 70.64 69.31 C65.26 74.35, 58.1 78.37, 50.7 79.82 C43.29 81.27, 33.45 80.64, 26.21 77.99 C18.98 75.34, 11.6 69.91, 7.29 63.94 C2.98 57.98, 0.58 49.26, 0.35 42.21 C0.11 35.16, 1.95 28.13, 5.9 21.65 C9.85 15.17, 20.35 6.44, 24.05 3.34 C27.75 0.24, 27.64 2.33, 28.1 3.07 M44.31 -0.15 C51.34 -0.35, 60.95 3.71, 67.16 8.03 C73.37 12.35, 78.81 18.86, 81.59 25.77 C84.37 32.67, 85.65 42.31, 83.82 49.45 C81.99 56.59, 76.19 63.55, 70.61 68.61 C65.04 73.66, 57.81 78.04, 50.39 79.77 C42.96 81.5, 33.3 81.38, 26.05 79 C18.8 76.63, 11.37 71.34, 6.88 65.52 C2.39 59.7, -0.75 51.65, -0.91 44.07 C-1.07 36.5, 1.97 26.42, 5.92 20.08 C9.86 13.73, 16.13 9.24, 22.74 5.99 C29.35 2.75, 41.61 1.49, 45.58 0.62 C49.54 -0.26, 46.87 0.01, 46.53 0.76" stroke="#000000" stroke-width="1" fill="none"></path></g><g transform="translate(45.28404324374014 546.5281766505062) rotate(0 37 22.5)"><text x="37" y="32" font-family="Virgil, Segoe UI Emoji" font-size="36px" fill="#000000" text-anchor="middle" style="white-space: pre;" direction="ltr">4</text></g><g stroke-linecap="round"><g transform="translate(82.28404324374014 518.0281766505062) rotate(0 -0.39992144553457365 -32.785598803311586)"><path d="M0.75 -0.39 C0.66 -11.45, -0.19 -54.49, -0.4 -65.19 M-0.31 -1.63 C-0.62 -12.09, -1.35 -53.96, -1.55 -64.27" stroke="#000000" stroke-width="1" fill="none"></path></g><g transform="translate(82.28404324374014 518.0281766505062) rotate(0 -0.39992144553457365 -32.785598803311586)"><path d="M8.58 -36.93 C3.57 -45.85, 1.26 -54.76, -3.29 -62.58 M8.41 -35.73 C4.77 -45.5, 1.4 -55.09, -1.43 -64.28" stroke="#000000" stroke-width="1" fill="none"></path></g><g transform="translate(82.28404324374014 518.0281766505062) rotate(0 -0.39992144553457365 -32.785598803311586)"><path d="M-11.93 -36.56 C-10.48 -45.72, -6.31 -54.75, -3.29 -62.58 M-12.1 -35.35 C-8.57 -45.06, -4.75 -54.78, -1.43 -64.28" stroke="#000000" stroke-width="1" fill="none"></path></g></g><g stroke-linecap="round" transform="translate(504.2840432437399 206.02817665050623) rotate(0 42 40.5)"><path d="M10.32 12.95 C10.32 12.95, 10.32 12.95, 10.32 12.95 M10.32 12.95 C10.32 12.95, 10.32 12.95, 10.32 12.95 M2.26 28.38 C6.92 22, 11.37 15.08, 22.15 7.49 M3.37 28.39 C9.98 20.26, 15.86 12.93, 20.96 6.96 M1.82 35.91 C11.72 25.04, 18.74 15.47, 30.8 0.73 M2.97 34.65 C12.82 21.37, 24.15 9.85, 29.83 3.01 M3.87 40.42 C12.55 27.46, 27.66 13.05, 35.54 2.42 M2.53 40.31 C13.86 27.72, 25.51 14.99, 33.82 3.3 M4.99 46.18 C14.47 30.94, 26.9 15.74, 38.85 1.99 M3.65 44.65 C18.6 29.68, 31.59 13.39, 38.57 3.1 M2.25 52.7 C18.52 36.12, 29.58 18.98, 45.31 2.02 M4.1 50.29 C14.64 39.23, 24.74 26.5, 44.39 3.15 M3.69 58.34 C19.46 40.04, 37.83 17.7, 51.91 4.34 M4.68 57.39 C21.38 37.95, 38.03 19.7, 50.81 4.33 M5.38 60.93 C21.09 42.11, 36.24 26.87, 57.14 2.59 M6.57 59.06 C18.07 46.39, 30.95 32.9, 58.03 0.96 M9.34 62.68 C28.77 42.61, 44.32 20.65, 60.92 1.96 M9.54 62.89 C20.92 49.09, 31.73 38.44, 61.15 3.23 M9.9 65.27 C27.23 51.18, 40.63 32.12, 63.52 7.92 M12.64 66.77 C25.96 49.25, 39.11 33.39, 63.42 6.61 M14.84 70.49 C27.95 54.64, 41.67 39.08, 66.83 8.46 M13.66 70.18 C28.46 55.53, 39.95 39.83, 65.75 8.76 M17.84 74.09 C32.48 54.85, 45.35 42.5, 71.42 10.65 M15.89 72.76 C38.92 47.5, 60.01 22.86, 70.22 10.82 M18.29 75.94 C30.95 60.58, 43.88 47.12, 73.74 13.84 M18.25 77.13 C36.42 56.26, 55.32 35.64, 73.45 13.23 M22.41 76.63 C43.91 50.96, 64.61 27.01, 77.18 15.92 M22.68 78.2 C42.72 54.63, 63.11 31.75, 76.04 16.77 M28.41 79.13 C47.47 56.45, 65.5 31.08, 79.21 20.83 M27.65 77.5 C44.12 60.91, 58.07 42.51, 78.06 20.64 M31.56 80.88 C42.43 66.79, 56.27 51.19, 79.17 24.06 M31.55 79.98 C48.8 58.86, 67.66 39.33, 79.03 24.78 M36.67 79.66 C48.09 65.69, 60.53 53.68, 81.38 28.09 M35.48 80.53 C51.21 62.21, 68.63 42.85, 81.51 27.89 M39.88 81.5 C52.5 65.84, 64.75 53.81, 83 32.54 M39.3 82.62 C50.74 70.64, 60.02 58.21, 83.11 34.32 M43.13 84.77 C55.6 67.09, 72.31 53.28, 83.7 37.96 M44.48 85.06 C55.62 72.86, 66.07 60.13, 84.59 38.53 M49.21 82.06 C60.72 68.44, 70.07 59.67, 81.65 45.06 M51.45 82.54 C61.88 70.68, 72.23 58.85, 82.1 45.04 M55.73 82.11 C62.64 71.86, 70.45 62.01, 81.04 55.24 M57.83 80.31 C64.58 72.56, 73.14 63.21, 81.03 53.56 M17.6 74.26 C17.6 74.26, 17.6 74.26, 17.6 74.26 M17.6 74.26 C17.6 74.26, 17.6 74.26, 17.6 74.26 M28.09 76.01 C20.61 74.8, 18.18 68.65, 3.04 55.92 M26.88 78.15 C19.68 71.4, 13.72 65.38, 4.85 58.1 M36.32 81.56 C26.36 70.42, 14.69 61.37, 5.39 54.33 M36.85 80.95 C25.64 71.38, 17.65 63.43, 4.8 51.71 M41.66 79.24 C29.38 67.47, 18.4 59.08, 2.91 47.12 M41.36 78.85 C29.53 68.22, 15.27 55.6, 5.18 47.39 M45.11 78.53 C33.69 65.36, 16.7 53.09, 1.56 39.46 M46.17 78 C31.74 63.7, 13.69 50.04, 3.94 39.79 M50.83 79.32 C40.13 65.65, 27.64 55.88, 2.39 36.09 M52.48 77.44 C31.51 60.06, 13.18 44.57, 3.22 35.78 M54.84 76.06 C35.82 59.24, 17.14 41.16, 0.88 28.89 M55.95 75.97 C34.81 57.72, 14.36 40.8, 3 28.77 M60.84 77.3 C47.8 62.01, 31.57 50.3, 3.38 24.32 M60.82 76.38 C40.97 56.99, 19.88 37.41, 3.84 24.81 M66.63 71.92 C50.54 57.84, 31.58 44.34, 7.39 24.43 M66.65 74.33 C43.42 54.22, 20.23 33.65, 7.52 22.27 M67.94 72.66 C51.34 55.54, 33.59 40.08, 8.54 17.01 M68.5 70.59 C53.2 56.88, 37.26 44.21, 8.23 18.7 M71.12 68.3 C52.87 53.37, 35.18 37.28, 9.89 16.41 M69.83 67.91 C51.71 52.72, 34.36 35.69, 10.31 14.35 M71.46 65.87 C61.92 53.72, 45.8 43.08, 13.33 11.14 M73.25 63.92 C51.54 45.16, 28.25 24.99, 11.89 10.43 M77.33 62.94 C51.11 40.62, 26.04 21.38, 16.77 8.03 M74.91 60.08 C57.39 45.92, 38.05 29.99, 16.36 9.95 M76.31 57.07 C61.05 43.28, 41.54 26.86, 21.1 8.55 M78.93 57.85 C56.13 36.68, 32.69 17.97, 19.74 6.79 M81.56 56.05 C68.41 46.93, 57.57 35.52, 22.24 6.89 M80.13 55.61 C67.41 43.61, 52.21 32.25, 22.95 4.38 M81.43 51.46 C61.36 32.48, 37.93 13.15, 26.67 2.24 M81.94 50.92 C61.8 32.06, 40.7 13.74, 27.71 2.73 M83.14 45.51 C68.03 35.54, 55.21 22.07, 33.57 0.3 M82.34 45.97 C72.42 36.87, 60.49 26.65, 30.97 2.6 M83.35 41.92 C67.86 27.71, 48.46 10.63, 38.72 0.83 M84.8 41.28 C67.74 26.44, 50.35 12.72, 37.13 1.76 M83.27 36.86 C68 23.44, 54.79 10.23, 41.85 1.2 M83.71 37.21 C74.05 28.6, 66.92 21.46, 43.68 1.19 M81.35 27.08 C73.47 23.64, 65.73 16.27, 51.25 0.63 M79.33 28.84 C70.75 18.88, 61.28 10.75, 50.16 2.05 M77.63 21.42 C71.92 17.1, 68.07 10.06, 53.94 1.65 M78.5 20.14 C71.92 13.84, 64.67 8.47, 54.61 -0.19" stroke="#f1939c" stroke-width="0.5" fill="none"></path><path d="M56.5 1.18 C63.53 2.74, 70.72 8.79, 75.16 14.65 C79.6 20.52, 82.57 29.12, 83.13 36.36 C83.69 43.6, 81.87 51.43, 78.51 58.08 C75.14 64.73, 69.21 72.35, 62.93 76.27 C56.65 80.2, 48.41 82, 40.83 81.65 C33.25 81.29, 23.88 78.61, 17.45 74.14 C11.03 69.66, 5.11 61.76, 2.26 54.79 C-0.59 47.82, -1.05 39.34, 0.34 32.31 C1.74 25.28, 5.46 17.69, 10.63 12.59 C15.79 7.5, 23.34 3.37, 31.33 1.74 C39.32 0.11, 53.36 2.19, 58.58 2.8 C63.8 3.41, 62.81 4.79, 62.65 5.4 M29.17 3.27 C36.14 0.29, 46.29 -1.27, 53.53 0.45 C60.78 2.17, 67.58 8.02, 72.63 13.59 C77.69 19.17, 82.66 26.79, 83.84 33.91 C85.03 41.03, 82.69 49.47, 79.77 56.31 C76.84 63.15, 72.37 70.65, 66.3 74.95 C60.23 79.25, 51.01 82.03, 43.35 82.11 C35.68 82.19, 26.9 79.41, 20.31 75.45 C13.73 71.49, 7.15 64.95, 3.82 58.35 C0.49 51.74, -0.78 42.97, 0.33 35.82 C1.45 28.66, 5.95 21.13, 10.52 15.41 C15.09 9.68, 24.58 3.49, 27.78 1.45 C30.98 -0.58, 29.47 2.48, 29.72 3.18" stroke="#000000" stroke-width="1" fill="none"></path></g><g transform="translate(509.2840432437399 224.02817665050623) rotate(0 37 22.5)"><text x="37" y="32" font-family="Virgil, Segoe UI Emoji" font-size="36px" fill="#000000" text-anchor="middle" style="white-space: pre;" direction="ltr">1</text></g><g stroke-linecap="round"><g transform="translate(495.2840432437399 255.02817665050623) rotate(0 7.729758215905349 -35.1194085394302)"><path d="M0.79 0.11 C-2.85 -10.93, -28.92 -55.72, -22.75 -65.85 C-16.57 -75.98, 27.66 -61.35, 37.82 -60.67 M-0.26 -0.88 C-3.95 -12.26, -30.29 -57.65, -23.56 -67.37 C-16.83 -77.09, 29.83 -60.22, 40.1 -59.18" stroke="#000000" stroke-width="1" fill="none"></path></g><g transform="translate(495.2840432437399 255.02817665050623) rotate(0 7.729758215905349 -35.1194085394302)"><path d="M10.48 -55.33 C18.87 -58.68, 24.17 -58.8, 38.78 -59.37 M11.1 -55.13 C17.21 -56.75, 23.25 -57.93, 39.15 -59.56" stroke="#000000" stroke-width="1" fill="none"></path></g><g transform="translate(495.2840432437399 255.02817665050623) rotate(0 7.729758215905349 -35.1194085394302)"><path d="M15.25 -75.29 C22.64 -74.14, 26.87 -69.79, 38.78 -59.37 M15.87 -75.09 C20.83 -72.56, 25.88 -69.6, 39.15 -59.56" stroke="#000000" stroke-width="1" fill="none"></path></g></g><g stroke-linecap="round" transform="translate(381.2840432437399 367.0281766505062) rotate(0 42 40.5)"><path d="M16.63 7.83 C16.63 7.83, 16.63 7.83, 16.63 7.83 M16.63 7.83 C16.63 7.83, 16.63 7.83, 16.63 7.83 M3.53 27.9 C7.4 23.87, 15.06 17.48, 22.92 3.3 M4.03 28.11 C11.39 20.65, 17.78 11.93, 24.24 4.47 M3.81 34.85 C10.86 26.79, 16.85 19.07, 34.38 -0.23 M2.82 35.76 C13.01 23.4, 23.68 13.3, 33.5 2.67 M5.09 42.66 C16.18 29.64, 25.42 15.24, 37.51 0.6 M3.93 41.84 C12.46 31.21, 20.01 21.42, 38.9 2.19 M1.38 48.97 C16.3 31.24, 31.11 15.36, 42.82 0.97 M1.79 49.62 C16.02 32.95, 28.27 18.26, 42.83 0.93 M3.82 52.15 C11.6 42.02, 21.4 29.82, 49.32 1.09 M4.13 52.71 C19.13 35.71, 32.93 20.11, 46.49 2.16 M7.19 57.9 C16.3 44.73, 31.42 29.07, 50.7 1.44 M5.13 57.94 C22.1 38.99, 38.65 19.04, 52.76 4.19 M7.23 61.19 C20.72 47.28, 31.94 32.21, 58.27 2.51 M7.4 61.65 C23.34 44.67, 37.24 26.95, 57.79 4.35 M10.92 63.21 C24.94 46.8, 38.19 27.48, 61.05 5.84 M8.99 64.93 C25.99 46.61, 40.33 28.09, 61.85 4.38 M13.34 68.24 C21.8 55.76, 34.67 43, 66.09 8.7 M10.94 68.77 C30.14 44.83, 51.14 21.81, 64.31 7.39 M15.19 71.73 C31.96 51, 48.72 29.71, 65.94 9.42 M15.43 70.55 C26.7 54.99, 39.39 40.96, 67.74 9.55 M16.39 73.51 C38.71 51.69, 55.56 30.92, 70.85 14.06 M18.15 73.45 C30.05 58.59, 42.08 44.5, 70.9 12.99 M21.6 73.83 C36.83 59.53, 49.91 44.07, 73.72 13.23 M22.44 74.88 C33.78 61.68, 44.62 49.17, 74.28 15.04 M23.72 75.81 C37.38 62.49, 51.73 48.18, 76.9 17.27 M25.52 77.19 C36.72 62.5, 49.88 49.99, 77.67 17.66 M30.17 77.24 C44.43 59.82, 63.86 39.26, 79.13 19.35 M29.42 77.84 C44.4 60.62, 60.51 42.72, 79.7 20.84 M34.34 81 C44.66 64.05, 59.32 50.95, 80.39 24.87 M33.15 80.1 C45.64 65.28, 58.06 51.95, 81.45 24.33 M35.91 81.21 C54.61 63.32, 68.67 46.76, 82.69 31.76 M37.7 81.46 C50.44 67.36, 62.33 53.05, 81.94 30.28 M41.58 79.51 C56.71 68.07, 65.94 53.03, 83.08 36.43 M43.45 80.35 C52.15 70.84, 62.32 60.14, 83.72 35.47 M47.47 82.06 C59.15 69.24, 68.35 58, 82.45 38.64 M49.25 81.32 C62.07 65.12, 76.42 49.55, 84.48 40.48 M52.48 79.06 C63 70.94, 68.44 64.22, 85.08 43.83 M54.49 80.98 C66.65 65.59, 77.95 52.51, 85.21 44.39 M59.28 78.2 C63.55 73.66, 72.78 68.26, 82.94 53.83 M60.77 79.65 C70.15 69.57, 78.38 60.24, 83.24 53.73 M12.33 69.65 C12.33 69.65, 12.33 69.65, 12.33 69.65 M12.33 69.65 C12.33 69.65, 12.33 69.65, 12.33 69.65 M26.29 75.6 C17.62 67.86, 9.96 63.11, 5.1 60.6 M24.44 74.76 C18.49 70.76, 14.42 66.28, 6.5 59.27 M35.33 80.54 C26.24 70.98, 16.57 61.7, 2.96 47.57 M34.89 79.43 C23.43 68.38, 10.69 58.5, 1.29 49.4 M39.05 79.43 C30.5 67.31, 19 60.45, 0.41 44.13 M41.06 78.7 C31.6 71.73, 23.44 63.56, 1.08 43.81 M46.41 78.05 C38.19 68.69, 26.7 63.76, 0.53 40.23 M45.31 77.09 C36.25 70.52, 26.06 60.8, 1.71 39.34 M50.82 78.42 C39.18 66.55, 27.87 58.04, 2.57 34.8 M51.03 77.58 C34.28 61.76, 16.62 46.34, 1.96 34.76 M58.31 78.59 C46.46 66.11, 35.1 59.39, 3.49 30.17 M57.47 77.6 C46.69 67.27, 33.36 55.57, 1.73 29.56 M61.09 75.09 C46.83 61.61, 29.61 50.77, 1.62 23.97 M62.01 75.88 C47.76 64.03, 34.91 53.16, 4.43 24.07 M63.79 71.96 C44.72 56.45, 26.94 40.2, 6.77 23.48 M65.04 73.72 C41.26 54.24, 18.57 33.68, 5.76 22.24 M68.5 71.31 C51.45 56.24, 32.91 41.16, 8.83 18.88 M67.75 69.93 C49.78 54.04, 31.17 38.27, 9 19.09 M72.64 67.11 C49.9 49.23, 30.69 31.8, 11.69 16.95 M72.66 68.87 C55.15 54.22, 38.98 39.89, 11.6 14.8 M75.9 64.24 C61.38 55.84, 46.58 43.21, 13.6 13.51 M75.21 65.89 C53.55 48.58, 33.02 31.23, 14.26 11.43 M79.05 61.71 C55.21 43.07, 27.83 20.94, 17.53 8.65 M79.33 62.75 C64.56 51.24, 49.71 37.65, 15.96 8.46 M80.58 57.74 C66.83 50.14, 56.06 38.94, 17.07 4.42 M78.71 59.14 C56.67 39.83, 33.21 18.16, 18.52 6.82 M82.36 54.82 C60.92 36.36, 42.72 19.06, 24.02 4.64 M81.18 53.96 C67.47 42.82, 52.02 32.1, 22.96 4.97 M81.74 48.94 C65.18 36.62, 49.85 25.77, 26.8 2.11 M81.48 50.89 C64.11 36.44, 47.21 21.3, 26.49 2.46 M84.66 46.66 C67.62 34, 49.7 16.47, 29.81 1.63 M83.07 45.79 C70.41 35.1, 59.53 25.77, 30.63 1.25 M84.56 40.27 C69.41 32.34, 57.9 21, 34.79 -2.17 M83.7 42.14 C66.89 26.29, 48.56 11.44, 35.24 -0.16 M82.18 36.23 C69.98 22.61, 57.81 12.44, 39.73 -1.69 M81.96 35.85 C69.18 23.39, 55.64 11.19, 40.13 -3.26 M82.34 26.9 C68.57 20.13, 56.7 8.19, 45.5 -1.97 M80.64 29.21 C73.92 23.52, 67.86 16.13, 46.32 -0.83 M81.37 23.76 C71.34 14.62, 65.28 8.72, 54.62 -0.08 M78.98 22.51 C69.42 13.61, 59.16 5.96, 53.6 -0.03" stroke="#51c4d3" stroke-width="0.5" fill="none"></path><path d="M60.7 3.9 C67.5 6.39, 74.6 13.03, 78.34 19.44 C82.08 25.84, 83.38 34.76, 83.14 42.3 C82.91 49.85, 81.1 58.8, 76.94 64.71 C72.78 70.63, 65.26 75.34, 58.18 77.79 C51.1 80.24, 42.16 80.83, 34.46 79.42 C26.76 78.01, 17.65 74.4, 11.98 69.35 C6.3 64.3, 2.05 56.23, 0.43 49.1 C-1.19 41.97, -0.46 33.46, 2.25 26.57 C4.96 19.68, 10.85 12.17, 16.69 7.76 C22.53 3.36, 29.16 0.22, 37.3 0.15 C45.43 0.09, 60.17 5.6, 65.5 7.39 C70.83 9.18, 69.65 10.28, 69.29 10.9 M50.27 1 C57.37 1.79, 67.01 7.5, 72.62 12.48 C78.22 17.45, 82.34 23.79, 83.88 30.86 C85.42 37.93, 84.41 47.94, 81.83 54.89 C79.25 61.85, 74.37 68.33, 68.41 72.59 C62.45 76.85, 53.82 80, 46.05 80.45 C38.28 80.9, 28.71 78.69, 21.8 75.28 C14.89 71.86, 8.32 66.01, 4.61 59.95 C0.9 53.88, -1.12 46.31, -0.46 38.89 C0.2 31.47, 4.05 21.32, 8.58 15.42 C13.11 9.51, 19.6 5.96, 26.72 3.45 C33.84 0.94, 47.33 0.71, 51.29 0.34 C55.25 -0.03, 50.87 0.66, 50.49 1.25" stroke="#000000" stroke-width="1" fill="none"></path></g><g transform="translate(386.2840432437399 385.0281766505062) rotate(0 37 22.5)"><text x="37" y="32" font-family="Virgil, Segoe UI Emoji" font-size="36px" fill="#000000" text-anchor="middle" style="white-space: pre;" direction="ltr">2</text></g><g stroke-linecap="round"><g transform="translate(454.04557774188106 362.48780892592106) rotate(0 30.200143828055047 -39.139263795781744)"><path d="M1.15 -1.18 C11.15 -14.4, 50.47 -66.22, 60.11 -79.1 M0.29 0.82 C10.15 -12.29, 49.14 -64.98, 59.33 -77.98" stroke="#000000" stroke-width="1" fill="none"></path></g><g transform="translate(454.04557774188106 362.48780892592106) rotate(0 30.200143828055047 -39.139263795781744)"><path d="M48.5 -48.77 C51.83 -59.59, 55.7 -68.97, 57.73 -78.47 M50.11 -48.78 C52.83 -61.21, 56.65 -71.87, 58.5 -78.08" stroke="#000000" stroke-width="1" fill="none"></path></g><g transform="translate(454.04557774188106 362.48780892592106) rotate(0 30.200143828055047 -39.139263795781744)"><path d="M32.16 -61.17 C40.57 -68.31, 49.49 -73.85, 57.73 -78.47 M33.77 -61.19 C42.77 -69.02, 52.8 -74.97, 58.5 -78.08" stroke="#000000" stroke-width="1" fill="none"></path></g></g><g stroke-linecap="round" transform="translate(512.2840432437399 370.0281766505062) rotate(0 42 40.5)"><path d="M9.03 14.47 C9.03 14.47, 9.03 14.47, 9.03 14.47 M9.03 14.47 C9.03 14.47, 9.03 14.47, 9.03 14.47 M5.76 26.38 C10.95 19.07, 12.71 15.5, 24.03 5.69 M4.58 25.84 C9.97 19.46, 15.05 12.48, 23.48 5.52 M1.3 34.71 C11.2 27.97, 16.46 16.64, 30.72 3.12 M0.33 36.99 C7.51 30.14, 13.86 22.37, 29.86 2.15 M3.42 39.42 C15.2 25.87, 25.96 11.08, 35.73 3.07 M1.69 40.29 C13.58 28.45, 25.58 15.14, 34.91 2.96 M2.13 44.27 C16.53 32.49, 25.52 19.97, 38.78 4.84 M1.85 45.38 C16.78 29.84, 29.34 13.74, 40.99 3.65 M3.34 50.34 C16.01 38.66, 28.14 22.27, 43.74 3.96 M2.42 51.47 C19.22 33.05, 33.15 16.33, 45.98 2.64 M6.01 57.19 C23.57 34.17, 38.93 15.92, 51.65 4.31 M4.91 57.18 C17.27 41.26, 31.69 25.01, 50.57 3.77 M6.64 60.72 C18.95 45.37, 32.08 28.23, 53.22 4 M7.53 59.09 C20.38 45.17, 33.54 28.33, 55.12 4.96 M9.11 61.59 C24.54 42.93, 44.68 23.93, 58.66 7.77 M9.35 62.87 C18.42 51.55, 28.4 38.88, 57.75 7.23 M11.71 67.56 C30.4 45.45, 51.71 23.58, 63.34 10.3 M11.61 66.25 C22.64 52.87, 34.61 40.53, 62.34 8.74 M14.36 68.85 C29.64 48.29, 46.94 29.78, 67.07 12.16 M13.29 69.16 C33.44 47.29, 52.7 25.83, 66.12 11.41 M18.29 71.8 C29.58 59.5, 39.59 45.97, 69.14 14.12 M17.1 71.97 C30.92 55.45, 46.52 38.3, 69.04 11.92 M19.96 75.74 C35.61 57.74, 48.01 39.16, 75.46 12.08 M19.67 75.13 C39 54.34, 56.27 32.3, 73.16 13.34 M23.4 77.83 C34.9 66.3, 43.55 52.82, 77.08 17.19 M22.27 78.67 C38.12 62, 51.9 44.52, 75.56 17.88 M28.06 79.72 C44.45 59.33, 60.21 40.58, 75.16 23.4 M26.9 79.53 C41.98 61.77, 58.2 44.29, 77.58 21.24 M30.64 79.92 C48.2 61.85, 62.32 43.25, 80.23 23.41 M30.51 80.64 C42.59 67.24, 53.57 53.74, 78.4 25.15 M36.14 80.18 C47.75 69.43, 58.19 56.74, 79.31 27.56 M36.26 79.99 C51.27 63.49, 66.07 46.45, 80.46 28.95 M41.03 80.86 C49.52 70.39, 61.56 57.94, 82.97 34.13 M41.14 82.64 C55.83 65.85, 70.22 48.34, 82.87 32.64 M44.36 83.26 C53.72 69.78, 62.89 61.82, 87.12 37.76 M45.25 83.83 C59.53 66.4, 74.36 48.55, 85.49 35.96 M51.49 79.8 C60.04 71.51, 65.99 66.16, 84.98 44.62 M51.94 79.77 C62.72 67.71, 73.13 55.92, 85.17 42.2 M60.07 79.41 C67.56 70.52, 73.36 65.07, 81.89 49.17 M60.05 77.73 C70.15 67.24, 78.54 56.31, 82.95 49.73 M20.13 75.92 C20.13 75.92, 20.13 75.92, 20.13 75.92 M20.13 75.92 C20.13 75.92, 20.13 75.92, 20.13 75.92 M26.71 75.96 C18.91 68.98, 12.21 61.85, 6.64 55.3 M28.51 78.13 C22.53 72.48, 16.07 66.36, 5.4 58.06 M37.35 81.58 C25.87 72.74, 13.57 62.34, 5.33 49.06 M36.76 78.96 C26.93 71.63, 17.05 62.56, 3.29 50.74 M41.67 80.27 C35.02 71.3, 24.58 62.87, 0.77 46.51 M43.93 80.54 C29.26 67.3, 14.2 54.3, 2.31 45.5 M46.36 77.86 C35.16 65.66, 20.46 52.83, 0.77 40.69 M48.73 78.19 C38.26 70.43, 29.22 61.54, 2.84 39.34 M51.71 78.43 C41.44 67.04, 27.78 57.03, 2.11 32.09 M52.54 78.12 C42 67.97, 31.01 57.73, 2.09 33.56 M54.73 75.16 C41.81 62.6, 25.05 46.04, 2.4 28.2 M56.85 75.05 C44.27 64.95, 33.29 55.08, 4.35 30.03 M60.25 73.22 C47.44 59.57, 29.84 46.62, 7.18 26.34 M60.71 73.7 C41.86 58.65, 22.44 41.82, 4.38 26.7 M65.77 74.65 C53.5 61.17, 39.41 50.28, 8.36 23.91 M65.89 72.48 C47.33 56.78, 30.11 41.65, 8.13 22.53 M67.67 67.88 C48.64 54.04, 31.39 38.4, 8.04 17.93 M67.36 69.57 C54.07 57.68, 40.42 45.68, 8.9 17.72 M69.77 67.93 C49.92 49.36, 30.62 29.21, 11.14 13.2 M70.2 65.87 C45.52 46.78, 22.34 24.47, 10.32 14.57 M74.73 63.98 C54.5 46.61, 34.19 29.31, 12.58 13.18 M73.29 63.26 C55.68 48.19, 35.53 32.06, 13.74 11.05 M76.65 59.55 C56.9 45.96, 36.9 26.24, 14.31 9.65 M76.25 61.48 C53.57 41.44, 30.28 20.8, 15.69 9.09 M80.23 59.42 C60.15 38.41, 36.28 23.74, 19.27 7.44 M78.87 57.66 C65.35 47.26, 54.9 37.12, 20.07 6.09 M79.11 55.79 C57.25 36.49, 36.93 14.94, 24.21 5.36 M79.82 53.28 C62.02 37.77, 42.08 20.2, 23.32 4.49 M80.52 48.51 C67.26 35.33, 48.88 21.42, 26.86 3.09 M81.56 49 C66.65 36.51, 52.28 24.41, 25.89 1.31 M83.65 43.3 C60.02 26.34, 42.33 8.8, 29.01 0.04 M81.05 45.6 C66.56 30.2, 50.12 16.17, 29.64 -0.25 M83.52 39.23 C68.86 26.11, 51.27 14.87, 34.7 0.84 M81.92 40.16 C70.84 29.8, 58.66 19, 36.33 -0.62 M81.36 35.01 C68.96 25.09, 58.87 13.76, 43.48 -2.3 M83.19 35 C70.49 26.46, 59.17 16.11, 41.22 -0.88 M86.99 31.16 C72.28 18.27, 57.29 6.24, 49.67 -0.22 M85.89 32.58 C74.81 22.62, 65.81 15.09, 48.59 -0.62 M79.11 22.99 C69.89 13.8, 60.1 6.6, 53.13 0.84 M79.78 21.16 C75.26 16.53, 69.04 12.47, 52.89 -1.68" stroke="#51c4d3" stroke-width="0.5" fill="none"></path><path d="M27.55 1.36 C34.24 -1.27, 44.26 -0.01, 51.87 1.99 C59.47 4, 67.99 8.12, 73.17 13.39 C78.35 18.65, 81.78 26.67, 82.93 33.57 C84.08 40.48, 82.94 48.24, 80.09 54.8 C77.23 61.35, 72 68.55, 65.81 72.89 C59.62 77.23, 50.54 80.34, 42.95 80.86 C35.35 81.38, 26.77 79.83, 20.24 76.02 C13.71 72.22, 7.09 64.76, 3.74 58.03 C0.4 51.31, -0.69 42.93, 0.19 35.67 C1.08 28.4, 3.89 20.26, 9.06 14.43 C14.23 8.6, 26.75 2.81, 31.21 0.69 C35.67 -1.42, 35.43 0.86, 35.83 1.75 M32.13 2.09 C38.75 -0.24, 46.99 0.19, 54.11 2.57 C61.22 4.96, 69.96 10.59, 74.84 16.37 C79.71 22.16, 82.66 30.24, 83.37 37.28 C84.09 44.32, 82.56 52.35, 79.12 58.61 C75.68 64.86, 69.15 71.2, 62.74 74.83 C56.33 78.46, 47.87 80.55, 40.65 80.4 C33.44 80.25, 25.81 78.11, 19.44 73.94 C13.08 69.76, 5.44 62.06, 2.47 55.34 C-0.51 48.62, 0.23 40.74, 1.59 33.62 C2.95 26.49, 5.71 18.16, 10.63 12.58 C15.54 7, 27.74 1.78, 31.09 0.13 C34.44 -1.51, 30.62 1.93, 30.74 2.71" stroke="#000000" stroke-width="1" fill="none"></path></g><g transform="translate(517.2840432437399 388.0281766505062) rotate(0 37 22.5)"><text x="37" y="32" font-family="Virgil, Segoe UI Emoji" font-size="36px" fill="#000000" text-anchor="middle" style="white-space: pre;" direction="ltr">3</text></g><g stroke-linecap="round" transform="translate(628.2840432437399 373.0281766505062) rotate(0 42 40.5)"><path d="M5.17 20.39 C5.17 20.39, 5.17 20.39, 5.17 20.39 M5.17 20.39 C5.17 20.39, 5.17 20.39, 5.17 20.39 M1.62 27.18 C11.94 21.22, 19.51 10.81, 23.01 5.85 M2.93 28.35 C9.79 21.77, 17.81 12.7, 23.87 4.88 M1.93 36.49 C10.05 29.15, 18.24 15.98, 28.54 7.09 M1.04 39.38 C7.55 30.26, 13.38 22.41, 27.6 8.01 M0.46 42.59 C13.24 29.83, 26.41 15.08, 34.86 6.49 M1.85 44.19 C12.13 32.29, 20.66 20.63, 33.38 5.3 M2.49 46.74 C13.84 34.19, 25.13 25.21, 39.38 6.04 M2.5 46.7 C10.28 39.16, 19.52 29.35, 39.58 3.8 M6.36 49.87 C19.2 34.7, 32.69 21.6, 47.08 2.27 M3.54 50.95 C14.49 40.66, 23.99 29.2, 48.66 0.31 M3.81 54.76 C24.96 36.52, 42.9 13.52, 53.61 3.47 M5.87 57.51 C22.32 36.76, 40.47 15.85, 52.94 2.9 M8.76 58.84 C22.18 41.82, 36.92 26.07, 57.95 4.45 M8.27 60.69 C27.33 37.82, 47.86 15.69, 55.94 4.04 M7.6 66.7 C24.94 48.06, 42.01 27.11, 61.41 7.25 M8.4 65.24 C25.47 44.77, 44.75 25.46, 60.06 5.56 M13.3 68.81 C28.21 51.68, 43.57 31.22, 65.17 5.23 M11.52 67.5 C26.23 52.01, 40.12 35.51, 64.82 7.11 M13.14 69.53 C30.12 53.37, 49.1 34.72, 67.15 8.48 M14.94 69.65 C26.4 58.67, 37.32 44.79, 68.45 9.83 M18.05 74.16 C35.44 50.5, 57.43 28.48, 72.88 10.41 M18.1 73.09 C32.74 55.62, 47.63 38.23, 71.35 11.27 M20.92 73.33 C36.21 57.86, 52.98 37.46, 74.36 15.38 M21.49 75.15 C36.73 56.08, 52.97 37.04, 73.77 13.39 M24.11 77.38 C40.46 59.18, 58.91 36.66, 77.61 16.6 M24.87 77.77 C37.6 62.23, 51 46.67, 75.91 16.64 M27 78.71 C45.36 57.56, 64.78 38.91, 76.89 20.47 M27.56 80.19 C41.89 64.01, 56.15 46.86, 78.95 20.75 M32.19 79.69 C44.63 66.23, 56.42 49.56, 81.53 25.22 M33.25 79.15 C43.36 67.52, 53.17 55.74, 80.48 25.62 M38.43 82.05 C50.41 63.7, 61.97 51.1, 82.23 29.31 M37.67 80.58 C51.05 64.95, 63.83 49.68, 81.53 30.02 M42.75 82.2 C54.26 66.74, 69.08 52.64, 81.19 34.77 M43.39 81.24 C55.93 64.91, 69.33 48.1, 83.4 35.27 M46.06 79.88 C58.75 71.87, 68.32 60.65, 84.32 40.82 M48.09 81.72 C58.12 67.68, 70.26 53.69, 82.49 41.16 M51.96 81.3 C61.94 73.06, 69.23 64.54, 84.81 46.78 M52.1 81.86 C59.43 73.68, 66.22 64.66, 82.65 45.19 M61.64 77.71 C69.71 67.87, 73.22 63.95, 83.34 53.67 M61.93 77.61 C67.64 69.06, 73.57 62.45, 84 52.46 M6.93 63.67 C6.93 63.67, 6.93 63.67, 6.93 63.67 M6.93 63.67 C6.93 63.67, 6.93 63.67, 6.93 63.67 M26.12 77.57 C21.51 73.11, 14.63 65.88, 3.47 54.66 M27.52 76.25 C18.86 69.82, 11.95 62.41, 5.19 56.82 M35.3 74.39 C23.34 68.69, 10.16 57.59, 3.07 49.19 M33.63 76.22 C23.6 67.44, 13.97 58.44, 2.17 48.85 M38.79 76.19 C28.92 66.85, 22.97 61.28, -0.27 40.31 M39.45 75.87 C22.94 62.83, 9.15 49.35, -0.98 41.43 M45.7 78.2 C35.42 67.59, 28.71 58.19, -0.83 36.41 M46.88 77.31 C29.38 62.86, 13.05 46.44, 1.27 37.21 M53.03 77.36 C39.35 64.76, 22.1 50.99, 2.06 33.77 M52.41 77.32 C33.85 61.89, 17.13 47.08, 2.34 32.6 M57.72 76.02 C43.13 64.07, 31.3 53.08, 2.69 29.52 M55.95 75.4 C37.19 59.04, 18.73 41.08, 2.89 28.9 M58.11 71.78 C44.44 62.61, 32.21 49.06, 5.08 22.86 M60.92 71.88 C46.47 59.2, 32.46 47.02, 3.62 23.89 M64.77 72.6 C46.32 56.12, 27.07 38.33, 6.6 18.77 M63.76 71.36 C42.75 53.44, 21.93 33.98, 5.59 19.89 M68.34 69.31 C51.77 53.83, 34.35 37.81, 7.13 17.22 M68.51 69.52 C54.1 57.05, 38.77 44.07, 8.05 17.19 M73.46 69.35 C55.39 55.58, 39.99 41.81, 13.12 14.27 M73.37 67.2 C55.97 53.87, 41.48 39.25, 11.18 15.56 M74.62 65.26 C52.35 44.45, 30.94 25.09, 14.5 10.52 M75.28 63.18 C56.69 49.16, 36.85 32.15, 13.72 12.95 M77.8 59.74 C55.25 41.04, 37.22 27.07, 16.34 10.89 M76.22 59.55 C54.64 42.21, 35.58 25.56, 17.27 9.59 M77.33 55.51 C57.47 37.93, 34.32 16.77, 21.15 7.76 M78.79 57.91 C59.25 39.86, 38.49 22.78, 21.36 7.47 M82.02 53.77 C65.26 42.58, 53.99 30.18, 22.07 6.11 M80.96 54.09 C66.31 41.88, 52.4 28.81, 23.21 3.77 M82.54 49.27 C69.16 38.91, 56.56 25.57, 29.48 1.89 M82.22 49.62 C65.85 34.52, 48.24 20.92, 29.13 3.54 M81.02 44.85 C62.03 26.58, 44.85 10.78, 32.84 1.31 M81.83 44.47 C70.2 34.81, 59.74 25.35, 32.98 1.33 M81.47 37.11 C67.26 23.63, 51.08 10.31, 39.09 2.48 M81.92 39.12 C69.18 28.62, 56.94 17.77, 39.33 1.12 M81.89 33.66 C73.58 27.62, 64.17 18.55, 45.31 0.63 M82.28 32.09 C70.76 22.33, 58.85 13.7, 42.7 -0.18 M79.34 26.15 C66.27 17.78, 55.6 4.23, 49.51 -0.85 M80.17 27.3 C68.32 16.86, 55.8 6.36, 49.17 -1.28 M74.11 15.59 C71.8 12.07, 68.2 7.81, 59.63 2.11 M73.14 15.64 C70.18 11.76, 65.56 9.61, 59.92 4.1" stroke="#51c4d3" stroke-width="0.5" fill="none"></path><path d="M24.15 4.83 C30.58 1.23, 39.86 -0.67, 47.34 -0.1 C54.82 0.47, 63.42 3.65, 69.02 8.25 C74.62 12.84, 78.8 20.56, 80.95 27.49 C83.11 34.42, 83.69 42.81, 81.93 49.84 C80.17 56.87, 75.74 64.73, 70.39 69.68 C65.04 74.64, 57.42 78.2, 49.84 79.56 C42.27 80.92, 32.14 80.53, 24.93 77.83 C17.73 75.14, 10.92 69.52, 6.63 63.4 C2.33 57.29, -0.65 48.35, -0.85 41.13 C-1.04 33.9, 0.84 26.31, 5.46 20.06 C10.08 13.81, 22.65 6.63, 26.87 3.63 C31.09 0.63, 30.59 1.47, 30.78 2.07 M50.21 0.84 C57.47 1.68, 66.5 5.74, 72.11 10.64 C77.73 15.54, 82.29 23.24, 83.9 30.26 C85.51 37.29, 84.49 45.78, 81.78 52.79 C79.08 59.8, 73.7 67.4, 67.68 72.3 C61.66 77.19, 53.09 81.56, 45.67 82.16 C38.24 82.75, 29.89 79.24, 23.13 75.87 C16.36 72.49, 8.87 68.16, 5.06 61.89 C1.26 55.61, -0.06 45.74, 0.31 38.21 C0.68 30.68, 3.17 22.76, 7.29 16.72 C11.41 10.67, 17.84 4.76, 25.02 1.95 C32.2 -0.86, 46.33 -0.28, 50.36 -0.13 C54.39 0.03, 49.46 2.16, 49.19 2.88" stroke="#000000" stroke-width="1" fill="none"></path></g><g transform="translate(633.2840432437399 391.0281766505062) rotate(0 37 22.5)"><text x="37" y="32" font-family="Virgil, Segoe UI Emoji" font-size="36px" fill="#000000" text-anchor="middle" style="white-space: pre;" direction="ltr">4</text></g><g stroke-linecap="round"><g transform="translate(639.2840432437401 370.0281766505062) rotate(0 -27.22828567848535 -43.4566536538303)"><path d="M-0.78 0.25 C-9.83 -14.2, -45.45 -72.75, -54.68 -87.16 M1 -0.67 C-8.13 -14.88, -46.31 -71.13, -55.46 -85.7" stroke="#000000" stroke-width="1" fill="none"></path></g><g transform="translate(639.2840432437401 370.0281766505062) rotate(0 -27.22828567848535 -43.4566536538303)"><path d="M-31.01 -67.23 C-37.96 -74.62, -42.73 -78.42, -53.84 -84.7 M-31.09 -68.26 C-37.86 -72.71, -45.63 -78.69, -55.85 -85.23" stroke="#000000" stroke-width="1" fill="none"></path></g><g transform="translate(639.2840432437401 370.0281766505062) rotate(0 -27.22828567848535 -43.4566536538303)"><path d="M-48.17 -55.97 C-50.54 -66.22, -50.77 -73, -53.84 -84.7 M-48.25 -57 C-49.79 -64.97, -52.39 -74.34, -55.85 -85.23" stroke="#000000" stroke-width="1" fill="none"></path></g></g><g stroke-linecap="round"><g transform="translate(547.2840432437401 360.0281766505062) rotate(0 -0.5894288552412945 -32.47180514410138)"><path d="M0.16 0.79 C0.15 -10.3, -0.21 -54.63, -0.15 -65.73 M-1.22 0.15 C-1.39 -10.86, -1.39 -53.72, -1.18 -64.57" stroke="#000000" stroke-width="1" fill="none"></path></g><g transform="translate(547.2840432437401 360.0281766505062) rotate(0 -0.5894288552412945 -32.47180514410138)"><path d="M10.17 -36.55 C4.53 -43.64, 1.44 -52.3, -1.48 -64.49 M9.52 -35.97 C7.45 -43.3, 4.83 -48.52, -1.37 -64.58" stroke="#000000" stroke-width="1" fill="none"></path></g><g transform="translate(547.2840432437401 360.0281766505062) rotate(0 -0.5894288552412945 -32.47180514410138)"><path d="M-10.35 -36.72 C-10 -43.78, -7.12 -52.39, -1.48 -64.49 M-11 -36.14 C-8.63 -43.39, -6.8 -48.57, -1.37 -64.58" stroke="#000000" stroke-width="1" fill="none"></path></g></g><g stroke-linecap="round"><g transform="translate(167.28404324374014 321.0281766505062) rotate(0 93.73205231502652 -1.6614916954329146)"><path d="M-0.46 0.62 C30.68 0.14, 156.33 -1.79, 187.92 -2.23 M1.5 -0.1 C32.38 -0.98, 155.7 -3.32, 186.93 -3.95" stroke="#000000" stroke-width="1" fill="none"></path></g><g transform="translate(167.28404324374014 321.0281766505062) rotate(0 93.73205231502652 -1.6614916954329146)"><path d="M159.99 6.74 C171.08 4.56, 182.32 0.22, 188.31 -2.64 M159.28 7.01 C166.68 3.48, 173.58 2.31, 186.76 -3.27" stroke="#000000" stroke-width="1" fill="none"></path></g><g transform="translate(167.28404324374014 321.0281766505062) rotate(0 93.73205231502652 -1.6614916954329146)"><path d="M159.59 -13.78 C170.96 -7.95, 182.35 -4.29, 188.31 -2.64 M158.88 -13.51 C166.2 -11.97, 173.2 -8.08, 186.76 -3.27" stroke="#000000" stroke-width="1" fill="none"></path></g></g><g transform="translate(208.28404324374014 271.5281766505062) rotate(0 56.5 20)"><text x="0" y="30" font-family="Virgil, Segoe UI Emoji" font-size="28px" fill="#000000" text-anchor="start" style="white-space: pre;" direction="ltr"></text></g></svg>