<svg version="1.1" xmlns="http://www.w3.org/2000/svg" viewBox="0 0 404.04241650637454 347.81235803255254" width="404.04241650637454" height="347.81235803255254">
  <!-- svg-source:excalidraw -->
  
  <defs>
    <style>
      @font-face {
        font-family: "Virgil";
        src: url("https://excalidraw.com/Virgil.woff2");
      }
      @font-face {
        font-family: "Cascadia";
        src: url("https://excalidraw.com/Cascadia.woff2");
      }
    </style>
  </defs>
  <rect x="0" y="0" width="404.04241650637454" height="347.81235803255254" fill="#ffffff"></rect><g stroke-linecap="round" transform="translate(43.042416506374536 36.31235803255254) rotate(0 42 40.5)"><path d="M5.45 20.64 C5.45 20.64, 5.45 20.64, 5.45 20.64 M5.45 20.64 C5.45 20.64, 5.45 20.64, 5.45 20.64 M1.99 30.04 C11.96 18.25, 17.74 12.98, 24 4.87 M3.23 28.34 C8.98 23.15, 12.98 17.61, 24.81 5.45 M3.05 36.38 C7.25 31.31, 15.41 23.89, 30.08 4.06 M2.29 36.22 C12.12 24.51, 24.46 12.74, 30.02 3.99 M1.46 44.51 C12.61 34.19, 23.01 19.49, 38.45 4.48 M2.16 43.51 C7.63 35.14, 16.01 26.21, 36.4 2.88 M3.21 49.2 C14.15 32.21, 24.39 21.58, 44.48 -0.13 M2.7 47.12 C14.31 35.09, 24.73 21.06, 43.38 0.83 M4.17 51.47 C14.22 40.24, 22.32 32.67, 46.15 3.3 M5.38 52.3 C20.26 32.97, 37.54 14.67, 47.51 2.19 M5.1 56.93 C22.74 33.6, 41.59 16.08, 49.87 3.09 M6.59 55.6 C21.48 39.21, 36.97 21.91, 52.63 3.46 M8.87 60.93 C21.4 44.24, 33.81 29.1, 54.2 4.89 M9.18 60.76 C25.19 40.66, 42.48 20.76, 55.89 4.09 M11.56 63.41 C22.49 51.2, 32.63 36.34, 59.76 8.61 M9.84 64.24 C29.35 40.92, 48.13 18.95, 59.97 6.11 M14.88 66.28 C32.33 44.51, 51.55 23.28, 61.61 9.24 M13.9 67.29 C24.93 51.86, 37.48 37.86, 63.75 9.65 M17.37 68.85 C28.09 56.22, 41.04 37.45, 66.37 10.01 M16.78 70.01 C28.27 55.49, 41.21 40.73, 67.8 10.73 M17.48 74.13 C28.9 59.4, 42.09 46.9, 72.75 12.27 M19.41 72.42 C29.48 58.95, 41.23 44.65, 71.17 11.89 M23.35 73.23 C40.15 53.84, 55.34 36.88, 71.93 16.35 M22.33 75.54 C35.31 59.04, 47.06 45.04, 74.09 15.67 M24.63 75.5 C43.97 52.82, 66.84 29.87, 76.01 19.39 M25.78 76.14 C41.1 61.18, 54.61 43.86, 74.78 19.23 M28.94 78.4 C38.74 65.75, 51.08 53.96, 76.57 23.07 M28.54 79.38 C45.95 58.53, 63.94 38.79, 78.24 22.65 M34.91 79.6 C51.02 58.47, 68.99 35.84, 81 26.88 M33.23 79.55 C49.4 60.32, 66.51 43.02, 80.98 24.98 M38.82 81.66 C46.51 70.25, 56.57 58.88, 85.09 30.08 M39.27 79.45 C50.51 65.85, 61.95 52.62, 83.85 28.82 M44.22 79.34 C52.03 67.32, 63.78 57.73, 82.08 36.26 M42.82 80.42 C57.38 64.71, 70.18 48.95, 83.44 33.63 M47.12 80.78 C55.91 70.66, 67 60.28, 85.05 40.5 M48.31 80.14 C56.36 71.25, 65.47 62.09, 84.79 39.51 M54.47 83.08 C63.21 70.33, 75.19 55.51, 84.86 46.22 M53.17 80.95 C62.89 71.23, 70.89 60.95, 83.6 44.81 M62.47 74.92 C71.97 67.45, 78.91 58.74, 82.5 50.59 M62.52 77.16 C67.82 70.04, 75.45 62.17, 84.97 52.16 M9.11 64.21 C9.11 64.21, 9.11 64.21, 9.11 64.21 M9.11 64.21 C9.11 64.21, 9.11 64.21, 9.11 64.21 M28.84 76.52 C22.35 68.89, 18.57 65.82, 6.87 55.96 M28.62 75.5 C24.37 72.04, 19.21 67.31, 5.22 56.55 M36.41 75.88 C26.62 67.1, 15.41 58.97, 2.04 46.75 M35.24 76.51 C25.25 67.5, 14.64 58.73, 1.63 47.3 M41.43 76.55 C29.66 65.28, 14.64 53.41, -0.53 42.35 M41.08 76.64 C26.46 63.43, 10.74 50.47, 1.77 41.52 M49.62 79.29 C33.06 66.02, 20.77 50.25, 1.85 35.21 M51.52 78.43 C33.85 65.69, 18.64 51.28, 3.22 36.23 M54.36 76.66 C40.76 65.06, 25.71 51.53, 3.21 34.03 M53.85 76.71 C39.1 63.51, 22.98 49.9, 3.97 33.42 M56.95 74.3 C43.16 62.97, 24.8 49.5, 4.53 26.57 M57.87 74.62 C43.55 62.05, 30.46 49.79, 4.38 27.49 M61.08 71.35 C47.72 60.21, 29.56 45.34, 6.65 24.61 M62.69 72.65 C46.22 58.88, 28.26 44.21, 6.38 24.93 M67.55 69.92 C46.04 53.46, 22.04 31.54, 5.34 18.74 M65.78 70.81 C50.66 57.38, 36.05 45.23, 6.86 19.79 M68.87 69.99 C46.41 49.64, 23.13 30.05, 7.97 18.62 M69.79 70.25 C57.92 57.9, 44.85 47.3, 8.68 16.61 M73.85 65.62 C56.84 54.52, 42.61 42.65, 12.87 12.55 M73.57 66.12 C53.44 50.68, 35.55 33.75, 12.29 14.71 M73.79 62.45 C55.53 46.74, 39.14 33.36, 13.93 11.64 M74.6 63.77 C59.12 51.2, 44.47 38.48, 14.67 11.02 M76.07 59.25 C63.21 46.5, 46.65 34.69, 19.5 7.98 M76.9 61 C59.89 44.38, 41.1 28.3, 18.59 8.96 M79.51 55.52 C62.86 41.9, 48.47 29.33, 21.54 4.28 M78.72 56.34 C65.59 45.32, 54.05 34.16, 21.96 6.73 M82.77 50.95 C67.36 41.51, 51.91 27.11, 23.93 1.3 M81.25 53.2 C69.53 41.27, 57.02 31.38, 24.57 3.51 M84.48 49.71 C73.39 38.34, 58.79 29.62, 29.68 0.79 M83.06 48.81 C68.7 35.5, 53.73 23.67, 29.52 2.94 M80.8 41.96 C66.51 28.78, 49.66 11.93, 34.96 0.4 M81.98 42.48 C71.99 33.84, 61.82 24.98, 33.64 0.9 M83.43 36.64 C69.95 25.8, 54.46 13.21, 39.53 -1.52 M83.37 37.07 C68.82 25.75, 54.13 14.69, 40.17 0.85 M84.59 31.14 C69.15 20.34, 52.1 8.62, 44.63 0.32 M83.51 33.26 C74.88 26, 67.09 19.46, 45.01 -1.17 M82.73 24.8 C72.7 19.57, 65.55 14.13, 48.05 -2.96 M81.54 25.87 C73.56 17.88, 64.07 12.12, 48.05 -2.98" stroke="#f1939c" stroke-width="0.5" fill="none"></path><path d="M23.05 4.68 C29.17 0.91, 38.37 -0.56, 45.85 0.25 C53.32 1.07, 61.99 5.22, 67.9 9.56 C73.81 13.91, 78.94 19.56, 81.3 26.31 C83.65 33.05, 83.73 42.86, 82.04 50.04 C80.34 57.22, 76.4 64.45, 71.12 69.38 C65.84 74.31, 57.74 78.17, 50.38 79.6 C43.01 81.02, 33.86 80.54, 26.94 77.93 C20.02 75.33, 13.28 69.84, 8.84 63.97 C4.39 58.1, 0.84 49.96, 0.29 42.72 C-0.26 35.48, 1.76 27.05, 5.52 20.55 C9.29 14.05, 19.69 6.42, 22.86 3.72 C26.03 1.02, 23.98 3.75, 24.54 4.36 M35.58 0.06 C42.66 -1.81, 51.12 -0.16, 58.07 3.06 C65.03 6.29, 72.78 13.34, 77.3 19.4 C81.83 25.46, 85.03 32.53, 85.22 39.42 C85.42 46.32, 82.5 54.33, 78.47 60.76 C74.45 67.19, 68.04 74.55, 61.08 78 C54.12 81.45, 44.41 82.76, 36.72 81.48 C29.03 80.2, 20.76 75.19, 14.93 70.32 C9.09 65.45, 3.8 58.93, 1.69 52.27 C-0.42 45.6, -0.09 37.48, 2.25 30.34 C4.6 23.19, 10.43 14.55, 15.77 9.38 C21.1 4.21, 31.13 0.65, 34.26 -0.66 C37.39 -1.98, 34.06 0.61, 34.55 1.5" stroke="#000000" stroke-width="1" fill="none"></path></g><g stroke-linecap="round" transform="translate(302.04241650637454 31.812358032552538) rotate(0 42 40.5)"><path d="M6.56 17.63 C6.56 17.63, 6.56 17.63, 6.56 17.63 M6.56 17.63 C6.56 17.63, 6.56 17.63, 6.56 17.63 M5.58 28.4 C11.79 18.51, 17.09 11.5, 21.3 4.82 M4.02 27.51 C10.89 18.83, 18.06 10.47, 23.16 5.65 M0.4 36.95 C10.16 26.56, 19.9 15.11, 26.66 5.16 M1.37 36.04 C7.97 28.49, 17.29 18.16, 26.84 6.03 M0.1 43.62 C8.13 34.36, 17.26 23.78, 33.97 3.77 M2.06 42.86 C10.89 30.9, 20.03 20.67, 32.34 5.12 M4.64 45.33 C12.98 38.91, 18.83 26.96, 40.23 3.19 M2.44 46.7 C18.49 30.44, 32.66 12.21, 39.75 3.07 M3.08 53.09 C18.97 32.44, 37.42 10.71, 49.4 -0.38 M3.33 50.72 C12.3 41.72, 22.54 30.39, 47.65 0.86 M3.73 55.34 C14.79 41.77, 27.81 31.03, 50.75 4.43 M4.89 56.19 C17.14 42.98, 27.63 29.25, 52.17 2.08 M7.8 59.1 C20.3 46.49, 30.95 32.15, 54.07 3.84 M6.89 59.92 C22.37 42.42, 38.39 25.54, 54.94 2.99 M10.22 62.86 C23.14 46.04, 36.85 28.15, 58.23 7.21 M8.3 63.48 C17.92 52.24, 28.85 40.56, 60.25 5.08 M9.82 67.93 C28.42 49.73, 41.35 31.55, 62.53 8.34 M12.07 66.83 C27.24 48.99, 42.66 30.77, 63.16 6.67 M16.31 70.59 C33.21 48.07, 53.7 23.18, 66.97 7.61 M14.86 68.83 C27.44 54.27, 39.4 39.54, 66.4 9.4 M15.71 73.69 C37.05 49.92, 58.33 25.95, 71.78 10.37 M17.15 73.14 C35.63 51.89, 52.02 31.17, 70.63 10.89 M19.3 76.05 C38.61 53.75, 56.55 30.7, 70.99 15.56 M20.83 73.91 C35.27 56.81, 49.96 40.92, 72.7 13.72 M23.09 74.81 C35.88 61.39, 48.87 46.98, 75.22 18.3 M23.45 76.45 C37.69 59.8, 51.78 43.26, 75.08 18.29 M28.13 79.58 C40.64 64.01, 57.55 44.88, 78.66 21.55 M27.1 79.7 C38.62 65.55, 50.14 52.45, 77.57 20.83 M32.58 81.53 C45.46 62.91, 60.93 47.11, 79.21 25.73 M31.27 79.64 C44.87 66.04, 57.74 50.52, 80.11 25.3 M36.74 79.3 C45.86 71.66, 54.86 59.18, 81.37 27.86 M36.49 81.51 C47.24 69.77, 58.78 57.21, 82.39 28.84 M40.47 79.12 C52.06 67.37, 67.16 51.83, 83.79 31.88 M40.52 80.21 C54.07 65.71, 68.31 50.22, 86.04 30.45 M46.81 81.18 C57.76 69.36, 68.26 57.26, 84.89 37.86 M46.56 81.03 C59.92 66.41, 72.54 51.57, 84.93 36.48 M52.12 83.47 C59.94 70.31, 70.9 61.24, 85.51 43.55 M52.17 81.77 C62.97 68.28, 73.48 56.21, 84.6 42.45 M60.96 76.45 C67.71 68.63, 74.49 59.66, 85.34 51.5 M60.77 77.74 C66.77 72.24, 71.33 64.35, 85.25 50.58 M7.44 63.08 C7.44 63.08, 7.44 63.08, 7.44 63.08 M7.44 63.08 C7.44 63.08, 7.44 63.08, 7.44 63.08 M26.68 72.63 C21.3 66.49, 10.78 62.31, 5.79 53.67 M26.39 73.93 C17.74 65.99, 8.75 58.85, 4.33 56.45 M32.83 73.94 C23.76 64.84, 11.58 59.06, 3.12 47.63 M33.05 73.94 C23.76 66.87, 12.84 58.4, 2.1 47.28 M41.55 75.06 C25.96 66.72, 14.08 56.37, 0.94 39.52 M39.81 76.26 C31.15 66.85, 21.15 59.43, -1.23 41.21 M51.25 79.94 C32.73 61.64, 14.4 47.47, 0.36 35.48 M48.69 79.55 C34.04 64.68, 18.88 52.22, -0.34 35.95 M52.73 76.34 C42.14 66.83, 28.16 53.93, 3.05 31.59 M53.92 77.17 C34.13 59.6, 13.29 41.36, 2.66 32.86 M58.01 74.04 C44.81 60.98, 27.05 47.44, 2.41 28.19 M57.41 75.74 C39.34 57.66, 19.26 40.22, 4.07 27.6 M60.27 71.5 C42.26 52.57, 18.1 35.54, 3.23 21.68 M61.47 72.06 C45.97 58.27, 30.78 46.09, 4.95 24.23 M65.09 70.24 C44.81 53.04, 22.9 34.55, 5.52 21 M64.63 71.88 C43.45 50.46, 20.65 31.24, 5.64 20 M68.74 70.02 C53.21 56.05, 32.28 40.42, 9.64 16.74 M68.72 69.32 C52.23 53.51, 34.8 38.93, 7.58 16.8 M70.61 65.26 C52.69 51.55, 34.63 35.65, 10.68 12.32 M71.9 65.64 C49.57 46.44, 27.59 27.12, 10.37 12.63 M75.83 63.5 C55.2 44.78, 34.66 30.69, 14.59 11.72 M74.02 63.98 C61.38 51.49, 49.08 41.81, 14.62 11.62 M76.88 59.85 C56.13 41.63, 32.88 22.84, 17.28 7.3 M76.9 60.19 C63.7 48.52, 49.34 36.53, 17.68 8.21 M80.97 56.12 C54.86 39.05, 31.96 18.64, 21.81 4.92 M78.41 56.2 C56.38 38.07, 34.56 17.83, 21.53 6.58 M80.42 51.98 C57.31 35.03, 35.2 12.84, 24.42 2.4 M81.5 53.52 C61.54 36.15, 41.74 19.52, 23.58 3.35 M86.51 50.71 C62.26 32.29, 43.13 14.09, 30.99 1.93 M84.82 51.3 C61.95 30.77, 40.58 13.89, 29.71 2.4 M84.63 43.06 C67.97 29.82, 54.13 18.21, 36.13 1.97 M84.44 44.51 C65.14 28.28, 46.81 11.3, 36.08 3.03 M82.93 38.86 C70.33 28.44, 56.16 16.65, 39.53 1.63 M85.3 39.88 C68.95 26.55, 54.54 14.61, 40.21 0.66 M83.9 36.37 C70.99 20.71, 56.7 9.93, 43.87 -1.53 M85.39 35.52 C72.35 24.51, 61.44 13.93, 45.52 0.92 M82.99 28.63 C74.95 22.87, 68.24 16.01, 49.95 0.29 M83.13 29.6 C72.15 19.03, 60.16 7.96, 49.18 -2.19 M74.88 14.75 C71.03 10.58, 64.17 7.6, 62.63 2.44 M74.35 15.78 C69.61 10.9, 66.03 7.48, 61.03 4.83" stroke="#51c4d3" stroke-width="0.5" fill="none"></path><path d="M47.44 0.02 C54.76 0.39, 64.25 5.5, 70.18 10.29 C76.12 15.08, 81.01 21.71, 83.04 28.76 C85.07 35.81, 84.66 45.68, 82.36 52.6 C80.06 59.52, 74.84 65.8, 69.24 70.29 C63.63 74.79, 56.28 78.45, 48.74 79.59 C41.21 80.72, 30.92 79.87, 24.04 77.12 C17.16 74.37, 11.55 69.18, 7.46 63.09 C3.37 57.01, -0.31 48.15, -0.49 40.62 C-0.68 33.09, 2.18 24.05, 6.33 17.9 C10.47 11.76, 17.01 6.51, 24.36 3.75 C31.71 0.99, 45.71 1.49, 50.44 1.36 C55.17 1.23, 53.11 2.27, 52.74 2.96 M58.57 4.5 C65.59 6.26, 72.45 10.75, 76.73 16.6 C81.01 22.46, 84.11 32.22, 84.26 39.64 C84.41 47.05, 81.64 54.89, 77.64 61.11 C73.64 67.33, 66.82 73.69, 60.25 76.94 C53.67 80.2, 45.72 81.33, 38.21 80.62 C30.71 79.92, 21.31 77.62, 15.22 72.72 C9.13 67.82, 4.2 58.25, 1.66 51.24 C-0.88 44.24, -2.22 37.71, -0.01 30.68 C2.19 23.64, 9.09 14.06, 14.9 9.05 C20.71 4.03, 27.37 1.64, 34.85 0.59 C42.34 -0.46, 56.05 2.13, 59.81 2.75 C63.58 3.38, 57.81 3.74, 57.44 4.33" stroke="#000000" stroke-width="1" fill="none"></path></g><g stroke-linecap="round" transform="translate(50.042416506374536 255.81235803255254) rotate(0 42 40.5)"><path d="M9.56 14.94 C9.56 14.94, 9.56 14.94, 9.56 14.94 M9.56 14.94 C9.56 14.94, 9.56 14.94, 9.56 14.94 M2.6 28.33 C10.96 21.52, 17.7 14.69, 21.48 5.85 M3.79 28.07 C9.34 20.41, 15.67 12.92, 22.34 6.82 M3.08 35.24 C9.17 26.72, 16.22 18.25, 28.78 1.74 M1.39 36.41 C13.24 22.65, 23.7 10.85, 31.54 3.7 M2.16 42.76 C12.92 26.99, 26.22 12.67, 34.73 4.18 M1.91 41.46 C10.84 30.96, 20.17 20.44, 36.56 1.98 M4.05 45.37 C16.56 28.99, 31.5 16.02, 43.71 1.17 M2.94 46.27 C19.87 28.09, 33.56 10.12, 42.03 1.42 M5.29 50.87 C15.3 38.96, 25.27 25.69, 48.64 0.48 M5.31 51.14 C17.09 37.87, 29.88 22.94, 46.84 1.63 M5.93 55.3 C24.87 33.78, 41.72 13.58, 52 1.69 M4.6 57.14 C17.98 40.45, 32.63 23.98, 53.48 0.78 M7.96 62.55 C22.23 39.73, 41.63 22.47, 55.82 5.69 M5.85 60.44 C17.1 49.25, 28.26 35.46, 56.34 3.76 M8.44 64.98 C22.38 50.38, 31.96 36.82, 59.86 4.14 M9.01 63.62 C26.41 43.91, 44.48 22.32, 60.16 6.38 M12.04 65.84 C26.68 48.69, 43.52 33.24, 63.62 9.48 M11.79 66.77 C30.33 45.11, 47.98 24.89, 64.43 8.02 M14.68 68.33 C25.36 56.88, 39.71 42.85, 66.04 8.49 M15.66 69.24 C34.93 47.03, 54.22 25.81, 67.36 9.92 M16.13 74.02 C37.87 48.28, 60.12 25.34, 70.63 10.92 M16.68 72.76 C35.58 51.44, 55.64 27.85, 71.3 12.46 M19.7 76.45 C30.55 62.52, 41.33 50.26, 71.99 13.66 M19.58 75.7 C30.89 64.41, 41.91 51.78, 73.62 14.02 M22.75 76.76 C38.11 62.25, 52.95 46.02, 74.83 19.06 M24.51 77.41 C40.96 58.74, 56.18 39.96, 76.02 18.03 M27.14 79.84 C45.46 58.2, 62.7 38.05, 75.85 23.32 M27.88 79.04 C46.31 58.78, 63.69 37.41, 76.71 22 M33.73 77.43 C43.72 68.66, 52.22 56.64, 80.12 25.86 M33.1 79.37 C43.18 66.55, 53.57 53.56, 79.14 25.62 M39.4 80.75 C54.07 62.82, 70.38 43.66, 80.32 28.74 M37.97 80.05 C45.92 70.74, 55.66 60.52, 81.49 28.79 M41.61 82.36 C52.24 70.98, 59.62 60.05, 85.07 33.47 M41.52 82.24 C53.7 67.93, 66.18 53.57, 83.38 33.22 M45.48 83.08 C55.26 70.53, 65.96 58.17, 85.46 37.18 M45.41 84.13 C61.72 65.62, 77.23 46.81, 86.7 37.23 M53.49 79.27 C62.53 67.48, 72.4 59.65, 86.23 43.49 M53.93 78.97 C61.75 72.06, 68.48 62.12, 85.03 43.3 M60.2 76.62 C69.73 70.32, 76.63 62.21, 83.41 49.86 M61.08 77.51 C66.69 71.75, 71.37 65.77, 85.69 50.12 M19.71 76.4 C19.71 76.4, 19.71 76.4, 19.71 76.4 M19.71 76.4 C19.71 76.4, 19.71 76.4, 19.71 76.4 M25.63 76.51 C21.29 74.92, 17 67.96, 3.21 58.05 M26.67 78.79 C22.2 72.63, 15.98 68.17, 5.26 58.27 M35.08 81.2 C28.99 73.05, 21.9 69.61, 5.59 53.33 M35.47 80.91 C28.54 72.44, 18.34 64.51, 3.34 51.59 M42.72 81.98 C27.9 70.52, 15.6 55.95, 2.82 47.31 M44.26 81.57 C28.62 67.92, 13.62 54.14, 3.64 44.75 M49.15 81.16 C27.88 63.61, 9.88 46.01, 1.36 38.36 M47.72 79.37 C35.68 68.75, 23.41 57.99, 0.64 39.54 M51.05 77.4 C35.69 65.03, 17.82 48.11, 1.88 33.86 M52.11 77.6 C38.89 67.28, 27.54 55.51, 1.3 33.26 M57.84 75.47 C37.93 59.12, 19.21 41.68, 2.4 29.06 M56.15 76.65 C42.77 64.31, 30.6 54.66, 2.52 30.26 M62.47 76.33 C48.3 64.79, 36 52.17, 4.88 26.07 M60.25 74.78 C46.13 63.31, 32.59 49.99, 4.04 25.62 M64.63 72.09 C42.22 55.09, 20.17 35.59, 8.34 21.92 M63.95 73.78 C45.76 57.13, 25.72 40.07, 5.94 21.9 M69.07 72.14 C48.84 56.7, 33.13 41.48, 9.79 17.49 M68.54 71.8 C53.47 58.09, 39.63 45.84, 7.75 18.78 M70.27 67.43 C55.77 54.45, 43.52 43.28, 10.56 15.75 M70.11 68.23 C52.17 51.3, 32.28 34.71, 9.19 13.94 M71.53 65.25 C52.34 46.72, 31.21 24.3, 11.96 12.57 M72.9 65.32 C54.39 48.31, 35.2 32.72, 12.14 12.59 M75.36 63.52 C55.07 43.96, 35.74 27.5, 17.34 11.67 M76.02 63.02 C60.99 48.04, 45 34.43, 16.96 9.11 M80.35 59.67 C65.05 47.53, 50.84 34.8, 18.79 6.13 M78.62 58.62 C66.91 47.81, 54.42 37, 19.55 7.22 M80.79 57.45 C63.44 40.74, 49.79 26.03, 21.95 7.24 M81.86 56.22 C65.38 40.38, 47.49 25.65, 22.48 5.54 M80.55 53.22 C62.82 32.43, 41.94 15.98, 25.2 3.39 M83.06 51.73 C71.67 40.97, 60.57 30.75, 26.41 3.2 M83.73 45.38 C71.43 36.15, 56.26 22.45, 30.74 -1.03 M82.67 46.95 C69.75 35.57, 57.43 23.77, 29.58 1.34 M83 43.34 C70.29 28.33, 57.18 16.11, 34.75 -0.16 M82.94 41.27 C65.46 25.18, 48.69 11.25, 36.23 1.33 M84.98 36.37 C70.32 25.16, 52.9 9.28, 40.68 -0.31 M83.61 37.17 C71.89 26.94, 59.6 14.76, 42.23 -0.18 M86.14 33.12 C70.68 18.77, 57.27 7.41, 46.5 1.39 M84.1 32.47 C75.14 22.45, 64.66 14.08, 48.62 0.77 M79.59 21.29 C69.11 15.74, 59.96 6.9, 54.71 0.05 M80.64 22.64 C74.31 17.47, 67.53 11.56, 53.94 -0.86" stroke="#4f383e" stroke-width="0.5" fill="none"></path><path d="M29.59 1.5 C36.29 -1.36, 45.56 -0.87, 52.65 1.05 C59.74 2.97, 67 7.52, 72.12 13.02 C77.25 18.51, 81.89 26.68, 83.42 34.02 C84.95 41.37, 84.1 50.59, 81.32 57.08 C78.53 63.57, 72.93 68.84, 66.71 72.96 C60.5 77.08, 51.92 81.26, 44.05 81.8 C36.17 82.34, 26.1 79.95, 19.46 76.18 C12.83 72.41, 7.45 66.02, 4.24 59.16 C1.02 52.3, -0.73 42.41, 0.17 35.02 C1.08 27.63, 4.66 20.47, 9.65 14.84 C14.64 9.21, 26.45 3.35, 30.12 1.22 C33.8 -0.91, 31.32 1.34, 31.68 2.05 M41.88 -1.47 C49.04 -1.6, 60.37 3.83, 66.61 8.15 C72.86 12.48, 76.55 17.73, 79.35 24.48 C82.16 31.22, 84.6 41.54, 83.42 48.63 C82.24 55.72, 77.39 61.77, 72.29 67.04 C67.19 72.32, 60.18 78.51, 52.83 80.27 C45.48 82.03, 35.38 80.19, 28.21 77.61 C21.04 75.02, 14.71 70.14, 9.82 64.76 C4.93 59.38, -0.23 52.45, -1.15 45.33 C-2.06 38.22, 0.79 28.58, 4.33 22.07 C7.87 15.55, 13.78 9.92, 20.1 6.22 C26.43 2.52, 38.25 0.99, 42.28 -0.15 C46.31 -1.29, 43.97 -1.52, 44.27 -0.63" stroke="#000000" stroke-width="1" fill="none"></path></g><g stroke-linecap="round" transform="translate(310.04241650637454 256.81235803255254) rotate(0 42 40.5)"><path d="M4.29 22.28 C4.29 22.28, 4.29 22.28, 4.29 22.28 M4.29 22.28 C4.29 22.28, 4.29 22.28, 4.29 22.28 M1.16 31.83 C6 26.16, 11.52 19.42, 22.27 7.53 M2.98 30.11 C10.06 21.87, 16.67 12.62, 21.66 7.74 M2.34 40.79 C5.94 31.23, 13.5 23.57, 31.24 3.8 M1.2 39.81 C10.35 27.4, 19.39 16.37, 30.25 5.94 M-2.4 47.41 C13.56 28.4, 30.2 11.4, 35 1.57 M-1.3 46.82 C11.75 32.71, 22.43 20.15, 36.16 3 M0.99 47.88 C20.75 29.92, 34.29 13.72, 43.41 2.27 M2.83 49.82 C14.85 34.35, 27.43 20.41, 44.18 0.69 M4.12 54.87 C12.55 43.02, 22.81 29.57, 48.41 0.95 M3.35 53.85 C19.03 37.4, 31.67 19.64, 48.19 3.12 M6.21 55.85 C17.27 40.79, 29.96 29.33, 50.7 3.79 M5.11 57.01 C19.8 41.45, 35.21 24.17, 52.51 2.56 M9.09 61.27 C21.63 43.81, 36.09 28.85, 56.18 3.85 M7.77 60.88 C23.03 42.47, 38.38 24.64, 57.02 5.53 M9.31 65.64 C24.63 45.81, 39.8 27.8, 59.36 6.38 M10.57 63.96 C28.95 41.92, 47.69 20.84, 61.28 6.36 M12.44 67.94 C28.6 50.08, 42.06 34.59, 64.97 9.98 M13.33 68.39 C31.31 45.56, 51.09 22.92, 64.83 8.74 M15.88 70.22 C32.03 49.31, 47.6 32.37, 68.1 7.69 M15.95 68.83 C36.86 46.01, 57.39 21.38, 67.99 9.05 M18.46 70.76 C31.56 57.07, 43.41 45.57, 70.52 13.65 M18.71 71.95 C35.96 52.37, 53.25 33.83, 70.88 13.38 M21.92 75.65 C36.73 58.53, 49.38 44.67, 72.06 16.43 M22.39 74.35 C38.72 55.55, 56.19 35.09, 73.5 15.18 M23.84 76.69 C34.6 65.67, 46.78 52.23, 74.93 17.71 M25.96 76.75 C37.68 63.07, 48.93 51.54, 74.75 20.19 M29.78 80.53 C44.85 61.35, 59.62 42.99, 77.25 20.36 M29.35 79.39 C42.07 65.1, 52.74 52.42, 78.57 22.88 M32.88 79.5 C46.93 65.95, 55.66 54.85, 81.26 26.59 M33.74 79.28 C48.9 63.75, 63.64 47.07, 80.94 24.94 M39.42 80.28 C53.89 63.59, 69.42 45.46, 82.19 30.82 M39.85 79.1 C50.06 67.17, 60.49 54.57, 81.36 30.4 M42.97 79.26 C54.06 69.55, 64.9 56.61, 83.04 34.28 M44.72 78.91 C57.27 64.16, 70.38 48.3, 82.39 36.58 M49.28 79.9 C59.87 66.62, 71.23 57.65, 82.3 40.44 M49.37 81.8 C55.27 72.16, 63.73 64.98, 83.97 41.81 M53.84 80.87 C59.76 74.43, 67.68 66.65, 84.02 46.32 M52.93 80.36 C64.18 68.5, 76.1 55.38, 84.26 47.08 M67.95 71.38 C71.95 65.28, 81.57 54.86, 87.39 50.66 M65.52 72.3 C69.17 67.89, 73.84 64.86, 85.83 50.52 M9.63 65.14 C9.63 65.14, 9.63 65.14, 9.63 65.14 M9.63 65.14 C9.63 65.14, 9.63 65.14, 9.63 65.14 M27.75 78.43 C18.17 70.15, 11.61 59.61, 3.26 54.19 M29.58 76.66 C22.71 72.03, 16.5 67.45, 5.3 55.71 M36.82 75.87 C24.78 67.64, 13.3 57.96, 0.19 44.62 M35.85 76.8 C22.36 65.9, 6.68 52.91, -0.81 45.33 M43.58 79.15 C30.06 66.37, 19.76 56.62, 3.39 42.47 M43.43 78.87 C33.66 70.44, 25.82 63.94, 1.44 41.88 M51.44 77.48 C33.06 63.16, 16.83 51.24, 4.05 36.56 M50.46 78.29 C35.59 65.48, 20.69 52.91, 3.53 37.31 M56.4 76.09 C40.14 65.39, 25.92 51.64, 3.39 34.43 M54.92 76.91 C42.53 66.88, 29.23 55.8, 4.37 33.52 M58.72 75.95 C41.64 61.36, 26.22 49.46, 6.47 29.51 M58.96 75.16 C47.2 65.64, 35.53 56.86, 4.87 29.93 M63.51 74.98 C38.84 56.11, 20.39 36.85, 5.11 24.29 M62.22 73.46 C50.37 63.34, 36.7 52.49, 5.45 24.93 M65.09 72.45 C45.22 54.31, 23.11 33.22, 7.71 20.07 M64.89 71.03 C52.63 59.62, 39.71 48.35, 6.67 19.91 M68.41 66.81 C46.57 51.87, 27.85 34.3, 7.17 17.44 M67.73 67.98 C53.46 56.63, 39.95 44.44, 9.75 16.12 M73.4 68.12 C56.78 55.2, 42.6 40.18, 10.23 14.11 M73.19 68.06 C59.58 57.17, 47.8 45.6, 12.61 14.75 M73.31 65.25 C52.15 46.58, 34.03 26.54, 16.85 11.95 M74.43 64.17 C54.89 45.25, 34.09 27.6, 15.99 12.33 M74.65 60.86 C60.76 45, 47.87 32.73, 18.62 8.22 M75.93 59.67 C60.31 46.43, 44.17 31.76, 18.45 8.22 M77.31 56.63 C64.37 44.29, 52.56 31.91, 22.1 6.59 M78.25 55.9 C64.97 46.6, 53.07 34, 20.5 6.01 M80.6 51.74 C69.36 41.96, 56.44 29.95, 26.97 3.63 M80.87 52.99 C65.85 38.75, 50.85 26.5, 25.39 4.24 M82.74 49.91 C64.94 34.35, 46.75 18.06, 30.11 2.01 M82.26 49.2 C68.69 38.27, 55.22 24.75, 29.86 2.01 M85.39 44.57 C74.14 36.59, 62.49 25.58, 34.27 2.18 M85.16 46.42 C71.55 33.96, 56.98 22.12, 33.54 0.9 M83.33 41.38 C74.02 32.12, 64.17 23.28, 39.44 -1.07 M84.92 40.98 C70.71 28.19, 55.47 14.25, 38.96 -0.17 M84.83 33.19 C73.75 27.09, 68.02 17.44, 42.94 -2.91 M82.57 32.93 C70.21 22.15, 56.85 12.49, 42.38 -0.84 M82.51 28.65 C73.29 18.21, 62.65 9.23, 54.15 1.95 M82.36 26.98 C71.79 17.85, 61.26 9.25, 53.17 3.32 M80.73 23.26 C73.97 14.76, 68.76 9.49, 64.94 4.65 M81.84 21.83 C77.48 18.71, 74.03 16.3, 62.93 6.61" stroke="#2b73af" stroke-width="0.5" fill="none"></path><path d="M42.35 -0.97 C49.53 -1.18, 60.1 3.55, 66.34 7.81 C72.58 12.07, 76.97 17.85, 79.81 24.59 C82.66 31.34, 84.62 41.13, 83.4 48.26 C82.18 55.38, 77.59 62.04, 72.48 67.35 C67.37 72.65, 60.08 78.29, 52.74 80.08 C45.4 81.87, 35.62 80.55, 28.45 78.07 C21.27 75.59, 14.54 70.66, 9.68 65.19 C4.83 59.72, 0.21 52.39, -0.68 45.23 C-1.57 38.07, 0.86 28.75, 4.34 22.22 C7.82 15.7, 12.8 9.68, 20.2 6.07 C27.61 2.45, 42.83 1.22, 48.77 0.53 C54.71 -0.16, 55.74 1.12, 55.84 1.92 M41.01 -1.19 C48.08 -2.11, 56.65 2.19, 63.12 5.95 C69.6 9.71, 76.39 14.68, 79.87 21.37 C83.34 28.07, 84.65 38.49, 83.97 46.12 C83.3 53.76, 80.75 61.59, 75.81 67.16 C70.87 72.74, 61.85 77.65, 54.34 79.58 C46.84 81.51, 37.98 80.41, 30.77 78.72 C23.56 77.03, 16.35 74.69, 11.1 69.44 C5.85 64.19, 0.51 54.46, -0.74 47.19 C-1.98 39.92, 0.61 32.44, 3.65 25.81 C6.69 19.19, 11.49 11.71, 17.51 7.44 C23.53 3.17, 35.83 1.16, 39.76 0.19 C43.69 -0.79, 40.82 0.71, 41.08 1.57" stroke="#000000" stroke-width="1" fill="none"></path></g><g transform="translate(48.042416506374536 54.31235803255254) rotate(0 37 22.5)"><text x="37" y="32" font-family="Virgil, Segoe UI Emoji" font-size="36px" fill="#000000" text-anchor="middle" style="white-space: pre;" direction="ltr">1</text></g><g transform="translate(307.04241650637454 49.81235803255254) rotate(0 37 22.5)"><text x="37" y="32" font-family="Virgil, Segoe UI Emoji" font-size="36px" fill="#000000" text-anchor="middle" style="white-space: pre;" direction="ltr">2</text></g><g transform="translate(55.042416506374536 273.81235803255254) rotate(0 37 22.5)"><text x="37" y="32" font-family="Virgil, Segoe UI Emoji" font-size="36px" fill="#000000" text-anchor="middle" style="white-space: pre;" direction="ltr">3</text></g><g transform="translate(315.04241650637454 274.81235803255254) rotate(0 37 22.5)"><text x="37" y="32" font-family="Virgil, Segoe UI Emoji" font-size="36px" fill="#000000" text-anchor="middle" style="white-space: pre;" direction="ltr">4</text></g><g stroke-linecap="round"><g transform="translate(35.042416506374536 81.31235803255254) rotate(0 7.288966593834431 -35.534293210326695)"><path d="M-0.7 0.24 C-4.51 -10.71, -29.82 -56.31, -23.1 -66.5 C-16.38 -76.69, 29.3 -61.62, 39.62 -60.9 M1.13 -0.67 C-2.82 -11.91, -30.44 -58.55, -24.1 -68.36 C-17.76 -78.17, 28.67 -60.64, 39.18 -59.53" stroke="#000000" stroke-width="1" fill="none"></path></g><g transform="translate(35.042416506374536 81.31235803255254) rotate(0 7.288966593834431 -35.534293210326695)"><path d="M9.75 -56.53 C18.51 -56.04, 26.14 -58.26, 37.19 -61.03 M8.39 -56.14 C18.85 -58.34, 30.09 -59.62, 38.36 -60.51" stroke="#000000" stroke-width="1" fill="none"></path></g><g transform="translate(35.042416506374536 81.31235803255254) rotate(0 7.288966593834431 -35.534293210326695)"><path d="M14.7 -76.45 C21.94 -70.44, 28.2 -67.12, 37.19 -61.03 M13.33 -76.05 C22.15 -71.53, 31.72 -66.1, 38.36 -60.51" stroke="#000000" stroke-width="1" fill="none"></path></g></g><g stroke-linecap="round"><g transform="translate(294.04241650637454 81.81235803255254) rotate(0 7.823669137328466 -35.67297752420308)"><path d="M0.7 0.1 C-3.11 -11.38, -29.2 -57.9, -22.96 -68.12 C-16.71 -78.35, 27.83 -62.46, 38.18 -61.22 M-0.39 -0.89 C-4.35 -12.34, -30.72 -57.32, -23.88 -67.18 C-17.04 -77.03, 30.08 -61.32, 40.64 -60.02" stroke="#000000" stroke-width="1" fill="none"></path></g><g transform="translate(294.04241650637454 81.81235803255254) rotate(0 7.823669137328466 -35.67297752420308)"><path d="M11.04 -56.27 C17.75 -58.97, 28.03 -58.42, 41.19 -58.85 M11.69 -55.92 C17.88 -58.21, 25.7 -57.41, 40.9 -60.81" stroke="#000000" stroke-width="1" fill="none"></path></g><g transform="translate(294.04241650637454 81.81235803255254) rotate(0 7.823669137328466 -35.67297752420308)"><path d="M15.64 -76.27 C21.12 -73.05, 30.05 -66.6, 41.19 -58.85 M16.29 -75.92 C21.54 -73.4, 28.27 -67.81, 40.9 -60.81" stroke="#000000" stroke-width="1" fill="none"></path></g></g><g stroke-linecap="round"><g transform="translate(41.042416506374536 304.81235803255254) rotate(0 7.232851225048535 -35.458923590459506)"><path d="M-0.78 -0.06 C-4.82 -11.18, -30.27 -55.88, -23.46 -65.88 C-16.65 -75.88, 29.77 -61.04, 40.08 -60.05 M1.01 -1.14 C-3.3 -12.63, -31.12 -57.29, -24.65 -67.41 C-18.17 -77.54, 29.38 -62.8, 39.89 -61.9" stroke="#000000" stroke-width="1" fill="none"></path></g><g transform="translate(41.042416506374536 304.81235803255254) rotate(0 7.232851225048535 -35.458923590459506)"><path d="M10.12 -58.19 C22.93 -57.07, 33.5 -61.44, 41.62 -61.78 M10.1 -57.09 C19.39 -59.18, 31.11 -60.22, 39.93 -62.13" stroke="#000000" stroke-width="1" fill="none"></path></g><g transform="translate(41.042416506374536 304.81235803255254) rotate(0 7.232851225048535 -35.458923590459506)"><path d="M14.19 -78.3 C25.64 -69.84, 34.73 -66.84, 41.62 -61.78 M14.16 -77.2 C22.18 -72.45, 32.52 -66.64, 39.93 -62.13" stroke="#000000" stroke-width="1" fill="none"></path></g></g><g stroke-linecap="round"><g transform="translate(306.04241650637454 311.81235803255254) rotate(0 6.954933812874572 -35.502687039011704)"><path d="M0.21 0.23 C-3.81 -11.21, -30.67 -57.89, -24.19 -68.02 C-17.7 -78.14, 28.68 -61.67, 39.1 -60.5 M-1.14 -0.7 C-4.8 -12.08, -28.68 -56.7, -22.1 -67.01 C-15.51 -77.33, 28.34 -63.77, 38.38 -62.58" stroke="#000000" stroke-width="1" fill="none"></path></g><g transform="translate(306.04241650637454 311.81235803255254) rotate(0 6.954933812874572 -35.502687039011704)"><path d="M9.06 -60.34 C15.61 -59.48, 26.79 -62.05, 38.37 -64.37 M9.18 -58.68 C18.31 -60.42, 28.65 -60.74, 38.83 -62.07" stroke="#000000" stroke-width="1" fill="none"></path></g><g transform="translate(306.04241650637454 311.81235803255254) rotate(0 6.954933812874572 -35.502687039011704)"><path d="M13.3 -80.42 C18.72 -73.71, 28.66 -70.43, 38.37 -64.37 M13.42 -78.76 C20.98 -74.03, 29.95 -67.85, 38.83 -62.07" stroke="#000000" stroke-width="1" fill="none"></path></g></g></svg>